<?xml version="1.0" encoding="utf-8" standalone="no"?>
<!DOCTYPE svg PUBLIC "-//W3C//DTD SVG 1.1//EN"
  "http://www.w3.org/Graphics/SVG/1.1/DTD/svg11.dtd">
<svg xmlns:xlink="http://www.w3.org/1999/xlink" width="460.8pt" height="345.6pt" viewBox="0 0 460.8 345.6" xmlns="http://www.w3.org/2000/svg" version="1.1">
 <metadata>
  <rdf:RDF xmlns:dc="http://purl.org/dc/elements/1.1/" xmlns:cc="http://creativecommons.org/ns#" xmlns:rdf="http://www.w3.org/1999/02/22-rdf-syntax-ns#">
   <cc:Work>
    <dc:type rdf:resource="http://purl.org/dc/dcmitype/StillImage"/>
    <dc:date>1980-01-01T00:00:00+00:00</dc:date>
    <dc:format>image/svg+xml</dc:format>
    <dc:creator>
     <cc:Agent>
      <dc:title>Matplotlib v3.11.0, https://matplotlib.org/</dc:title>
     </cc:Agent>
    </dc:creator>
   </cc:Work>
  </rdf:RDF>
 </metadata>
 <defs>
  <style type="text/css">*{stroke-linejoin: round; stroke-linecap: butt}</style>
 </defs>
 <g id="figure_1">
  <g id="patch_1">
   <path d="M 0 345.6 
L 460.8 345.6 
L 460.8 0 
L 0 0 
z
" style="fill: #ffffff"/>
  </g>
  <g id="axes_1">
   <g id="patch_2">
    <path d="M 57.6 307.584 
L 414.72 307.584 
L 414.72 41.472 
L 57.6 41.472 
z
" style="fill: #ffffff"/>
   </g>
   <g id="FillBetweenPolyCollection_1">
    <defs>
     <path id="m65fd1524d2" d="M 73.832727 -219.456 
L 73.832727 -50.112 
L 75.464157 -50.112 
L 77.095587 -50.112 
L 78.727017 -50.112 
L 80.358447 -50.112 
L 81.989877 -50.112 
L 83.621307 -50.112 
L 85.252736 -50.112 
L 86.884166 -50.112 
L 88.515596 -50.112 
L 90.147026 -50.112 
L 91.778456 -50.112 
L 93.409886 -50.112 
L 95.041316 -50.112 
L 96.672746 -50.112 
L 98.304175 -50.112 
L 99.935605 -50.112 
L 101.567035 -50.112 
L 103.198465 -50.112 
L 104.829895 -50.112 
L 106.461325 -50.112 
L 108.092755 -50.112 
L 109.724185 -50.112 
L 111.355614 -50.112 
L 112.987044 -50.112 
L 114.618474 -50.112 
L 116.249904 -50.112 
L 117.881334 -50.112 
L 119.512764 -50.112 
L 121.144194 -50.112 
L 122.775624 -50.112 
L 124.407053 -50.112 
L 126.038483 -50.112 
L 127.669913 -50.112 
L 129.301343 -50.112 
L 130.932773 -50.112 
L 132.564203 -50.112 
L 134.195633 -50.112 
L 135.827063 -50.112 
L 137.458492 -50.112 
L 139.089922 -50.112 
L 140.721352 -50.112 
L 142.352782 -50.112 
L 143.984212 -50.112 
L 145.615642 -50.112 
L 147.247072 -50.112 
L 148.878502 -50.112 
L 150.509931 -50.112 
L 152.141361 -50.112 
L 153.772791 -50.112 
L 155.404221 -50.112 
L 157.035651 -50.112 
L 158.667081 -50.112 
L 160.298511 -50.112 
L 161.929941 -50.112 
L 163.56137 -50.112 
L 165.1928 -50.112 
L 166.82423 -50.112 
L 168.45566 -50.112 
L 170.08709 -50.112 
L 171.71852 -50.112 
L 173.34995 -50.112 
L 174.98138 -50.112 
L 176.61281 -50.112 
L 178.244239 -50.112 
L 179.875669 -50.112 
L 181.507099 -50.112 
L 183.138529 -50.112 
L 184.769959 -50.112 
L 186.401389 -50.112 
L 188.032819 -50.112 
L 189.664249 -50.112 
L 191.295678 -50.112 
L 192.927108 -50.112 
L 194.558538 -50.112 
L 196.189968 -50.112 
L 197.821398 -50.112 
L 199.452828 -50.112 
L 201.084258 -50.112 
L 202.715688 -50.112 
L 204.347117 -50.112 
L 205.978547 -50.112 
L 207.609977 -50.112 
L 209.241407 -50.112 
L 210.872837 -50.112 
L 212.504267 -50.112 
L 214.135697 -50.112 
L 215.767127 -50.112 
L 217.398556 -50.112 
L 219.029986 -50.112 
L 220.661416 -50.112 
L 222.292846 -50.112 
L 223.924276 -50.112 
L 225.555706 -50.112 
L 227.187136 -50.112 
L 228.818566 -50.112 
L 230.449995 -50.112 
L 232.081425 -50.112 
L 233.712855 -50.112 
L 235.344285 -50.112 
L 236.975715 -50.112 
L 238.607145 -50.112 
L 240.238575 -50.112 
L 241.870005 -50.112 
L 243.501434 -50.112 
L 245.132864 -50.112 
L 246.764294 -50.112 
L 248.395724 -50.112 
L 250.027154 -50.112 
L 251.658584 -50.112 
L 253.290014 -50.112 
L 254.921444 -50.112 
L 256.552873 -50.112 
L 258.184303 -50.112 
L 259.815733 -50.112 
L 259.815733 -219.456 
L 259.815733 -219.456 
L 258.184303 -219.456 
L 256.552873 -219.456 
L 254.921444 -219.456 
L 253.290014 -219.456 
L 251.658584 -219.456 
L 250.027154 -219.456 
L 248.395724 -219.456 
L 246.764294 -219.456 
L 245.132864 -219.456 
L 243.501434 -219.456 
L 241.870005 -219.456 
L 240.238575 -219.456 
L 238.607145 -219.456 
L 236.975715 -219.456 
L 235.344285 -219.456 
L 233.712855 -219.456 
L 232.081425 -219.456 
L 230.449995 -219.456 
L 228.818566 -219.456 
L 227.187136 -219.456 
L 225.555706 -219.456 
L 223.924276 -219.456 
L 222.292846 -219.456 
L 220.661416 -219.456 
L 219.029986 -219.456 
L 217.398556 -219.456 
L 215.767127 -219.456 
L 214.135697 -219.456 
L 212.504267 -219.456 
L 210.872837 -219.456 
L 209.241407 -219.456 
L 207.609977 -219.456 
L 205.978547 -219.456 
L 204.347117 -219.456 
L 202.715688 -219.456 
L 201.084258 -219.456 
L 199.452828 -219.456 
L 197.821398 -219.456 
L 196.189968 -219.456 
L 194.558538 -219.456 
L 192.927108 -219.456 
L 191.295678 -219.456 
L 189.664249 -219.456 
L 188.032819 -219.456 
L 186.401389 -219.456 
L 184.769959 -219.456 
L 183.138529 -219.456 
L 181.507099 -219.456 
L 179.875669 -219.456 
L 178.244239 -219.456 
L 176.61281 -219.456 
L 174.98138 -219.456 
L 173.34995 -219.456 
L 171.71852 -219.456 
L 170.08709 -219.456 
L 168.45566 -219.456 
L 166.82423 -219.456 
L 165.1928 -219.456 
L 163.56137 -219.456 
L 161.929941 -219.456 
L 160.298511 -219.456 
L 158.667081 -219.456 
L 157.035651 -219.456 
L 155.404221 -219.456 
L 153.772791 -219.456 
L 152.141361 -219.456 
L 150.509931 -219.456 
L 148.878502 -219.456 
L 147.247072 -219.456 
L 145.615642 -219.456 
L 143.984212 -219.456 
L 142.352782 -219.456 
L 140.721352 -219.456 
L 139.089922 -219.456 
L 137.458492 -219.456 
L 135.827063 -219.456 
L 134.195633 -219.456 
L 132.564203 -219.456 
L 130.932773 -219.456 
L 129.301343 -219.456 
L 127.669913 -219.456 
L 126.038483 -219.456 
L 124.407053 -219.456 
L 122.775624 -219.456 
L 121.144194 -219.456 
L 119.512764 -219.456 
L 117.881334 -219.456 
L 116.249904 -219.456 
L 114.618474 -219.456 
L 112.987044 -219.456 
L 111.355614 -219.456 
L 109.724185 -219.456 
L 108.092755 -219.456 
L 106.461325 -219.456 
L 104.829895 -219.456 
L 103.198465 -219.456 
L 101.567035 -219.456 
L 99.935605 -219.456 
L 98.304175 -219.456 
L 96.672746 -219.456 
L 95.041316 -219.456 
L 93.409886 -219.456 
L 91.778456 -219.456 
L 90.147026 -219.456 
L 88.515596 -219.456 
L 86.884166 -219.456 
L 85.252736 -219.456 
L 83.621307 -219.456 
L 81.989877 -219.456 
L 80.358447 -219.456 
L 78.727017 -219.456 
L 77.095587 -219.456 
L 75.464157 -219.456 
L 73.832727 -219.456 
z
" style="stroke: #ff0000; stroke-opacity: 0.3"/>
    </defs>
    <g clip-path="url(#p2caf52fc53)">
     <use xlink:href="#m65fd1524d2" x="0" y="345.6" style="fill: #ff0000; fill-opacity: 0.3; stroke: #ff0000; stroke-opacity: 0.3"/>
    </g>
   </g>
   <g id="FillBetweenPolyCollection_2">
    <defs>
     <path id="mc948eb66ab" d="M 261.447163 -292.032 
L 261.447163 -50.112 
L 263.078593 -50.112 
L 264.710023 -50.112 
L 266.341453 -50.112 
L 267.972883 -50.112 
L 269.604312 -50.112 
L 271.235742 -50.112 
L 272.867172 -50.112 
L 274.498602 -50.112 
L 276.130032 -50.112 
L 277.761462 -50.112 
L 279.392892 -50.112 
L 281.024322 -50.112 
L 282.655751 -50.112 
L 284.287181 -50.112 
L 285.918611 -50.112 
L 287.550041 -50.112 
L 289.181471 -50.112 
L 290.812901 -50.112 
L 292.444331 -50.112 
L 294.075761 -50.112 
L 295.70719 -50.112 
L 297.33862 -50.112 
L 298.97005 -50.112 
L 300.60148 -50.112 
L 302.23291 -50.112 
L 303.86434 -50.112 
L 305.49577 -50.112 
L 307.1272 -50.112 
L 308.75863 -50.112 
L 310.390059 -50.112 
L 312.021489 -50.112 
L 313.652919 -50.112 
L 315.284349 -50.112 
L 316.915779 -50.112 
L 318.547209 -50.112 
L 320.178639 -50.112 
L 321.810069 -50.112 
L 323.441498 -50.112 
L 325.072928 -50.112 
L 326.704358 -50.112 
L 328.335788 -50.112 
L 329.967218 -50.112 
L 331.598648 -50.112 
L 333.230078 -50.112 
L 334.861508 -50.112 
L 336.492937 -50.112 
L 338.124367 -50.112 
L 339.755797 -50.112 
L 341.387227 -50.112 
L 343.018657 -50.112 
L 344.650087 -50.112 
L 346.281517 -50.112 
L 347.912947 -50.112 
L 349.544376 -50.112 
L 351.175806 -50.112 
L 352.807236 -50.112 
L 354.438666 -50.112 
L 354.438666 -292.032 
L 354.438666 -292.032 
L 352.807236 -292.032 
L 351.175806 -292.032 
L 349.544376 -292.032 
L 347.912947 -292.032 
L 346.281517 -292.032 
L 344.650087 -292.032 
L 343.018657 -292.032 
L 341.387227 -292.032 
L 339.755797 -292.032 
L 338.124367 -292.032 
L 336.492937 -292.032 
L 334.861508 -292.032 
L 333.230078 -292.032 
L 331.598648 -292.032 
L 329.967218 -292.032 
L 328.335788 -292.032 
L 326.704358 -292.032 
L 325.072928 -292.032 
L 323.441498 -292.032 
L 321.810069 -292.032 
L 320.178639 -292.032 
L 318.547209 -292.032 
L 316.915779 -292.032 
L 315.284349 -292.032 
L 313.652919 -292.032 
L 312.021489 -292.032 
L 310.390059 -292.032 
L 308.75863 -292.032 
L 307.1272 -292.032 
L 305.49577 -292.032 
L 303.86434 -292.032 
L 302.23291 -292.032 
L 300.60148 -292.032 
L 298.97005 -292.032 
L 297.33862 -292.032 
L 295.70719 -292.032 
L 294.075761 -292.032 
L 292.444331 -292.032 
L 290.812901 -292.032 
L 289.181471 -292.032 
L 287.550041 -292.032 
L 285.918611 -292.032 
L 284.287181 -292.032 
L 282.655751 -292.032 
L 281.024322 -292.032 
L 279.392892 -292.032 
L 277.761462 -292.032 
L 276.130032 -292.032 
L 274.498602 -292.032 
L 272.867172 -292.032 
L 271.235742 -292.032 
L 269.604312 -292.032 
L 267.972883 -292.032 
L 266.341453 -292.032 
L 264.710023 -292.032 
L 263.078593 -292.032 
L 261.447163 -292.032 
z
" style="stroke: #ffff00; stroke-opacity: 0.3"/>
    </defs>
    <g clip-path="url(#p2caf52fc53)">
     <use xlink:href="#mc948eb66ab" x="0" y="345.6" style="fill: #ffff00; fill-opacity: 0.3; stroke: #ffff00; stroke-opacity: 0.3"/>
    </g>
   </g>
   <g id="FillBetweenPolyCollection_3">
    <defs>
     <path id="m8eee101d62" d="M 356.070096 -292.032 
L 356.070096 -219.456 
L 357.701526 -219.456 
L 359.332956 -219.456 
L 360.964386 -219.456 
L 362.595815 -219.456 
L 364.227245 -219.456 
L 365.858675 -219.456 
L 367.490105 -219.456 
L 369.121535 -219.456 
L 370.752965 -219.456 
L 372.384395 -219.456 
L 374.015825 -219.456 
L 374.015825 -292.032 
L 374.015825 -292.032 
L 372.384395 -292.032 
L 370.752965 -292.032 
L 369.121535 -292.032 
L 367.490105 -292.032 
L 365.858675 -292.032 
L 364.227245 -292.032 
L 362.595815 -292.032 
L 360.964386 -292.032 
L 359.332956 -292.032 
L 357.701526 -292.032 
L 356.070096 -292.032 
z
" style="stroke: #008000; stroke-opacity: 0.3"/>
    </defs>
    <g clip-path="url(#p2caf52fc53)">
     <use xlink:href="#m8eee101d62" x="0" y="345.6" style="fill: #008000; fill-opacity: 0.3; stroke: #008000; stroke-opacity: 0.3"/>
    </g>
   </g>
   <g id="FillBetweenPolyCollection_4">
    <defs>
     <path id="m831ce44ded" d="M 375.647254 -292.032 
L 375.647254 -243.648 
L 377.278684 -243.648 
L 378.910114 -243.648 
L 380.541544 -243.648 
L 382.172974 -243.648 
L 383.804404 -243.648 
L 385.435834 -243.648 
L 387.067264 -243.648 
L 388.698693 -243.648 
L 390.330123 -243.648 
L 391.961553 -243.648 
L 393.592983 -243.648 
L 395.224413 -243.648 
L 396.855843 -243.648 
L 398.487273 -243.648 
L 398.487273 -292.032 
L 398.487273 -292.032 
L 396.855843 -292.032 
L 395.224413 -292.032 
L 393.592983 -292.032 
L 391.961553 -292.032 
L 390.330123 -292.032 
L 388.698693 -292.032 
L 387.067264 -292.032 
L 385.435834 -292.032 
L 383.804404 -292.032 
L 382.172974 -292.032 
L 380.541544 -292.032 
L 378.910114 -292.032 
L 377.278684 -292.032 
L 375.647254 -292.032 
z
" style="stroke: #008000; stroke-opacity: 0.3"/>
    </defs>
    <g clip-path="url(#p2caf52fc53)">
     <use xlink:href="#m831ce44ded" x="0" y="345.6" style="fill: #008000; fill-opacity: 0.3; stroke: #008000; stroke-opacity: 0.3"/>
    </g>
   </g>
   <g id="matplotlib.axis_1">
    <g id="xtick_1">
     <g id="line2d_1">
      <path d="M 73.832727 307.584 
L 73.832727 41.472 
" clip-path="url(#p2caf52fc53)" style="fill: none; stroke: #b0b0b0; stroke-width: 0.8; stroke-linecap: square"/>
     </g>
     <g id="line2d_2">
      <defs>
       <path id="m2fe86162ac" d="M 0 0 
L 0 3.5 
" style="stroke: #000000; stroke-width: 0.8"/>
      </defs>
      <g>
       <use xlink:href="#m2fe86162ac" x="73.832727" y="307.584" style="stroke: #000000; stroke-width: 0.8"/>
      </g>
     </g>
     <g id="text_1">
      <!-- $\mathdefault{10^{0}}$ -->
      <g transform="translate(65.032727 323.984) scale(0.1 -0.1)">
       <defs>
        <path id="DejaVuSans-14" d="M 794 531 
L 1825 531 
L 1825 4091 
L 703 3866 
L 703 4441 
L 1819 4666 
L 2450 4666 
L 2450 531 
L 3481 531 
L 3481 0 
L 794 0 
L 794 531 
z
" transform="scale(0.015625)"/>
        <path id="DejaVuSans-13" d="M 2034 4250 
Q 1547 4250 1301 3770 
Q 1056 3291 1056 2328 
Q 1056 1369 1301 889 
Q 1547 409 2034 409 
Q 2525 409 2770 889 
Q 3016 1369 3016 2328 
Q 3016 3291 2770 3770 
Q 2525 4250 2034 4250 
z
M 2034 4750 
Q 2819 4750 3233 4129 
Q 3647 3509 3647 2328 
Q 3647 1150 3233 529 
Q 2819 -91 2034 -91 
Q 1250 -91 836 529 
Q 422 1150 422 2328 
Q 422 3509 836 4129 
Q 1250 4750 2034 4750 
z
" transform="scale(0.015625)"/>
       </defs>
       <use xlink:href="#DejaVuSans-14" transform="translate(0 0.746875)"/>
       <use xlink:href="#DejaVuSans-13" transform="translate(63.623047 0.746875)"/>
       <use xlink:href="#DejaVuSans-13" transform="translate(128.203125 42.046875) scale(0.7)"/>
      </g>
     </g>
    </g>
    <g id="xtick_2">
     <g id="line2d_3">
      <path d="M 154.996364 307.584 
L 154.996364 41.472 
" clip-path="url(#p2caf52fc53)" style="fill: none; stroke: #b0b0b0; stroke-width: 0.8; stroke-linecap: square"/>
     </g>
     <g id="line2d_4">
      <g>
       <use xlink:href="#m2fe86162ac" x="154.996364" y="307.584" style="stroke: #000000; stroke-width: 0.8"/>
      </g>
     </g>
     <g id="text_2">
      <!-- $\mathdefault{10^{1}}$ -->
      <g transform="translate(146.196364 323.884) scale(0.1 -0.1)">
       <use xlink:href="#DejaVuSans-14" transform="translate(0 0.665625)"/>
       <use xlink:href="#DejaVuSans-13" transform="translate(63.623047 0.665625)"/>
       <use xlink:href="#DejaVuSans-14" transform="translate(128.203125 41.965625) scale(0.7)"/>
      </g>
     </g>
    </g>
    <g id="xtick_3">
     <g id="line2d_5">
      <path d="M 236.16 307.584 
L 236.16 41.472 
" clip-path="url(#p2caf52fc53)" style="fill: none; stroke: #b0b0b0; stroke-width: 0.8; stroke-linecap: square"/>
     </g>
     <g id="line2d_6">
      <g>
       <use xlink:href="#m2fe86162ac" x="236.16" y="307.584" style="stroke: #000000; stroke-width: 0.8"/>
      </g>
     </g>
     <g id="text_3">
      <!-- $\mathdefault{10^{2}}$ -->
      <g transform="translate(227.36 323.984) scale(0.1 -0.1)">
       <defs>
        <path id="DejaVuSans-15" d="M 1228 531 
L 3431 531 
L 3431 0 
L 469 0 
L 469 531 
Q 828 903 1448 1529 
Q 2069 2156 2228 2338 
Q 2531 2678 2651 2914 
Q 2772 3150 2772 3378 
Q 2772 3750 2511 3984 
Q 2250 4219 1831 4219 
Q 1534 4219 1204 4116 
Q 875 4013 500 3803 
L 500 4441 
Q 881 4594 1212 4672 
Q 1544 4750 1819 4750 
Q 2544 4750 2975 4387 
Q 3406 4025 3406 3419 
Q 3406 3131 3298 2873 
Q 3191 2616 2906 2266 
Q 2828 2175 2409 1742 
Q 1991 1309 1228 531 
z
" transform="scale(0.015625)"/>
       </defs>
       <use xlink:href="#DejaVuSans-14" transform="translate(0 0.746875)"/>
       <use xlink:href="#DejaVuSans-13" transform="translate(63.623047 0.746875)"/>
       <use xlink:href="#DejaVuSans-15" transform="translate(128.203125 42.046875) scale(0.7)"/>
      </g>
     </g>
    </g>
    <g id="xtick_4">
     <g id="line2d_7">
      <path d="M 317.323636 307.584 
L 317.323636 41.472 
" clip-path="url(#p2caf52fc53)" style="fill: none; stroke: #b0b0b0; stroke-width: 0.8; stroke-linecap: square"/>
     </g>
     <g id="line2d_8">
      <g>
       <use xlink:href="#m2fe86162ac" x="317.323636" y="307.584" style="stroke: #000000; stroke-width: 0.8"/>
      </g>
     </g>
     <g id="text_4">
      <!-- $\mathdefault{10^{3}}$ -->
      <g transform="translate(308.523636 323.984) scale(0.1 -0.1)">
       <defs>
        <path id="DejaVuSans-16" d="M 2597 2516 
Q 3050 2419 3304 2112 
Q 3559 1806 3559 1356 
Q 3559 666 3084 287 
Q 2609 -91 1734 -91 
Q 1441 -91 1130 -33 
Q 819 25 488 141 
L 488 750 
Q 750 597 1062 519 
Q 1375 441 1716 441 
Q 2309 441 2620 675 
Q 2931 909 2931 1356 
Q 2931 1769 2642 2001 
Q 2353 2234 1838 2234 
L 1294 2234 
L 1294 2753 
L 1863 2753 
Q 2328 2753 2575 2939 
Q 2822 3125 2822 3475 
Q 2822 3834 2567 4026 
Q 2313 4219 1838 4219 
Q 1578 4219 1281 4162 
Q 984 4106 628 3988 
L 628 4550 
Q 988 4650 1302 4700 
Q 1616 4750 1894 4750 
Q 2613 4750 3031 4423 
Q 3450 4097 3450 3541 
Q 3450 3153 3228 2886 
Q 3006 2619 2597 2516 
z
" transform="scale(0.015625)"/>
       </defs>
       <use xlink:href="#DejaVuSans-14" transform="translate(0 0.746875)"/>
       <use xlink:href="#DejaVuSans-13" transform="translate(63.623047 0.746875)"/>
       <use xlink:href="#DejaVuSans-16" transform="translate(128.203125 42.046875) scale(0.7)"/>
      </g>
     </g>
    </g>
    <g id="xtick_5">
     <g id="line2d_9">
      <path d="M 398.487273 307.584 
L 398.487273 41.472 
" clip-path="url(#p2caf52fc53)" style="fill: none; stroke: #b0b0b0; stroke-width: 0.8; stroke-linecap: square"/>
     </g>
     <g id="line2d_10">
      <g>
       <use xlink:href="#m2fe86162ac" x="398.487273" y="307.584" style="stroke: #000000; stroke-width: 0.8"/>
      </g>
     </g>
     <g id="text_5">
      <!-- $\mathdefault{10^{4}}$ -->
      <g transform="translate(389.687273 323.884) scale(0.1 -0.1)">
       <defs>
        <path id="DejaVuSans-17" d="M 2419 4116 
L 825 1625 
L 2419 1625 
L 2419 4116 
z
M 2253 4666 
L 3047 4666 
L 3047 1625 
L 3713 1625 
L 3713 1100 
L 3047 1100 
L 3047 0 
L 2419 0 
L 2419 1100 
L 313 1100 
L 313 1709 
L 2253 4666 
z
" transform="scale(0.015625)"/>
       </defs>
       <use xlink:href="#DejaVuSans-14" transform="translate(0 0.665625)"/>
       <use xlink:href="#DejaVuSans-13" transform="translate(63.623047 0.665625)"/>
       <use xlink:href="#DejaVuSans-17" transform="translate(128.203125 41.965625) scale(0.7)"/>
      </g>
     </g>
    </g>
    <g id="xtick_6">
     <g id="line2d_11">
      <defs>
       <path id="mbc5c6680c4" d="M 0 0 
L 0 2 
" style="stroke: #000000; stroke-width: 0.6"/>
      </defs>
      <g>
       <use xlink:href="#mbc5c6680c4" x="61.260321" y="307.584" style="stroke: #000000; stroke-width: 0.6"/>
      </g>
     </g>
    </g>
    <g id="xtick_7">
     <g id="line2d_12">
      <g>
       <use xlink:href="#mbc5c6680c4" x="65.967158" y="307.584" style="stroke: #000000; stroke-width: 0.6"/>
      </g>
     </g>
    </g>
    <g id="xtick_8">
     <g id="line2d_13">
      <g>
       <use xlink:href="#mbc5c6680c4" x="70.118883" y="307.584" style="stroke: #000000; stroke-width: 0.6"/>
      </g>
     </g>
    </g>
    <g id="xtick_9">
     <g id="line2d_14">
      <g>
       <use xlink:href="#mbc5c6680c4" x="98.265416" y="307.584" style="stroke: #000000; stroke-width: 0.6"/>
      </g>
     </g>
    </g>
    <g id="xtick_10">
     <g id="line2d_15">
      <g>
       <use xlink:href="#mbc5c6680c4" x="112.557623" y="307.584" style="stroke: #000000; stroke-width: 0.6"/>
      </g>
     </g>
    </g>
    <g id="xtick_11">
     <g id="line2d_16">
      <g>
       <use xlink:href="#mbc5c6680c4" x="122.698105" y="307.584" style="stroke: #000000; stroke-width: 0.6"/>
      </g>
     </g>
    </g>
    <g id="xtick_12">
     <g id="line2d_17">
      <g>
       <use xlink:href="#mbc5c6680c4" x="130.563675" y="307.584" style="stroke: #000000; stroke-width: 0.6"/>
      </g>
     </g>
    </g>
    <g id="xtick_13">
     <g id="line2d_18">
      <g>
       <use xlink:href="#mbc5c6680c4" x="136.990312" y="307.584" style="stroke: #000000; stroke-width: 0.6"/>
      </g>
     </g>
    </g>
    <g id="xtick_14">
     <g id="line2d_19">
      <g>
       <use xlink:href="#mbc5c6680c4" x="142.423957" y="307.584" style="stroke: #000000; stroke-width: 0.6"/>
      </g>
     </g>
    </g>
    <g id="xtick_15">
     <g id="line2d_20">
      <g>
       <use xlink:href="#mbc5c6680c4" x="147.130795" y="307.584" style="stroke: #000000; stroke-width: 0.6"/>
      </g>
     </g>
    </g>
    <g id="xtick_16">
     <g id="line2d_21">
      <g>
       <use xlink:href="#mbc5c6680c4" x="151.282519" y="307.584" style="stroke: #000000; stroke-width: 0.6"/>
      </g>
     </g>
    </g>
    <g id="xtick_17">
     <g id="line2d_22">
      <g>
       <use xlink:href="#mbc5c6680c4" x="179.429053" y="307.584" style="stroke: #000000; stroke-width: 0.6"/>
      </g>
     </g>
    </g>
    <g id="xtick_18">
     <g id="line2d_23">
      <g>
       <use xlink:href="#mbc5c6680c4" x="193.72126" y="307.584" style="stroke: #000000; stroke-width: 0.6"/>
      </g>
     </g>
    </g>
    <g id="xtick_19">
     <g id="line2d_24">
      <g>
       <use xlink:href="#mbc5c6680c4" x="203.861742" y="307.584" style="stroke: #000000; stroke-width: 0.6"/>
      </g>
     </g>
    </g>
    <g id="xtick_20">
     <g id="line2d_25">
      <g>
       <use xlink:href="#mbc5c6680c4" x="211.727311" y="307.584" style="stroke: #000000; stroke-width: 0.6"/>
      </g>
     </g>
    </g>
    <g id="xtick_21">
     <g id="line2d_26">
      <g>
       <use xlink:href="#mbc5c6680c4" x="218.153949" y="307.584" style="stroke: #000000; stroke-width: 0.6"/>
      </g>
     </g>
    </g>
    <g id="xtick_22">
     <g id="line2d_27">
      <g>
       <use xlink:href="#mbc5c6680c4" x="223.587594" y="307.584" style="stroke: #000000; stroke-width: 0.6"/>
      </g>
     </g>
    </g>
    <g id="xtick_23">
     <g id="line2d_28">
      <g>
       <use xlink:href="#mbc5c6680c4" x="228.294431" y="307.584" style="stroke: #000000; stroke-width: 0.6"/>
      </g>
     </g>
    </g>
    <g id="xtick_24">
     <g id="line2d_29">
      <g>
       <use xlink:href="#mbc5c6680c4" x="232.446156" y="307.584" style="stroke: #000000; stroke-width: 0.6"/>
      </g>
     </g>
    </g>
    <g id="xtick_25">
     <g id="line2d_30">
      <g>
       <use xlink:href="#mbc5c6680c4" x="260.592689" y="307.584" style="stroke: #000000; stroke-width: 0.6"/>
      </g>
     </g>
    </g>
    <g id="xtick_26">
     <g id="line2d_31">
      <g>
       <use xlink:href="#mbc5c6680c4" x="274.884896" y="307.584" style="stroke: #000000; stroke-width: 0.6"/>
      </g>
     </g>
    </g>
    <g id="xtick_27">
     <g id="line2d_32">
      <g>
       <use xlink:href="#mbc5c6680c4" x="285.025378" y="307.584" style="stroke: #000000; stroke-width: 0.6"/>
      </g>
     </g>
    </g>
    <g id="xtick_28">
     <g id="line2d_33">
      <g>
       <use xlink:href="#mbc5c6680c4" x="292.890947" y="307.584" style="stroke: #000000; stroke-width: 0.6"/>
      </g>
     </g>
    </g>
    <g id="xtick_29">
     <g id="line2d_34">
      <g>
       <use xlink:href="#mbc5c6680c4" x="299.317585" y="307.584" style="stroke: #000000; stroke-width: 0.6"/>
      </g>
     </g>
    </g>
    <g id="xtick_30">
     <g id="line2d_35">
      <g>
       <use xlink:href="#mbc5c6680c4" x="304.75123" y="307.584" style="stroke: #000000; stroke-width: 0.6"/>
      </g>
     </g>
    </g>
    <g id="xtick_31">
     <g id="line2d_36">
      <g>
       <use xlink:href="#mbc5c6680c4" x="309.458067" y="307.584" style="stroke: #000000; stroke-width: 0.6"/>
      </g>
     </g>
    </g>
    <g id="xtick_32">
     <g id="line2d_37">
      <g>
       <use xlink:href="#mbc5c6680c4" x="313.609792" y="307.584" style="stroke: #000000; stroke-width: 0.6"/>
      </g>
     </g>
    </g>
    <g id="xtick_33">
     <g id="line2d_38">
      <g>
       <use xlink:href="#mbc5c6680c4" x="341.756325" y="307.584" style="stroke: #000000; stroke-width: 0.6"/>
      </g>
     </g>
    </g>
    <g id="xtick_34">
     <g id="line2d_39">
      <g>
       <use xlink:href="#mbc5c6680c4" x="356.048532" y="307.584" style="stroke: #000000; stroke-width: 0.6"/>
      </g>
     </g>
    </g>
    <g id="xtick_35">
     <g id="line2d_40">
      <g>
       <use xlink:href="#mbc5c6680c4" x="366.189015" y="307.584" style="stroke: #000000; stroke-width: 0.6"/>
      </g>
     </g>
    </g>
    <g id="xtick_36">
     <g id="line2d_41">
      <g>
       <use xlink:href="#mbc5c6680c4" x="374.054584" y="307.584" style="stroke: #000000; stroke-width: 0.6"/>
      </g>
     </g>
    </g>
    <g id="xtick_37">
     <g id="line2d_42">
      <g>
       <use xlink:href="#mbc5c6680c4" x="380.481221" y="307.584" style="stroke: #000000; stroke-width: 0.6"/>
      </g>
     </g>
    </g>
    <g id="xtick_38">
     <g id="line2d_43">
      <g>
       <use xlink:href="#mbc5c6680c4" x="385.914866" y="307.584" style="stroke: #000000; stroke-width: 0.6"/>
      </g>
     </g>
    </g>
    <g id="xtick_39">
     <g id="line2d_44">
      <g>
       <use xlink:href="#mbc5c6680c4" x="390.621704" y="307.584" style="stroke: #000000; stroke-width: 0.6"/>
      </g>
     </g>
    </g>
    <g id="xtick_40">
     <g id="line2d_45">
      <g>
       <use xlink:href="#mbc5c6680c4" x="394.773428" y="307.584" style="stroke: #000000; stroke-width: 0.6"/>
      </g>
     </g>
    </g>
    <g id="text_6">
     <!-- Frequency (Hz) -->
     <g transform="translate(198.454531 337.984) scale(0.1 -0.1)">
      <defs>
       <path id="DejaVuSans-29" d="M 628 4666 
L 3309 4666 
L 3309 4134 
L 1259 4134 
L 1259 2759 
L 3109 2759 
L 3109 2228 
L 1259 2228 
L 1259 0 
L 628 0 
L 628 4666 
z
" transform="scale(0.015625)"/>
       <path id="DejaVuSans-55" d="M 2631 2963 
Q 2534 3019 2420 3045 
Q 2306 3072 2169 3072 
Q 1681 3072 1420 2755 
Q 1159 2438 1159 1844 
L 1159 0 
L 581 0 
L 581 3500 
L 1159 3500 
L 1159 2956 
Q 1341 3275 1631 3429 
Q 1922 3584 2338 3584 
Q 2397 3584 2469 3576 
Q 2541 3569 2628 3553 
L 2631 2963 
z
" transform="scale(0.015625)"/>
       <path id="DejaVuSans-48" d="M 3597 1894 
L 3597 1613 
L 953 1613 
Q 991 1019 1311 708 
Q 1631 397 2203 397 
Q 2534 397 2845 478 
Q 3156 559 3463 722 
L 3463 178 
Q 3153 47 2828 -22 
Q 2503 -91 2169 -91 
Q 1331 -91 842 396 
Q 353 884 353 1716 
Q 353 2575 817 3079 
Q 1281 3584 2069 3584 
Q 2775 3584 3186 3129 
Q 3597 2675 3597 1894 
z
M 3022 2063 
Q 3016 2534 2758 2815 
Q 2500 3097 2075 3097 
Q 1594 3097 1305 2825 
Q 1016 2553 972 2059 
L 3022 2063 
z
" transform="scale(0.015625)"/>
       <path id="DejaVuSans-54" d="M 947 1747 
Q 947 1113 1208 752 
Q 1469 391 1925 391 
Q 2381 391 2643 752 
Q 2906 1113 2906 1747 
Q 2906 2381 2643 2742 
Q 2381 3103 1925 3103 
Q 1469 3103 1208 2742 
Q 947 2381 947 1747 
z
M 2906 525 
Q 2725 213 2448 61 
Q 2172 -91 1784 -91 
Q 1150 -91 751 415 
Q 353 922 353 1747 
Q 353 2572 751 3078 
Q 1150 3584 1784 3584 
Q 2172 3584 2448 3432 
Q 2725 3281 2906 2969 
L 2906 3500 
L 3481 3500 
L 3481 -1331 
L 2906 -1331 
L 2906 525 
z
" transform="scale(0.015625)"/>
       <path id="DejaVuSans-58" d="M 544 1381 
L 544 3500 
L 1119 3500 
L 1119 1403 
Q 1119 906 1312 657 
Q 1506 409 1894 409 
Q 2359 409 2629 706 
Q 2900 1003 2900 1516 
L 2900 3500 
L 3475 3500 
L 3475 0 
L 2900 0 
L 2900 538 
Q 2691 219 2414 64 
Q 2138 -91 1772 -91 
Q 1169 -91 856 284 
Q 544 659 544 1381 
z
M 1991 3584 
L 1991 3584 
z
" transform="scale(0.015625)"/>
       <path id="DejaVuSans-51" d="M 3513 2113 
L 3513 0 
L 2938 0 
L 2938 2094 
Q 2938 2591 2744 2837 
Q 2550 3084 2163 3084 
Q 1697 3084 1428 2787 
Q 1159 2491 1159 1978 
L 1159 0 
L 581 0 
L 581 3500 
L 1159 3500 
L 1159 2956 
Q 1366 3272 1645 3428 
Q 1925 3584 2291 3584 
Q 2894 3584 3203 3211 
Q 3513 2838 3513 2113 
z
" transform="scale(0.015625)"/>
       <path id="DejaVuSans-46" d="M 3122 3366 
L 3122 2828 
Q 2878 2963 2633 3030 
Q 2388 3097 2138 3097 
Q 1578 3097 1268 2742 
Q 959 2388 959 1747 
Q 959 1106 1268 751 
Q 1578 397 2138 397 
Q 2388 397 2633 464 
Q 2878 531 3122 666 
L 3122 134 
Q 2881 22 2623 -34 
Q 2366 -91 2075 -91 
Q 1284 -91 818 406 
Q 353 903 353 1747 
Q 353 2603 823 3093 
Q 1294 3584 2113 3584 
Q 2378 3584 2631 3529 
Q 2884 3475 3122 3366 
z
" transform="scale(0.015625)"/>
       <path id="DejaVuSans-5c" d="M 2059 -325 
Q 1816 -950 1584 -1140 
Q 1353 -1331 966 -1331 
L 506 -1331 
L 506 -850 
L 844 -850 
Q 1081 -850 1212 -737 
Q 1344 -625 1503 -206 
L 1606 56 
L 191 3500 
L 800 3500 
L 1894 763 
L 2988 3500 
L 3597 3500 
L 2059 -325 
z
" transform="scale(0.015625)"/>
       <path id="DejaVuSans-3" transform="scale(0.015625)"/>
       <path id="DejaVuSans-b" d="M 1984 4856 
Q 1566 4138 1362 3434 
Q 1159 2731 1159 2009 
Q 1159 1288 1364 580 
Q 1569 -128 1984 -844 
L 1484 -844 
Q 1016 -109 783 600 
Q 550 1309 550 2009 
Q 550 2706 781 3412 
Q 1013 4119 1484 4856 
L 1984 4856 
z
" transform="scale(0.015625)"/>
       <path id="DejaVuSans-2b" d="M 628 4666 
L 1259 4666 
L 1259 2753 
L 3553 2753 
L 3553 4666 
L 4184 4666 
L 4184 0 
L 3553 0 
L 3553 2222 
L 1259 2222 
L 1259 0 
L 628 0 
L 628 4666 
z
" transform="scale(0.015625)"/>
       <path id="DejaVuSans-5d" d="M 353 3500 
L 3084 3500 
L 3084 2975 
L 922 459 
L 3084 459 
L 3084 0 
L 275 0 
L 275 525 
L 2438 3041 
L 353 3041 
L 353 3500 
z
" transform="scale(0.015625)"/>
       <path id="DejaVuSans-c" d="M 513 4856 
L 1013 4856 
Q 1481 4119 1714 3412 
Q 1947 2706 1947 2009 
Q 1947 1309 1714 600 
Q 1481 -109 1013 -844 
L 513 -844 
Q 928 -128 1133 580 
Q 1338 1288 1338 2009 
Q 1338 2731 1133 3434 
Q 928 4138 513 4856 
z
" transform="scale(0.015625)"/>
      </defs>
      <use xlink:href="#DejaVuSans-29"/>
      <use xlink:href="#DejaVuSans-55" transform="translate(50.234375 0)"/>
      <use xlink:href="#DejaVuSans-48" transform="translate(89.140625 0)"/>
      <use xlink:href="#DejaVuSans-54" transform="translate(150.671875 0)"/>
      <use xlink:href="#DejaVuSans-58" transform="translate(214.15625 0)"/>
      <use xlink:href="#DejaVuSans-48" transform="translate(277.53125 0)"/>
      <use xlink:href="#DejaVuSans-51" transform="translate(339.0625 0)"/>
      <use xlink:href="#DejaVuSans-46" transform="translate(402.4375 0)"/>
      <use xlink:href="#DejaVuSans-5c" transform="translate(457.421875 0)"/>
      <use xlink:href="#DejaVuSans-3" transform="translate(516.609375 0)"/>
      <use xlink:href="#DejaVuSans-b" transform="translate(548.390625 0)"/>
      <use xlink:href="#DejaVuSans-2b" transform="translate(587.40625 0)"/>
      <use xlink:href="#DejaVuSans-5d" transform="translate(662.609375 0)"/>
      <use xlink:href="#DejaVuSans-c" transform="translate(715.09375 0)"/>
     </g>
    </g>
   </g>
   <g id="matplotlib.axis_2">
    <g id="ytick_1">
     <g id="line2d_46">
      <path d="M 57.6 295.488 
L 414.72 295.488 
" clip-path="url(#p2caf52fc53)" style="fill: none; stroke: #b0b0b0; stroke-width: 0.8; stroke-linecap: square"/>
     </g>
     <g id="line2d_47">
      <defs>
       <path id="m31f1c71fe5" d="M 0 0 
L -3.5 0 
" style="stroke: #000000; stroke-width: 0.8"/>
      </defs>
      <g>
       <use xlink:href="#m31f1c71fe5" x="57.6" y="295.488" style="stroke: #000000; stroke-width: 0.8"/>
      </g>
     </g>
     <g id="text_7">
      <!-- 0.0 -->
      <g transform="translate(34.696875 299.286828) scale(0.1 -0.1)">
       <defs>
        <path id="DejaVuSans-11" d="M 684 794 
L 1344 794 
L 1344 0 
L 684 0 
L 684 794 
z
" transform="scale(0.015625)"/>
       </defs>
       <use xlink:href="#DejaVuSans-13"/>
       <use xlink:href="#DejaVuSans-11" transform="translate(63.625 0)"/>
       <use xlink:href="#DejaVuSans-13" transform="translate(95.40625 0)"/>
      </g>
     </g>
    </g>
    <g id="ytick_2">
     <g id="line2d_48">
      <path d="M 57.6 247.104 
L 414.72 247.104 
" clip-path="url(#p2caf52fc53)" style="fill: none; stroke: #b0b0b0; stroke-width: 0.8; stroke-linecap: square"/>
     </g>
     <g id="line2d_49">
      <g>
       <use xlink:href="#m31f1c71fe5" x="57.6" y="247.104" style="stroke: #000000; stroke-width: 0.8"/>
      </g>
     </g>
     <g id="text_8">
      <!-- 0.2 -->
      <g transform="translate(34.696875 250.902828) scale(0.1 -0.1)">
       <use xlink:href="#DejaVuSans-13"/>
       <use xlink:href="#DejaVuSans-11" transform="translate(63.625 0)"/>
       <use xlink:href="#DejaVuSans-15" transform="translate(95.40625 0)"/>
      </g>
     </g>
    </g>
    <g id="ytick_3">
     <g id="line2d_50">
      <path d="M 57.6 198.72 
L 414.72 198.72 
" clip-path="url(#p2caf52fc53)" style="fill: none; stroke: #b0b0b0; stroke-width: 0.8; stroke-linecap: square"/>
     </g>
     <g id="line2d_51">
      <g>
       <use xlink:href="#m31f1c71fe5" x="57.6" y="198.72" style="stroke: #000000; stroke-width: 0.8"/>
      </g>
     </g>
     <g id="text_9">
      <!-- 0.4 -->
      <g transform="translate(34.696875 202.518828) scale(0.1 -0.1)">
       <use xlink:href="#DejaVuSans-13"/>
       <use xlink:href="#DejaVuSans-11" transform="translate(63.625 0)"/>
       <use xlink:href="#DejaVuSans-17" transform="translate(95.40625 0)"/>
      </g>
     </g>
    </g>
    <g id="ytick_4">
     <g id="line2d_52">
      <path d="M 57.6 150.336 
L 414.72 150.336 
" clip-path="url(#p2caf52fc53)" style="fill: none; stroke: #b0b0b0; stroke-width: 0.8; stroke-linecap: square"/>
     </g>
     <g id="line2d_53">
      <g>
       <use xlink:href="#m31f1c71fe5" x="57.6" y="150.336" style="stroke: #000000; stroke-width: 0.8"/>
      </g>
     </g>
     <g id="text_10">
      <!-- 0.6 -->
      <g transform="translate(34.696875 154.134828) scale(0.1 -0.1)">
       <defs>
        <path id="DejaVuSans-19" d="M 2113 2584 
Q 1688 2584 1439 2293 
Q 1191 2003 1191 1497 
Q 1191 994 1439 701 
Q 1688 409 2113 409 
Q 2538 409 2786 701 
Q 3034 994 3034 1497 
Q 3034 2003 2786 2293 
Q 2538 2584 2113 2584 
z
M 3366 4563 
L 3366 3988 
Q 3128 4100 2886 4159 
Q 2644 4219 2406 4219 
Q 1781 4219 1451 3797 
Q 1122 3375 1075 2522 
Q 1259 2794 1537 2939 
Q 1816 3084 2150 3084 
Q 2853 3084 3261 2657 
Q 3669 2231 3669 1497 
Q 3669 778 3244 343 
Q 2819 -91 2113 -91 
Q 1303 -91 875 529 
Q 447 1150 447 2328 
Q 447 3434 972 4092 
Q 1497 4750 2381 4750 
Q 2619 4750 2861 4703 
Q 3103 4656 3366 4563 
z
" transform="scale(0.015625)"/>
       </defs>
       <use xlink:href="#DejaVuSans-13"/>
       <use xlink:href="#DejaVuSans-11" transform="translate(63.625 0)"/>
       <use xlink:href="#DejaVuSans-19" transform="translate(95.40625 0)"/>
      </g>
     </g>
    </g>
    <g id="ytick_5">
     <g id="line2d_54">
      <path d="M 57.6 101.952 
L 414.72 101.952 
" clip-path="url(#p2caf52fc53)" style="fill: none; stroke: #b0b0b0; stroke-width: 0.8; stroke-linecap: square"/>
     </g>
     <g id="line2d_55">
      <g>
       <use xlink:href="#m31f1c71fe5" x="57.6" y="101.952" style="stroke: #000000; stroke-width: 0.8"/>
      </g>
     </g>
     <g id="text_11">
      <!-- 0.8 -->
      <g transform="translate(34.696875 105.750828) scale(0.1 -0.1)">
       <defs>
        <path id="DejaVuSans-1b" d="M 2034 2216 
Q 1584 2216 1326 1975 
Q 1069 1734 1069 1313 
Q 1069 891 1326 650 
Q 1584 409 2034 409 
Q 2484 409 2743 651 
Q 3003 894 3003 1313 
Q 3003 1734 2745 1975 
Q 2488 2216 2034 2216 
z
M 1403 2484 
Q 997 2584 770 2862 
Q 544 3141 544 3541 
Q 544 4100 942 4425 
Q 1341 4750 2034 4750 
Q 2731 4750 3128 4425 
Q 3525 4100 3525 3541 
Q 3525 3141 3298 2862 
Q 3072 2584 2669 2484 
Q 3125 2378 3379 2068 
Q 3634 1759 3634 1313 
Q 3634 634 3220 271 
Q 2806 -91 2034 -91 
Q 1263 -91 848 271 
Q 434 634 434 1313 
Q 434 1759 690 2068 
Q 947 2378 1403 2484 
z
M 1172 3481 
Q 1172 3119 1398 2916 
Q 1625 2713 2034 2713 
Q 2441 2713 2670 2916 
Q 2900 3119 2900 3481 
Q 2900 3844 2670 4047 
Q 2441 4250 2034 4250 
Q 1625 4250 1398 4047 
Q 1172 3844 1172 3481 
z
" transform="scale(0.015625)"/>
       </defs>
       <use xlink:href="#DejaVuSans-13"/>
       <use xlink:href="#DejaVuSans-11" transform="translate(63.625 0)"/>
       <use xlink:href="#DejaVuSans-1b" transform="translate(95.40625 0)"/>
      </g>
     </g>
    </g>
    <g id="ytick_6">
     <g id="line2d_56">
      <path d="M 57.6 53.568 
L 414.72 53.568 
" clip-path="url(#p2caf52fc53)" style="fill: none; stroke: #b0b0b0; stroke-width: 0.8; stroke-linecap: square"/>
     </g>
     <g id="line2d_57">
      <g>
       <use xlink:href="#m31f1c71fe5" x="57.6" y="53.568" style="stroke: #000000; stroke-width: 0.8"/>
      </g>
     </g>
     <g id="text_12">
      <!-- 1.0 -->
      <g transform="translate(34.696875 57.366828) scale(0.1 -0.1)">
       <use xlink:href="#DejaVuSans-14"/>
       <use xlink:href="#DejaVuSans-11" transform="translate(63.625 0)"/>
       <use xlink:href="#DejaVuSans-13" transform="translate(95.40625 0)"/>
      </g>
     </g>
    </g>
    <g id="text_13">
     <!-- Gain -->
     <g transform="translate(28.294531 186.024094) rotate(-90) scale(0.1 -0.1)">
      <defs>
       <path id="DejaVuSans-2a" d="M 3809 666 
L 3809 1919 
L 2778 1919 
L 2778 2438 
L 4434 2438 
L 4434 434 
Q 4069 175 3628 42 
Q 3188 -91 2688 -91 
Q 1594 -91 976 548 
Q 359 1188 359 2328 
Q 359 3472 976 4111 
Q 1594 4750 2688 4750 
Q 3144 4750 3555 4637 
Q 3966 4525 4313 4306 
L 4313 3634 
Q 3963 3931 3569 4081 
Q 3175 4231 2741 4231 
Q 1884 4231 1454 3753 
Q 1025 3275 1025 2328 
Q 1025 1384 1454 906 
Q 1884 428 2741 428 
Q 3075 428 3337 486 
Q 3600 544 3809 666 
z
" transform="scale(0.015625)"/>
       <path id="DejaVuSans-44" d="M 2194 1759 
Q 1497 1759 1228 1600 
Q 959 1441 959 1056 
Q 959 750 1161 570 
Q 1363 391 1709 391 
Q 2188 391 2477 730 
Q 2766 1069 2766 1631 
L 2766 1759 
L 2194 1759 
z
M 3341 1997 
L 3341 0 
L 2766 0 
L 2766 531 
Q 2569 213 2275 61 
Q 1981 -91 1556 -91 
Q 1019 -91 701 211 
Q 384 513 384 1019 
Q 384 1609 779 1909 
Q 1175 2209 1959 2209 
L 2766 2209 
L 2766 2266 
Q 2766 2663 2505 2880 
Q 2244 3097 1772 3097 
Q 1472 3097 1187 3025 
Q 903 2953 641 2809 
L 641 3341 
Q 956 3463 1253 3523 
Q 1550 3584 1831 3584 
Q 2591 3584 2966 3190 
Q 3341 2797 3341 1997 
z
" transform="scale(0.015625)"/>
       <path id="DejaVuSans-4c" d="M 603 3500 
L 1178 3500 
L 1178 0 
L 603 0 
L 603 3500 
z
M 603 4863 
L 1178 4863 
L 1178 4134 
L 603 4134 
L 603 4863 
z
" transform="scale(0.015625)"/>
      </defs>
      <use xlink:href="#DejaVuSans-2a"/>
      <use xlink:href="#DejaVuSans-44" transform="translate(77.484375 0)"/>
      <use xlink:href="#DejaVuSans-4c" transform="translate(138.765625 0)"/>
      <use xlink:href="#DejaVuSans-51" transform="translate(166.546875 0)"/>
     </g>
    </g>
   </g>
   <g id="line2d_58">
    <path d="M 73.832727 295.342647 
L 109.724185 295.085623 
L 132.564203 294.718802 
L 150.509931 294.20821 
L 163.56137 293.634751 
L 174.98138 292.925749 
L 184.769959 292.105791 
L 192.927108 291.22545 
L 201.084258 290.116211 
L 207.609977 289.024664 
L 214.135697 287.711828 
L 220.661416 286.133225 
L 225.555706 284.743263 
L 230.449995 283.148037 
L 235.344285 281.317881 
L 240.238575 279.219179 
L 245.132864 276.814002 
L 250.027154 274.059822 
L 253.290014 272.006651 
L 256.552873 269.762257 
L 259.815733 267.310556 
L 263.078593 264.634656 
L 266.341453 261.716992 
L 269.604312 258.539544 
L 272.867172 255.08413 
L 276.130032 251.33283 
L 279.392892 247.268527 
L 282.655751 242.875622 
L 285.918611 238.140919 
L 289.181471 233.05471 
L 292.444331 227.612041 
L 295.70719 221.814148 
L 298.97005 215.669997 
L 303.86434 205.847311 
L 308.75863 195.396705 
L 315.284349 180.784329 
L 326.704358 154.997239 
L 331.598648 144.602827 
L 334.861508 138.092096 
L 338.124367 131.989019 
L 341.387227 126.338633 
L 344.650087 121.16932 
L 347.912947 116.493072 
L 351.175806 112.306973 
L 354.438666 108.595545 
L 357.701526 105.333546 
L 360.964386 102.48888 
L 364.227245 100.025288 
L 367.490105 97.904675 
L 370.752965 96.08895 
L 374.015825 94.541399 
L 377.278684 93.22761 
L 380.541544 92.116033 
L 383.804404 91.178243 
L 388.698693 90.043036 
L 393.592983 89.170379 
L 398.487273 88.501866 
L 398.487273 88.501866 
" clip-path="url(#p2caf52fc53)" style="fill: none; stroke: #1f77b4; stroke-width: 1.5; stroke-linecap: square"/>
   </g>
   <g id="line2d_59">
    <path d="M 73.832727 295.270396 
L 104.829895 294.963706 
L 126.038483 294.531073 
L 142.352782 293.967881 
L 155.404221 293.286746 
L 165.1928 292.582259 
L 174.98138 291.652416 
L 183.138529 290.654132 
L 189.664249 289.671666 
L 196.189968 288.489858 
L 202.715688 287.068518 
L 207.609977 285.816715 
L 212.504267 284.379635 
L 217.398556 282.730287 
L 222.292846 280.837969 
L 227.187136 278.667877 
L 232.081425 276.180726 
L 235.344285 274.324918 
L 238.607145 272.294418 
L 241.870005 270.073947 
L 245.132864 267.647252 
L 248.395724 264.997174 
L 251.658584 262.105749 
L 254.921444 258.954381 
L 258.184303 255.524098 
L 261.447163 251.795903 
L 264.710023 247.75126 
L 267.972883 243.372724 
L 271.235742 238.644754 
L 274.498602 233.55471 
L 277.761462 228.094063 
L 281.024322 222.259788 
L 284.287181 216.055917 
L 287.550041 209.495166 
L 292.444331 199.038299 
L 297.33862 187.960377 
L 303.86434 172.562603 
L 313.652919 149.410823 
L 318.547209 138.463821 
L 321.810069 131.591698 
L 325.072928 125.138594 
L 328.335788 119.15402 
L 331.598648 113.670128 
L 334.861508 108.701785 
L 338.124367 104.247969 
L 341.387227 100.294124 
L 344.650087 96.815053 
L 347.912947 93.777962 
L 351.175806 91.145333 
L 354.438666 88.877413 
L 357.701526 86.93422 
L 360.964386 85.27704 
L 364.227245 83.869463 
L 367.490105 82.678014 
L 370.752965 81.672466 
L 375.647254 80.45478 
L 380.541544 79.518375 
L 385.435834 78.800825 
L 391.961553 78.100282 
L 398.487273 77.612537 
L 398.487273 77.612537 
" clip-path="url(#p2caf52fc53)" style="fill: none; stroke: #ff7f0e; stroke-width: 1.5; stroke-linecap: square"/>
   </g>
   <g id="line2d_60">
    <path d="M 73.832727 295.2422 
L 103.198465 294.922557 
L 122.775624 294.502646 
L 137.458492 293.993517 
L 150.509931 293.323866 
L 161.929941 292.49595 
L 171.71852 291.538498 
L 179.875669 290.510581 
L 186.401389 289.498963 
L 192.927108 288.282107 
L 199.452828 286.818646 
L 204.347117 285.52978 
L 209.241407 284.050197 
L 214.135697 282.352135 
L 219.029986 280.404031 
L 223.924276 278.170121 
L 228.818566 275.610064 
L 232.081425 273.700041 
L 235.344285 271.610425 
L 238.607145 269.32557 
L 241.870005 266.828857 
L 245.132864 264.102767 
L 248.395724 261.128995 
L 251.658584 257.888643 
L 254.921444 254.362492 
L 258.184303 250.531386 
L 261.447163 246.376746 
L 264.710023 241.881248 
L 267.972883 237.029671 
L 271.235742 231.809959 
L 274.498602 226.214471 
L 277.761462 220.241435 
L 281.024322 213.896535 
L 284.287181 207.194558 
L 289.181471 196.531012 
L 294.075761 185.261375 
L 302.23291 165.705992 
L 310.390059 146.306096 
L 315.284349 135.329879 
L 318.547209 128.461301 
L 321.810069 122.027613 
L 325.072928 116.07546 
L 328.335788 110.633832 
L 331.598648 105.714431 
L 334.861508 101.313301 
L 338.124367 97.413351 
L 341.387227 93.987344 
L 344.650087 91.000959 
L 347.912947 88.415631 
L 351.175806 86.190981 
L 354.438666 84.286735 
L 357.701526 82.664148 
L 360.964386 81.286955 
L 364.227245 80.121947 
L 367.490105 79.139235 
L 372.384395 77.949839 
L 377.278684 77.035667 
L 382.172974 76.335436 
L 388.698693 75.652038 
L 396.855843 75.082156 
L 398.487273 74.996167 
L 398.487273 74.996167 
" clip-path="url(#p2caf52fc53)" style="fill: none; stroke: #2ca02c; stroke-width: 1.5; stroke-linecap: square"/>
   </g>
   <g id="line2d_61">
    <path d="M 73.832727 295.22718 
L 101.567035 294.915141 
L 121.144194 294.489724 
L 135.827063 293.973917 
L 148.878502 293.295485 
L 158.667081 292.593791 
L 168.45566 291.667628 
L 176.61281 290.673286 
L 183.138529 289.694688 
L 189.664249 288.517516 
L 196.189968 287.101718 
L 201.084258 285.854764 
L 205.978547 284.423203 
L 210.872837 282.780121 
L 215.767127 280.894888 
L 220.661416 278.732764 
L 225.555706 276.254507 
L 228.818566 274.405149 
L 232.081425 272.381504 
L 235.344285 270.168261 
L 238.607145 267.749119 
L 241.870005 265.106833 
L 245.132864 262.223315 
L 248.395724 259.079792 
L 251.658584 255.657044 
L 254.921444 251.935739 
L 258.184303 247.896897 
L 261.447163 243.522495 
L 264.710023 238.796249 
L 267.972883 233.704593 
L 271.235742 228.237852 
L 274.498602 222.391629 
L 277.761462 216.168346 
L 281.024322 209.578894 
L 285.918611 199.057179 
L 290.812901 187.882095 
L 297.33862 172.294155 
L 307.1272 148.71632 
L 312.021489 137.500954 
L 315.284349 130.436105 
L 318.547209 123.78401 
L 321.810069 117.598616 
L 325.072928 111.916404 
L 328.335788 106.756163 
L 331.598648 102.120135 
L 334.861508 97.996241 
L 338.124367 94.360936 
L 341.387227 91.182299 
L 344.650087 88.423013 
L 347.912947 86.042988 
L 351.175806 84.001506 
L 354.438666 82.258857 
L 357.701526 80.777482 
L 360.964386 79.522696 
L 364.227245 78.46307 
L 369.121535 77.179124 
L 374.015825 76.191189 
L 378.910114 75.43381 
L 385.435834 74.694096 
L 391.961553 74.178909 
L 398.487273 73.821034 
L 398.487273 73.821034 
" clip-path="url(#p2caf52fc53)" style="fill: none; stroke: #d62728; stroke-width: 1.5; stroke-linecap: square"/>
   </g>
   <g id="line2d_62">
    <path d="M 73.832727 295.21785 
L 101.567035 294.894648 
L 121.144194 294.454012 
L 135.827063 293.919754 
L 148.878502 293.217056 
L 158.667081 292.490269 
L 168.45566 291.530996 
L 176.61281 290.501121 
L 183.138529 289.487572 
L 189.664249 288.268388 
L 196.189968 286.802117 
L 201.084258 285.510766 
L 205.978547 284.028315 
L 210.872837 282.32694 
L 215.767127 280.375002 
L 220.661416 278.136646 
L 225.555706 275.571417 
L 228.818566 273.657477 
L 232.081425 271.563511 
L 235.344285 269.273814 
L 238.607145 266.771701 
L 241.870005 264.03957 
L 245.132864 261.05902 
L 248.395724 257.811038 
L 251.658584 254.276266 
L 254.921444 250.435383 
L 258.184303 246.269613 
L 261.447163 241.761394 
L 264.710023 236.895229 
L 267.972883 231.658733 
L 271.235742 226.043889 
L 274.498602 220.048493 
L 277.761462 213.677757 
L 281.024322 206.94596 
L 285.918611 196.229085 
L 290.812901 184.894393 
L 298.97005 165.201918 
L 307.1272 145.63109 
L 312.021489 134.540728 
L 315.284349 127.593754 
L 318.547209 121.081513 
L 321.810069 115.052099 
L 325.072928 109.535842 
L 328.335788 104.545586 
L 331.598648 100.078264 
L 334.861508 96.117395 
L 338.124367 92.636078 
L 341.387227 89.600088 
L 344.650087 86.970754 
L 347.912947 84.707434 
L 351.175806 82.769493 
L 354.438666 81.117757 
L 357.701526 79.715505 
L 360.964386 78.52907 
L 364.227245 77.528118 
L 369.121535 76.316443 
L 374.015825 75.384997 
L 378.910114 74.671443 
L 385.435834 73.974969 
L 393.592983 73.394125 
L 398.487273 73.153499 
L 398.487273 73.153499 
" clip-path="url(#p2caf52fc53)" style="fill: none; stroke: #9467bd; stroke-width: 1.5; stroke-linecap: square"/>
   </g>
   <g id="line2d_63">
    <path d="M 73.832727 295.211491 
L 101.567035 294.880681 
L 121.144194 294.429673 
L 135.827063 293.882841 
L 148.878502 293.163606 
L 158.667081 292.419717 
L 168.45566 291.437879 
L 176.61281 290.38379 
L 183.138529 289.346424 
L 189.664249 288.098614 
L 196.189968 286.597954 
L 201.084258 285.276358 
L 205.978547 283.759242 
L 210.872837 282.018168 
L 215.767127 280.020812 
L 220.661416 277.730566 
L 225.555706 275.106161 
L 228.818566 273.148298 
L 232.081425 271.006525 
L 235.344285 268.664879 
L 238.607145 266.106423 
L 241.870005 263.313326 
L 245.132864 260.266992 
L 248.395724 256.948266 
L 251.658584 253.337726 
L 254.921444 249.416091 
L 258.184303 245.164769 
L 261.447163 240.566564 
L 264.710023 235.606572 
L 267.972883 230.273281 
L 271.235742 224.559875 
L 274.498602 218.465726 
L 277.761462 211.998011 
L 281.024322 205.173378 
L 285.918611 194.331061 
L 290.812901 182.896624 
L 298.97005 163.122009 
L 305.49577 147.414906 
L 310.390059 136.18333 
L 313.652919 129.117546 
L 316.915779 122.47146 
L 320.178639 116.297877 
L 323.441498 110.631984 
L 326.704358 105.491236 
L 329.967218 100.876617 
L 333.230078 96.774936 
L 336.492937 93.161738 
L 339.755797 90.004404 
L 343.018657 87.265124 
L 346.281517 84.9035 
L 349.544376 82.878656 
L 352.807236 81.15084 
L 356.070096 79.682534 
L 359.332956 78.439149 
L 362.595815 77.38939 
L 367.490105 76.117695 
L 372.384395 75.139407 
L 377.278684 74.389554 
L 383.804404 73.6573 
L 390.330123 73.147374 
L 398.487273 72.723104 
L 398.487273 72.723104 
" clip-path="url(#p2caf52fc53)" style="fill: none; stroke: #8c564b; stroke-width: 1.5; stroke-linecap: square"/>
   </g>
   <g id="line2d_64">
    <path d="M 73.832727 295.206879 
L 101.567035 294.870551 
L 121.144194 294.412021 
L 135.827063 293.856069 
L 147.247072 293.23171 
L 157.035651 292.50961 
L 166.82423 291.556521 
L 174.98138 290.533281 
L 181.507099 289.526256 
L 188.032819 288.31491 
L 194.558538 286.858049 
L 199.452828 285.574968 
L 204.347117 284.101988 
L 209.241407 282.411447 
L 214.135697 280.471886 
L 219.029986 278.247642 
L 223.924276 275.698464 
L 227.187136 273.796405 
L 230.449995 271.715333 
L 233.712855 269.4396 
L 236.975715 266.952568 
L 240.238575 264.236672 
L 243.501434 261.273529 
L 246.764294 258.044122 
L 250.027154 254.529053 
L 253.290014 250.708917 
L 256.552873 246.564797 
L 259.815733 242.078917 
L 263.078593 237.235474 
L 266.341453 232.021669 
L 269.604312 226.428947 
L 272.867172 220.454427 
L 276.130032 214.102494 
L 279.392892 207.38646 
L 284.287181 196.685119 
L 289.181471 185.352687 
L 295.70719 169.609792 
L 305.49577 145.960841 
L 310.390059 134.789034 
L 313.652919 127.779477 
L 316.915779 121.200043 
L 320.178639 115.100761 
L 323.441498 109.513898 
L 326.704358 104.454085 
L 329.967218 99.919784 
L 333.230078 95.895713 
L 336.492937 92.355821 
L 339.755797 89.266393 
L 343.018657 86.588976 
L 346.281517 84.282911 
L 349.544376 82.307358 
L 352.807236 80.622822 
L 356.070096 79.192183 
L 359.332956 77.981339 
L 362.595815 76.959513 
L 367.490105 75.722225 
L 372.384395 74.770831 
L 377.278684 74.041844 
L 383.804404 73.330176 
L 390.330123 72.834709 
L 398.487273 72.422548 
L 398.487273 72.422548 
" clip-path="url(#p2caf52fc53)" style="fill: none; stroke: #e377c2; stroke-width: 1.5; stroke-linecap: square"/>
   </g>
   <g id="line2d_65">
    <path d="M 73.832727 295.20338 
L 99.935605 294.891141 
L 119.512764 294.447902 
L 134.195633 293.910487 
L 147.247072 293.203637 
L 157.035651 292.472556 
L 166.82423 291.507615 
L 174.98138 290.471656 
L 181.507099 289.452122 
L 188.032819 288.225739 
L 194.558538 286.750814 
L 199.452828 285.451846 
L 204.347117 283.960654 
L 209.241407 282.249256 
L 214.135697 280.285829 
L 219.029986 278.034314 
L 223.924276 275.454031 
L 227.187136 273.528879 
L 230.449995 271.422667 
L 233.712855 269.119609 
L 236.975715 266.602931 
L 240.238575 263.854944 
L 243.501434 260.85716 
L 246.764294 257.590479 
L 250.027154 254.035463 
L 253.290014 250.17272 
L 256.552873 245.983417 
L 259.815733 241.449957 
L 263.078593 236.556834 
L 266.341453 231.291692 
L 269.604312 225.646587 
L 272.867172 219.619447 
L 276.130032 213.215675 
L 279.392892 206.449815 
L 284.287181 195.680678 
L 289.181471 184.293615 
L 297.33862 164.518245 
L 305.49577 144.876715 
L 310.390059 133.752117 
L 313.652919 126.786028 
L 316.915779 120.257579 
L 320.178639 114.214693 
L 323.441498 108.687447 
L 326.704358 103.688383 
L 329.967218 99.214112 
L 333.230078 95.24784 
L 336.492937 91.762374 
L 339.755797 88.723232 
L 343.018657 86.091523 
L 346.281517 83.826428 
L 349.544376 81.887165 
L 352.807236 80.234449 
L 356.070096 78.831472 
L 359.332956 77.6445 
L 362.595815 76.64315 
L 367.490105 75.431061 
L 372.384395 74.499347 
L 377.278684 73.785619 
L 383.804404 73.089 
L 391.961553 72.508053 
L 398.487273 72.200779 
L 398.487273 72.200779 
" clip-path="url(#p2caf52fc53)" style="fill: none; stroke: #7f7f7f; stroke-width: 1.5; stroke-linecap: square"/>
   </g>
   <g id="line2d_66">
    <path d="M 73.832727 295.200636 
L 99.935605 294.885387 
L 119.512764 294.437874 
L 134.195633 293.895278 
L 147.247072 293.181614 
L 157.035651 292.443487 
L 166.82423 291.469249 
L 174.98138 290.423314 
L 181.507099 289.393966 
L 188.032819 288.155789 
L 194.558538 286.666695 
L 199.452828 285.355264 
L 204.347117 283.849789 
L 209.241407 282.122032 
L 214.135697 280.13989 
L 219.029986 277.866993 
L 223.924276 275.262323 
L 227.187136 273.319069 
L 230.449995 271.193155 
L 233.712855 268.868684 
L 236.975715 266.328782 
L 240.238575 263.555663 
L 243.501434 260.530757 
L 246.764294 257.234906 
L 250.027154 253.648644 
L 253.290014 249.752593 
L 256.552873 245.527994 
L 259.815733 240.957399 
L 263.078593 236.025544 
L 266.341453 230.720429 
L 269.604312 225.034603 
L 272.867172 218.96664 
L 276.130032 212.522752 
L 279.392892 205.718458 
L 284.287181 194.897317 
L 289.181471 183.468805 
L 297.33862 163.659039 
L 303.86434 147.877267 
L 308.75863 136.563774 
L 312.021489 129.433278 
L 315.284349 122.716517 
L 318.547209 116.468405 
L 321.810069 110.726303 
L 325.072928 105.50972 
L 328.335788 100.821447 
L 331.598648 96.64975 
L 334.861508 92.971244 
L 338.124367 89.754006 
L 341.387227 86.960573 
L 344.650087 84.550611 
L 347.912947 82.48309 
L 351.175806 80.717949 
L 354.438666 79.217259 
L 357.701526 77.945972 
L 360.964386 76.87231 
L 365.858675 75.571233 
L 370.752965 74.570022 
L 375.647254 73.80241 
L 382.172974 73.052655 
L 388.698693 72.530448 
L 396.855843 72.095902 
L 398.487273 72.030407 
L 398.487273 72.030407 
" clip-path="url(#p2caf52fc53)" style="fill: none; stroke: #bcbd22; stroke-width: 1.5; stroke-linecap: square"/>
   </g>
   <g id="line2d_67">
    <path d="M 73.832727 295.198426 
L 99.935605 294.880752 
L 119.512764 294.429797 
L 134.195633 293.883028 
L 147.247072 293.163876 
L 157.035651 292.420074 
L 166.82423 291.438348 
L 174.98138 290.384377 
L 181.507099 289.347126 
L 188.032819 288.099449 
L 194.558538 286.598943 
L 199.452828 285.277476 
L 204.347117 283.760498 
L 209.241407 282.019569 
L 214.135697 280.022357 
L 219.029986 277.732244 
L 223.924276 275.107942 
L 227.187136 273.150117 
L 230.449995 271.008345 
L 233.712855 268.666644 
L 236.975715 266.108057 
L 240.238575 263.314722 
L 243.501434 260.268006 
L 246.764294 256.948705 
L 250.027154 253.337334 
L 253.290014 249.414531 
L 256.552873 245.1616 
L 259.815733 240.561217 
L 263.078593 235.598319 
L 266.341453 230.261201 
L 269.604312 224.542816 
L 272.867172 218.442264 
L 276.130032 211.966416 
L 279.392892 205.131582 
L 284.287181 194.269306 
L 289.181471 182.808301 
L 297.33862 162.972501 
L 303.86434 147.201148 
L 308.75863 135.91411 
L 312.021489 128.809047 
L 315.284349 122.122756 
L 318.547209 115.908881 
L 321.810069 110.203422 
L 325.072928 105.024563 
L 328.335788 100.37389 
L 331.598648 96.238662 
L 334.861508 92.594715 
L 338.124367 89.409578 
L 341.387227 86.645461 
L 344.650087 84.26188 
L 347.912947 82.217806 
L 351.175806 80.473283 
L 354.438666 78.99056 
L 357.701526 77.734811 
L 360.964386 76.674499 
L 365.858675 75.389881 
L 370.752965 74.401547 
L 375.647254 73.643932 
L 382.172974 72.904046 
L 388.698693 72.388775 
L 396.855843 71.960038 
L 398.487273 71.895422 
L 398.487273 71.895422 
" clip-path="url(#p2caf52fc53)" style="fill: none; stroke: #17becf; stroke-width: 1.5; stroke-linecap: square"/>
   </g>
   <g id="line2d_68">
    <path d="M 73.832727 295.196608 
L 99.935605 294.876938 
L 119.512764 294.423152 
L 134.195633 293.87295 
L 145.615642 293.255049 
L 155.404221 292.540416 
L 165.1928 291.597178 
L 173.34995 290.584508 
L 179.875669 289.587878 
L 186.401389 288.389023 
L 192.927108 286.947164 
L 197.821398 285.677273 
L 202.715688 284.219404 
L 207.609977 282.546159 
L 212.504267 280.62637 
L 217.398556 278.424693 
L 222.292846 275.901219 
L 225.555706 274.018212 
L 228.818566 271.957848 
L 232.081425 269.704578 
L 235.344285 267.241859 
L 238.607145 264.552204 
L 241.870005 261.617288 
L 245.132864 258.418119 
L 248.395724 254.935283 
L 251.658584 251.149297 
L 254.921444 247.041089 
L 258.184303 242.592628 
L 261.447163 237.787733 
L 264.710023 232.613077 
L 267.972883 227.059398 
L 271.235742 221.122913 
L 274.498602 214.806891 
L 277.761462 208.123317 
L 282.655751 197.460839 
L 287.550041 186.150441 
L 294.075761 170.401239 
L 303.86434 146.649403 
L 308.75863 135.384606 
L 312.021489 128.300684 
L 315.284349 121.639584 
L 318.547209 115.453901 
L 321.810069 109.778524 
L 325.072928 104.630556 
L 328.335788 100.010608 
L 331.598648 95.905128 
L 334.861508 92.289328 
L 338.124367 89.130303 
L 341.387227 86.390003 
L 344.650087 84.027837 
L 347.912947 82.00278 
L 351.175806 80.274967 
L 354.438666 78.806799 
L 357.701526 77.563629 
L 360.964386 76.514122 
L 365.858675 75.242819 
L 370.752965 74.264897 
L 375.647254 73.515363 
L 382.172974 72.783453 
L 388.698693 72.273785 
L 396.855843 71.849742 
L 398.487273 71.785835 
L 398.487273 71.785835 
" clip-path="url(#p2caf52fc53)" style="fill: none; stroke: #1f77b4; stroke-width: 1.5; stroke-linecap: square"/>
   </g>
   <g id="line2d_69">
    <path d="M 73.832727 295.195085 
L 99.935605 294.873746 
L 119.512764 294.417589 
L 134.195633 293.864514 
L 145.615642 293.243385 
L 155.404221 292.52502 
L 165.1928 291.576858 
L 173.34995 290.558903 
L 179.875669 289.557075 
L 186.401389 288.351973 
L 192.927108 286.902607 
L 197.821398 285.626113 
L 202.715688 284.160675 
L 207.609977 282.47876 
L 212.504267 280.549051 
L 217.398556 278.336036 
L 222.292846 275.799626 
L 225.555706 273.907013 
L 228.818566 271.836189 
L 232.081425 269.571547 
L 235.344285 267.096486 
L 238.607145 264.393465 
L 241.870005 261.444115 
L 245.132864 258.229405 
L 248.395724 254.729901 
L 251.658584 250.926122 
L 254.921444 246.799026 
L 258.184303 242.330649 
L 261.447163 237.504928 
L 264.710023 232.30871 
L 267.972883 226.732979 
L 271.235742 220.774281 
L 274.498602 214.436298 
L 277.761462 207.731521 
L 282.655751 197.039971 
L 287.550041 185.705807 
L 294.075761 169.937169 
L 303.86434 146.190617 
L 308.75863 134.944763 
L 312.021489 127.878683 
L 315.284349 121.23875 
L 318.547209 115.076681 
L 321.810069 109.426439 
L 325.072928 104.304228 
L 328.335788 99.709855 
L 331.598648 95.629101 
L 334.861508 92.036667 
L 338.124367 88.899296 
L 341.387227 86.178731 
L 344.650087 83.834293 
L 347.912947 81.824969 
L 351.175806 80.110974 
L 354.438666 78.654834 
L 357.701526 77.422057 
L 360.964386 76.381472 
L 365.858675 75.121161 
L 370.752965 74.151833 
L 375.647254 73.408967 
L 382.172974 72.683636 
L 388.698693 72.178589 
L 396.855843 71.758416 
L 398.487273 71.695095 
L 398.487273 71.695095 
" clip-path="url(#p2caf52fc53)" style="fill: none; stroke: #ff7f0e; stroke-width: 1.5; stroke-linecap: square"/>
   </g>
   <g id="line2d_70">
    <path d="M 73.832727 295.193792 
L 99.935605 294.871035 
L 119.512764 294.412864 
L 134.195633 293.857348 
L 145.615642 293.233478 
L 155.404221 292.511943 
L 165.1928 291.559598 
L 173.34995 290.537155 
L 179.875669 289.530912 
L 186.401389 288.320503 
L 192.927108 286.864761 
L 197.821398 285.58266 
L 202.715688 284.110793 
L 207.609977 282.421515 
L 212.504267 280.48338 
L 217.398556 278.260737 
L 222.292846 275.713342 
L 225.555706 273.812573 
L 228.818566 271.732867 
L 232.081425 269.458571 
L 235.344285 266.973032 
L 238.607145 264.258667 
L 241.870005 261.297066 
L 245.132864 258.069169 
L 248.395724 254.555525 
L 251.658584 250.736655 
L 254.921444 246.593544 
L 258.184303 242.108287 
L 261.447163 237.264922 
L 264.710023 232.050447 
L 267.972883 226.456059 
L 271.235742 220.47858 
L 274.498602 214.12205 
L 277.761462 207.399391 
L 282.655751 196.683379 
L 287.550041 185.329304 
L 294.075761 169.544578 
L 303.86434 145.803131 
L 308.75863 134.573594 
L 312.021489 127.522768 
L 315.284349 120.900868 
L 318.547209 114.758864 
L 321.810069 109.129935 
L 325.072928 104.029527 
L 328.335788 99.456774 
L 331.598648 95.396895 
L 334.861508 91.824168 
L 338.124367 88.705044 
L 341.387227 86.001095 
L 344.650087 83.671575 
L 347.912947 81.675483 
L 351.175806 79.973103 
L 354.438666 78.527071 
L 357.701526 77.303024 
L 360.964386 76.269932 
L 365.858675 75.01885 
L 370.752965 74.056734 
L 375.647254 73.319463 
L 382.172974 72.599652 
L 388.698693 72.098482 
L 396.855843 71.681555 
L 398.487273 71.618724 
L 398.487273 71.618724 
" clip-path="url(#p2caf52fc53)" style="fill: none; stroke: #2ca02c; stroke-width: 1.5; stroke-linecap: square"/>
   </g>
   <g id="line2d_71">
    <path d="M 73.832727 295.19268 
L 99.935605 294.868703 
L 119.512764 294.408801 
L 134.195633 293.851185 
L 145.615642 293.224958 
L 155.404221 292.500697 
L 165.1928 291.544756 
L 173.34995 290.518453 
L 179.875669 289.508413 
L 186.401389 288.29344 
L 192.927108 286.832216 
L 197.821398 285.545292 
L 202.715688 284.067898 
L 207.609977 282.372289 
L 212.504267 280.42691 
L 217.398556 278.195987 
L 222.292846 275.639149 
L 225.555706 273.731367 
L 228.818566 271.644028 
L 232.081425 269.361432 
L 235.344285 266.866888 
L 238.607145 264.142773 
L 241.870005 261.170645 
L 245.132864 257.931418 
L 248.395724 254.405627 
L 251.658584 250.573796 
L 254.921444 246.416933 
L 258.184303 241.917189 
L 261.447163 237.058684 
L 264.710023 231.828552 
L 267.972883 226.218172 
L 271.235742 220.224608 
L 274.498602 213.852207 
L 277.761462 207.114263 
L 282.655751 196.377385 
L 287.550041 185.006391 
L 294.075761 169.208139 
L 303.86434 145.471528 
L 308.75863 134.256184 
L 312.021489 127.218547 
L 315.284349 120.612192 
L 318.547209 114.487447 
L 321.810069 108.876818 
L 325.072928 103.795104 
L 328.335788 99.240864 
L 331.598648 95.198845 
L 334.861508 91.642962 
L 338.124367 88.539423 
L 341.387227 85.849657 
L 344.650087 83.532864 
L 347.912947 81.548055 
L 351.175806 79.855575 
L 354.438666 78.418155 
L 357.701526 77.201545 
L 360.964386 76.174835 
L 365.858675 74.93161 
L 370.752965 73.975633 
L 375.647254 73.243124 
L 382.172974 72.52801 
L 388.698693 72.030139 
L 396.855843 71.615974 
L 398.487273 71.553561 
L 398.487273 71.553561 
" clip-path="url(#p2caf52fc53)" style="fill: none; stroke: #d62728; stroke-width: 1.5; stroke-linecap: square"/>
   </g>
   <g id="line2d_72">
    <path d="M 73.832727 295.191714 
L 99.935605 294.866677 
L 119.512764 294.40527 
L 134.195633 293.845829 
L 145.615642 293.217554 
L 155.404221 292.490924 
L 165.1928 291.531856 
L 173.34995 290.502199 
L 179.875669 289.488859 
L 186.401389 288.26992 
L 192.927108 286.803932 
L 197.821398 285.512817 
L 202.715688 284.030619 
L 207.609977 282.329508 
L 212.504267 280.377833 
L 217.398556 278.139717 
L 222.292846 275.574672 
L 225.555706 273.660797 
L 228.818566 271.566825 
L 232.081425 269.277018 
L 235.344285 266.774651 
L 238.607145 264.042067 
L 241.870005 261.060795 
L 245.132864 257.811728 
L 248.395724 254.275391 
L 251.658584 250.432308 
L 254.921444 246.26351 
L 258.184303 241.751193 
L 261.447163 236.879557 
L 264.710023 231.635849 
L 267.972883 226.011609 
L 271.235742 220.004115 
L 274.498602 213.617979 
L 277.761462 206.866821 
L 282.655751 196.111935 
L 287.550041 184.726389 
L 294.075761 168.916609 
L 303.86434 145.184534 
L 308.75863 133.981646 
L 312.021489 126.955524 
L 315.284349 120.362707 
L 318.547209 114.252963 
L 321.810069 108.658216 
L 325.072928 103.592707 
L 328.335788 99.0545 
L 331.598648 95.027932 
L 334.861508 91.486613 
L 338.124367 88.396539 
L 341.387227 85.719021 
L 344.650087 83.413212 
L 347.912947 81.438138 
L 351.175806 79.754198 
L 354.438666 78.324204 
L 357.701526 77.114005 
L 360.964386 76.092795 
L 365.858675 74.85634 
L 370.752965 73.905652 
L 375.647254 73.177245 
L 382.172974 72.466177 
L 388.698693 71.971146 
L 396.855843 71.559359 
L 398.487273 71.497306 
L 398.487273 71.497306 
" clip-path="url(#p2caf52fc53)" style="fill: none; stroke: #9467bd; stroke-width: 1.5; stroke-linecap: square"/>
   </g>
   <g id="line2d_73">
    <path d="M 73.832727 295.190866 
L 99.935605 294.864899 
L 119.512764 294.402172 
L 134.195633 293.841131 
L 145.615642 293.211059 
L 155.404221 292.482351 
L 165.1928 291.520541 
L 173.34995 290.487941 
L 179.875669 289.471708 
L 186.401389 288.24929 
L 192.927108 286.779122 
L 197.821398 285.484331 
L 202.715688 283.99792 
L 207.609977 282.291983 
L 212.504267 280.334787 
L 217.398556 278.090361 
L 222.292846 275.518119 
L 225.555706 273.598902 
L 228.818566 271.499112 
L 232.081425 269.202983 
L 235.344285 266.693757 
L 238.607145 263.953748 
L 241.870005 260.96446 
L 245.132864 257.706768 
L 248.395724 254.161186 
L 251.658584 250.308243 
L 254.921444 246.128988 
L 258.184303 241.605659 
L 261.447163 236.722525 
L 264.710023 231.466933 
L 267.972883 225.830567 
L 271.235742 219.81089 
L 274.498602 213.412752 
L 277.761462 206.650057 
L 282.655751 195.879472 
L 287.550041 184.481278 
L 294.075761 168.661563 
L 303.86434 144.933718 
L 308.75863 133.741846 
L 312.021489 126.725864 
L 315.284349 120.14494 
L 318.547209 114.048356 
L 321.810069 108.467522 
L 325.072928 103.416196 
L 328.335788 98.892006 
L 331.598648 94.878938 
L 334.861508 91.350335 
L 338.124367 88.272011 
L 341.387227 85.605176 
L 344.650087 83.308946 
L 347.912947 81.342356 
L 351.175806 79.665857 
L 354.438666 78.242332 
L 357.701526 77.037715 
L 360.964386 76.021295 
L 365.858675 74.790735 
L 370.752965 73.844651 
L 375.647254 73.119814 
L 382.172974 72.412267 
L 388.698693 71.919708 
L 396.855843 71.50999 
L 398.487273 71.44825 
L 398.487273 71.44825 
" clip-path="url(#p2caf52fc53)" style="fill: none; stroke: #8c564b; stroke-width: 1.5; stroke-linecap: square"/>
   </g>
   <g id="line2d_74">
    <path d="M 73.832727 295.190117 
L 99.935605 294.863327 
L 119.512764 294.399433 
L 134.195633 293.836977 
L 145.615642 293.205316 
L 155.404221 292.47477 
L 165.1928 291.510536 
L 173.34995 290.475334 
L 179.875669 289.456542 
L 186.401389 288.231048 
L 192.927108 286.757184 
L 197.821398 285.459143 
L 202.715688 283.969006 
L 207.609977 282.258802 
L 212.504267 280.296724 
L 217.398556 278.04672 
L 222.292846 275.468115 
L 225.555706 273.544174 
L 228.818566 271.439242 
L 232.081425 269.137524 
L 235.344285 266.622234 
L 238.607145 263.875661 
L 241.870005 260.879289 
L 245.132864 257.613974 
L 248.395724 254.060224 
L 251.658584 250.198569 
L 254.921444 246.010078 
L 258.184303 241.477023 
L 261.447163 236.583736 
L 264.710023 231.317656 
L 267.972883 225.670591 
L 271.235742 219.640171 
L 274.498602 213.231455 
L 277.761462 206.4586 
L 282.655751 195.674208 
L 287.550041 184.26492 
L 295.70719 164.433957 
L 303.86434 144.712646 
L 308.75863 133.530584 
L 312.021489 126.523598 
L 315.284349 119.953207 
L 318.547209 113.868258 
L 321.810069 108.299715 
L 325.072928 103.260903 
L 328.335788 98.749073 
L 331.598648 94.747902 
L 334.861508 91.230497 
L 338.124367 88.162517 
L 341.387227 85.505082 
L 344.650087 83.217276 
L 347.912947 81.258147 
L 351.175806 79.588189 
L 354.438666 78.170349 
L 357.701526 76.97064 
L 360.964386 75.958427 
L 365.858675 74.733046 
L 370.752965 73.791006 
L 375.647254 73.069304 
L 382.172974 72.364849 
L 390.330123 71.777327 
L 398.487273 71.405094 
L 398.487273 71.405094 
" clip-path="url(#p2caf52fc53)" style="fill: none; stroke: #e377c2; stroke-width: 1.5; stroke-linecap: square"/>
   </g>
   <g id="line2d_75">
    <path d="M 73.832727 295.189449 
L 99.935605 294.861927 
L 119.512764 294.396994 
L 134.195633 293.833278 
L 145.615642 293.200201 
L 155.404221 292.468019 
L 165.1928 291.501625 
L 173.34995 290.464107 
L 179.875669 289.443035 
L 186.401389 288.214801 
L 192.927108 286.737647 
L 197.821398 285.436711 
L 202.715688 283.943256 
L 207.609977 282.229253 
L 212.504267 280.262827 
L 217.398556 278.007855 
L 222.292846 275.423584 
L 225.555706 273.495437 
L 228.818566 271.385926 
L 232.081425 269.079232 
L 235.344285 266.558543 
L 238.607145 263.806127 
L 241.870005 260.803448 
L 245.132864 257.531349 
L 248.395724 253.970328 
L 251.658584 250.100921 
L 254.921444 245.904211 
L 258.184303 241.362504 
L 261.447163 236.460188 
L 264.710023 231.184781 
L 267.972883 225.528206 
L 271.235742 219.488242 
L 274.498602 213.070132 
L 277.761462 206.288262 
L 282.655751 195.491634 
L 287.550041 184.072536 
L 295.70719 164.233264 
L 303.86434 144.516324 
L 308.75863 133.343054 
L 312.021489 126.344102 
L 315.284349 119.783102 
L 318.547209 113.708516 
L 321.810069 108.150907 
L 325.072928 103.12322 
L 328.335788 98.622371 
L 331.598648 94.631761 
L 334.861508 91.124294 
L 338.124367 88.065489 
L 341.387227 85.416389 
L 344.650087 83.13605 
L 347.912947 81.183533 
L 351.175806 79.51937 
L 354.438666 78.106567 
L 357.701526 76.911203 
L 360.964386 75.902717 
L 365.858675 74.681921 
L 370.752965 73.743461 
L 375.647254 73.024535 
L 382.172974 72.322816 
L 390.330123 71.737598 
L 398.487273 71.366833 
L 398.487273 71.366833 
" clip-path="url(#p2caf52fc53)" style="fill: none; stroke: #7f7f7f; stroke-width: 1.5; stroke-linecap: square"/>
   </g>
   <g id="line2d_76">
    <path d="M 73.832727 295.188851 
L 99.935605 294.860673 
L 119.512764 294.394807 
L 134.195633 293.829962 
L 145.615642 293.195617 
L 155.404221 292.461968 
L 165.1928 291.493639 
L 173.34995 290.454044 
L 179.875669 289.430929 
L 186.401389 288.20024 
L 192.927108 286.720136 
L 197.821398 285.416606 
L 202.715688 283.920178 
L 207.609977 282.202769 
L 212.504267 280.232446 
L 217.398556 277.973023 
L 222.292846 275.383674 
L 225.555706 273.451758 
L 228.818566 271.338144 
L 232.081425 269.02699 
L 235.344285 266.501464 
L 238.607145 263.743814 
L 241.870005 260.735484 
L 245.132864 257.457306 
L 248.395724 253.889774 
L 251.658584 250.013423 
L 254.921444 245.809352 
L 258.184303 241.259899 
L 261.447163 236.349499 
L 264.710023 231.065746 
L 267.972883 225.400663 
L 271.235742 219.352162 
L 274.498602 212.925657 
L 277.761462 206.135732 
L 282.655751 195.328185 
L 287.550041 183.900352 
L 295.70719 164.05374 
L 303.86434 144.340817 
L 308.75863 133.175469 
L 312.021489 126.183737 
L 315.284349 119.631163 
L 318.547209 113.565864 
L 321.810069 108.018045 
L 325.072928 103.000313 
L 328.335788 98.509283 
L 331.598648 94.528114 
L 334.861508 91.029525 
L 338.124367 87.978914 
L 341.387227 85.337255 
L 344.650087 83.063581 
L 347.912947 81.116963 
L 351.175806 79.457971 
L 354.438666 78.04966 
L 357.701526 76.858171 
L 360.964386 75.853008 
L 365.858675 74.6363 
L 370.752965 73.701033 
L 375.647254 72.984581 
L 382.172974 72.285301 
L 390.330123 71.702136 
L 398.487273 71.332681 
L 398.487273 71.332681 
" clip-path="url(#p2caf52fc53)" style="fill: none; stroke: #bcbd22; stroke-width: 1.5; stroke-linecap: square"/>
   </g>
   <g id="line2d_77">
    <path d="M 73.832727 295.188312 
L 99.935605 294.859542 
L 119.512764 294.392837 
L 134.195633 293.826973 
L 145.615642 293.191485 
L 155.404221 292.456514 
L 165.1928 291.486441 
L 173.34995 290.444973 
L 179.875669 289.420017 
L 186.401389 288.187116 
L 192.927108 286.704353 
L 197.821398 285.398484 
L 202.715688 283.899376 
L 207.609977 282.178897 
L 212.504267 280.205063 
L 217.398556 277.941627 
L 222.292846 275.347702 
L 225.555706 273.412388 
L 228.818566 271.295077 
L 232.081425 268.979904 
L 235.344285 266.450019 
L 238.607145 263.687651 
L 241.870005 260.67423 
L 245.132864 257.390576 
L 248.395724 253.817176 
L 251.658584 249.93457 
L 254.921444 245.72387 
L 258.184303 241.167441 
L 261.447163 236.249762 
L 264.710023 230.958496 
L 267.972883 225.285756 
L 271.235742 219.229575 
L 274.498602 212.795519 
L 277.761462 205.998356 
L 282.655751 195.181006 
L 287.550041 183.745345 
L 295.70719 163.892203 
L 303.86434 144.182981 
L 308.75863 133.02481 
L 312.021489 126.039599 
L 315.284349 119.494627 
L 318.547209 113.437699 
L 321.810069 107.898698 
L 325.072928 102.889925 
L 328.335788 98.407729 
L 331.598648 94.435047 
L 334.861508 90.944437 
L 338.124367 87.901188 
L 341.387227 85.266213 
L 344.650087 82.998524 
L 347.912947 81.057203 
L 351.175806 79.402852 
L 354.438666 77.998573 
L 357.701526 76.810562 
L 360.964386 75.808381 
L 365.858675 74.595341 
L 370.752965 73.662937 
L 375.647254 72.948704 
L 382.172974 72.251613 
L 390.330123 71.670289 
L 398.487273 71.302008 
L 398.487273 71.302008 
" clip-path="url(#p2caf52fc53)" style="fill: none; stroke: #17becf; stroke-width: 1.5; stroke-linecap: square"/>
   </g>
   <g id="line2d_78">
    <path d="M 73.832727 295.187823 
L 99.935605 294.858517 
L 119.512764 294.391051 
L 134.195633 293.824265 
L 145.615642 293.187741 
L 155.404221 292.451572 
L 165.1928 291.479919 
L 173.34995 290.436755 
L 179.875669 289.410131 
L 186.401389 288.175224 
L 192.927108 286.690053 
L 197.821398 285.382066 
L 202.715688 283.880529 
L 207.609977 282.15727 
L 212.504267 280.180254 
L 217.398556 277.913182 
L 222.292846 275.315112 
L 225.555706 273.37672 
L 228.818566 271.256059 
L 232.081425 268.937246 
L 235.344285 266.403413 
L 238.607145 263.636771 
L 241.870005 260.618739 
L 245.132864 257.330125 
L 248.395724 253.751412 
L 251.658584 249.863142 
L 254.921444 245.64644 
L 258.184303 241.083695 
L 261.447163 236.159428 
L 264.710023 230.861363 
L 267.972883 225.181695 
L 271.235742 219.118569 
L 274.498602 212.677687 
L 277.761462 205.873984 
L 282.655751 195.047782 
L 287.550041 183.605067 
L 295.70719 163.746079 
L 303.86434 144.040277 
L 308.75863 132.888635 
L 312.021489 125.909344 
L 315.284349 119.371266 
L 318.547209 113.321921 
L 321.810069 107.790903 
L 325.072928 102.790237 
L 328.335788 98.316028 
L 331.598648 94.351019 
L 334.861508 90.86762 
L 338.124367 87.831022 
L 341.387227 85.202083 
L 344.650087 82.939798 
L 347.912947 81.003259 
L 351.175806 79.353097 
L 354.438666 77.952457 
L 357.701526 76.767584 
L 360.964386 75.768093 
L 365.858675 74.558363 
L 370.752965 73.628542 
L 375.647254 72.916312 
L 382.172974 72.221194 
L 390.330123 71.64153 
L 398.487273 71.274309 
L 398.487273 71.274309 
" clip-path="url(#p2caf52fc53)" style="fill: none; stroke: #1f77b4; stroke-width: 1.5; stroke-linecap: square"/>
   </g>
   <g id="line2d_79">
    <path d="M 73.832727 295.187379 
L 99.935605 294.857585 
L 119.512764 294.389426 
L 134.195633 293.8218 
L 145.615642 293.184333 
L 155.404221 292.447074 
L 165.1928 291.473982 
L 173.34995 290.429275 
L 179.875669 289.401132 
L 186.401389 288.1644 
L 192.927108 286.677036 
L 197.821398 285.367121 
L 202.715688 283.863374 
L 207.609977 282.137584 
L 212.504267 280.157672 
L 217.398556 277.887292 
L 222.292846 275.285448 
L 225.555706 273.344256 
L 228.818566 271.220546 
L 232.081425 268.89842 
L 235.344285 266.360993 
L 238.607145 263.590463 
L 241.870005 260.568234 
L 245.132864 257.275107 
L 248.395724 253.69156 
L 251.658584 249.798137 
L 254.921444 245.575975 
L 258.184303 241.007485 
L 261.447163 236.077228 
L 264.710023 230.77298 
L 267.972883 225.087015 
L 271.235742 219.017577 
L 274.498602 212.570494 
L 277.761462 205.760851 
L 282.655751 194.926619 
L 287.550041 183.477514 
L 295.70719 163.613263 
L 302.23291 147.768671 
L 307.1272 136.398256 
L 310.390059 129.226378 
L 313.652919 122.46653 
L 316.915779 116.174613 
L 320.178639 110.38897 
L 323.441498 105.130016 
L 326.704358 100.401307 
L 329.967218 96.191709 
L 333.230078 92.478249 
L 336.492937 89.229237 
L 339.755797 86.407291 
L 343.018657 83.972031 
L 346.281517 81.882283 
L 349.544376 80.097779 
L 352.807236 78.580345 
L 356.070096 77.294669 
L 359.332956 76.208708 
L 364.227245 74.892545 
L 369.121535 73.87959 
L 374.015825 73.102893 
L 380.541544 72.344196 
L 387.067264 71.815722 
L 395.224413 71.375935 
L 398.487273 71.249171 
L 398.487273 71.249171 
" clip-path="url(#p2caf52fc53)" style="fill: none; stroke: #ff7f0e; stroke-width: 1.5; stroke-linecap: square"/>
   </g>
   <g id="line2d_80">
    <path d="M 73.832727 295.186972 
L 99.935605 294.856732 
L 119.512764 294.387941 
L 134.195633 293.819547 
L 145.615642 293.181218 
L 155.404221 292.442963 
L 165.1928 291.468556 
L 173.34995 290.422437 
L 179.875669 289.392907 
L 186.401389 288.154507 
L 192.927108 286.665138 
L 197.821398 285.353461 
L 202.715688 283.847694 
L 207.609977 282.119589 
L 212.504267 280.13703 
L 217.398556 277.863626 
L 222.292846 275.258334 
L 225.555706 273.314581 
L 228.818566 271.188085 
L 232.081425 268.862931 
L 235.344285 266.32222 
L 238.607145 263.548137 
L 241.870005 260.522073 
L 245.132864 257.224822 
L 248.395724 253.636857 
L 251.658584 249.738727 
L 254.921444 245.511576 
L 258.184303 240.937839 
L 261.447163 236.002109 
L 264.710023 230.692215 
L 267.972883 225.000501 
L 271.235742 218.925302 
L 274.498602 212.472561 
L 277.761462 205.657501 
L 282.655751 194.815951 
L 287.550041 183.36103 
L 295.70719 163.492017 
L 302.23291 147.649133 
L 307.1272 136.283317 
L 310.390059 129.115901 
L 313.652919 122.361424 
L 316.915779 116.075563 
L 320.178639 110.29642 
L 323.441498 105.044174 
L 326.704358 100.322166 
L 329.967218 96.119077 
L 333.230078 92.411795 
L 336.492937 89.168529 
L 339.755797 86.351838 
L 343.018657 83.92131 
L 346.281517 81.835772 
L 349.544376 80.054972 
L 352.807236 78.540769 
L 356.070096 77.257887 
L 359.332956 76.174329 
L 364.227245 74.861129 
L 369.121535 73.850493 
L 374.015825 73.075597 
L 380.541544 72.318679 
L 387.067264 71.791455 
L 395.224413 71.352716 
L 398.487273 71.226255 
L 398.487273 71.226255 
" clip-path="url(#p2caf52fc53)" style="fill: none; stroke: #2ca02c; stroke-width: 1.5; stroke-linecap: square"/>
   </g>
   <g id="line2d_81">
    <path d="M 73.832727 295.186599 
L 99.935605 294.85595 
L 119.512764 294.386577 
L 134.195633 293.81748 
L 145.615642 293.17836 
L 155.404221 292.43919 
L 165.1928 291.463576 
L 173.34995 290.416163 
L 179.875669 289.385359 
L 186.401389 288.145428 
L 192.927108 286.65422 
L 197.821398 285.340925 
L 202.715688 283.833305 
L 207.609977 282.103077 
L 212.504267 280.11809 
L 217.398556 277.841911 
L 222.292846 275.233453 
L 225.555706 273.287352 
L 228.818566 271.158299 
L 232.081425 268.830367 
L 235.344285 266.286643 
L 238.607145 263.509299 
L 241.870005 260.479717 
L 245.132864 257.178683 
L 248.395724 253.586667 
L 251.658584 249.684218 
L 254.921444 245.452492 
L 258.184303 240.873942 
L 261.447163 235.933195 
L 264.710023 230.618125 
L 267.972883 224.921142 
L 271.235742 218.840663 
L 274.498602 212.382738 
L 277.761462 205.562718 
L 282.655751 194.714469 
L 287.550041 183.254233 
L 295.70719 163.380891 
L 302.23291 147.539606 
L 307.1272 136.178027 
L 310.390059 129.014714 
L 313.652919 122.265171 
L 316.915779 115.984869 
L 320.178639 110.211689 
L 323.441498 104.965593 
L 326.704358 100.249725 
L 329.967218 96.0526 
L 333.230078 92.350977 
L 336.492937 89.112974 
L 339.755797 86.301092 
L 343.018657 83.874895 
L 346.281517 81.79321 
L 349.544376 80.0158 
L 352.807236 78.504553 
L 356.070096 77.224228 
L 359.332956 76.142867 
L 364.227245 74.832378 
L 369.121535 73.823864 
L 374.015825 73.050615 
L 380.541544 72.295324 
L 387.067264 71.769243 
L 395.224413 71.331463 
L 398.487273 71.205279 
L 398.487273 71.205279 
" clip-path="url(#p2caf52fc53)" style="fill: none; stroke: #d62728; stroke-width: 1.5; stroke-linecap: square"/>
   </g>
   <g id="line2d_82">
    <path d="M 73.832727 295.186255 
L 99.935605 294.85523 
L 119.512764 294.385322 
L 134.195633 293.815576 
L 145.615642 293.175728 
L 155.404221 292.435716 
L 165.1928 291.45899 
L 173.34995 290.410385 
L 179.875669 289.378408 
L 186.401389 288.137067 
L 192.927108 286.644166 
L 197.821398 285.329382 
L 202.715688 283.820054 
L 207.609977 282.087872 
L 212.504267 280.100647 
L 217.398556 277.821913 
L 222.292846 275.210542 
L 225.555706 273.262278 
L 228.818566 271.130871 
L 232.081425 268.800381 
L 235.344285 266.253883 
L 238.607145 263.473537 
L 241.870005 260.440716 
L 245.132864 257.136199 
L 248.395724 253.540452 
L 251.658584 249.634028 
L 254.921444 245.398091 
L 258.184303 240.815112 
L 261.447163 235.869748 
L 264.710023 230.549915 
L 267.972883 224.848084 
L 271.235742 218.762749 
L 274.498602 212.300057 
L 277.761462 205.475478 
L 282.655751 194.621077 
L 287.550041 183.155965 
L 295.70719 163.27867 
L 302.23291 147.438883 
L 307.1272 136.081222 
L 310.390059 128.921694 
L 313.652919 122.176698 
L 316.915779 115.901516 
L 320.178639 110.133825 
L 323.441498 104.893389 
L 326.704358 100.183169 
L 329.967218 95.991528 
L 333.230078 92.295107 
L 336.492937 89.06194 
L 339.755797 86.254478 
L 343.018657 83.832262 
L 346.281517 81.754116 
L 349.544376 79.97982 
L 352.807236 78.471287 
L 356.070096 77.193311 
L 359.332956 76.113968 
L 364.227245 74.805968 
L 369.121535 73.799401 
L 374.015825 73.027665 
L 380.541544 72.273868 
L 387.067264 71.748837 
L 395.224413 71.311935 
L 398.487273 71.186006 
L 398.487273 71.186006 
" clip-path="url(#p2caf52fc53)" style="fill: none; stroke: #9467bd; stroke-width: 1.5; stroke-linecap: square"/>
   </g>
   <g id="line2d_83">
    <path d="M 73.832727 295.185938 
L 99.935605 294.854564 
L 119.512764 294.384162 
L 134.195633 293.813817 
L 145.615642 293.173296 
L 155.404221 292.432506 
L 165.1928 291.454754 
L 173.34995 290.405046 
L 179.875669 289.371986 
L 186.401389 288.129343 
L 192.927108 286.634878 
L 197.821398 285.318717 
L 202.715688 283.807812 
L 207.609977 282.073824 
L 212.504267 280.084533 
L 217.398556 277.803438 
L 222.292846 275.189375 
L 225.555706 273.239113 
L 228.818566 271.105531 
L 232.081425 268.772678 
L 235.344285 266.223617 
L 238.607145 263.440498 
L 241.870005 260.404685 
L 245.132864 257.096951 
L 248.395724 253.497759 
L 251.658584 249.587663 
L 254.921444 245.347837 
L 258.184303 240.760769 
L 261.447163 235.811141 
L 264.710023 230.486912 
L 267.972883 224.780605 
L 271.235742 218.690789 
L 274.498602 212.2237 
L 277.761462 205.394915 
L 282.655751 194.534844 
L 287.550041 183.065242 
L 295.70719 163.184325 
L 302.23291 147.345944 
L 307.1272 135.991914 
L 310.390059 128.83589 
L 313.652919 122.095099 
L 316.915779 115.824648 
L 320.178639 110.062027 
L 323.441498 104.826815 
L 326.704358 100.121808 
L 329.967218 95.935228 
L 333.230078 92.243605 
L 336.492937 89.014899 
L 339.755797 86.211512 
L 343.018657 83.792965 
L 346.281517 81.718082 
L 349.544376 79.946656 
L 352.807236 78.440625 
L 356.070096 77.164813 
L 359.332956 76.08733 
L 364.227245 74.781623 
L 369.121535 73.776851 
L 374.015825 73.006509 
L 380.541544 72.254087 
L 387.067264 71.730023 
L 395.224413 71.293932 
L 398.487273 71.168236 
L 398.487273 71.168236 
" clip-path="url(#p2caf52fc53)" style="fill: none; stroke: #8c564b; stroke-width: 1.5; stroke-linecap: square"/>
   </g>
   <g id="line2d_84">
    <path d="M 73.832727 295.185644 
L 99.935605 294.853947 
L 119.512764 294.383087 
L 134.195633 293.812187 
L 145.615642 293.171042 
L 155.404221 292.429531 
L 165.1928 291.450828 
L 173.34995 290.400099 
L 179.875669 289.366035 
L 186.401389 288.122185 
L 192.927108 286.62627 
L 197.821398 285.308834 
L 202.715688 283.796468 
L 207.609977 282.060805 
L 212.504267 280.0696 
L 217.398556 277.786318 
L 222.292846 275.16976 
L 225.555706 273.217646 
L 228.818566 271.08205 
L 232.081425 268.747007 
L 235.344285 266.195571 
L 238.607145 263.409883 
L 241.870005 260.371299 
L 245.132864 257.060584 
L 248.395724 253.4582 
L 251.658584 249.544703 
L 254.921444 245.301274 
L 258.184303 240.710418 
L 261.447163 235.756842 
L 264.710023 230.428541 
L 267.972883 224.718091 
L 271.235742 218.624126 
L 274.498602 212.152967 
L 277.761462 205.320292 
L 282.655751 194.454977 
L 287.550041 182.981228 
L 295.70719 163.096979 
L 302.23291 147.259919 
L 307.1272 135.909267 
L 310.390059 128.756494 
L 313.652919 122.019602 
L 316.915779 115.753536 
L 320.178639 109.995612 
L 323.441498 104.765239 
L 326.704358 100.065057 
L 329.967218 95.883161 
L 333.230078 92.195979 
L 336.492937 88.971398 
L 339.755797 86.171782 
L 343.018657 83.756629 
L 346.281517 81.684763 
L 349.544376 79.91599 
L 352.807236 78.412272 
L 356.070096 77.138461 
L 359.332956 76.062697 
L 364.227245 74.759111 
L 369.121535 73.755998 
L 374.015825 72.986944 
L 380.541544 72.235794 
L 387.067264 71.712623 
L 395.224413 71.27728 
L 398.487273 71.151802 
L 398.487273 71.151802 
" clip-path="url(#p2caf52fc53)" style="fill: none; stroke: #e377c2; stroke-width: 1.5; stroke-linecap: square"/>
   </g>
   <g id="line2d_85">
    <path d="M 73.832727 295.185371 
L 99.935605 294.853374 
L 119.512764 294.382089 
L 134.195633 293.810672 
L 145.615642 293.168948 
L 155.404221 292.426767 
L 165.1928 291.447179 
L 173.34995 290.395502 
L 179.875669 289.360505 
L 186.401389 288.115533 
L 192.927108 286.618271 
L 197.821398 285.29965 
L 202.715688 283.785925 
L 207.609977 282.048708 
L 212.504267 280.055724 
L 217.398556 277.770409 
L 222.292846 275.151533 
L 225.555706 273.197698 
L 228.818566 271.060229 
L 232.081425 268.723152 
L 235.344285 266.16951 
L 238.607145 263.381435 
L 241.870005 260.340275 
L 245.132864 257.026791 
L 248.395724 253.421442 
L 251.658584 249.504785 
L 254.921444 245.25801 
L 258.184303 240.663635 
L 261.447163 235.706392 
L 264.710023 230.37431 
L 267.972883 224.660012 
L 271.235742 218.562197 
L 274.498602 212.08726 
L 277.761462 205.250975 
L 282.655751 194.380796 
L 287.550041 182.903205 
L 295.70719 163.015881 
L 302.23291 147.180066 
L 307.1272 135.832561 
L 310.390059 128.682814 
L 313.652919 121.949547 
L 316.915779 115.687557 
L 320.178639 109.933996 
L 323.441498 104.708117 
L 326.704358 100.012416 
L 329.967218 95.834867 
L 333.230078 92.151805 
L 336.492937 88.931054 
L 339.755797 86.134935 
L 343.018657 83.72293 
L 346.281517 81.653862 
L 349.544376 79.887551 
L 352.807236 78.385978 
L 356.070096 77.114022 
L 359.332956 76.039853 
L 364.227245 74.738232 
L 369.121535 73.736656 
L 374.015825 72.968796 
L 380.541544 72.218825 
L 387.067264 71.696483 
L 395.224413 71.261835 
L 398.487273 71.136557 
L 398.487273 71.136557 
" clip-path="url(#p2caf52fc53)" style="fill: none; stroke: #7f7f7f; stroke-width: 1.5; stroke-linecap: square"/>
   </g>
   <g id="line2d_86">
    <path d="M 73.832727 295.185116 
L 99.935605 294.85284 
L 119.512764 294.381158 
L 134.195633 293.809261 
L 145.615642 293.166997 
L 155.404221 292.424191 
L 165.1928 291.44378 
L 173.34995 290.391219 
L 179.875669 289.355352 
L 186.401389 288.109336 
L 192.927108 286.610818 
L 197.821398 285.291093 
L 202.715688 283.776104 
L 207.609977 282.037437 
L 212.504267 280.042795 
L 217.398556 277.755586 
L 222.292846 275.134551 
L 225.555706 273.179114 
L 228.818566 271.0399 
L 232.081425 268.700928 
L 235.344285 266.14523 
L 238.607145 263.354931 
L 241.870005 260.311372 
L 245.132864 256.995308 
L 248.395724 253.387197 
L 251.658584 249.467597 
L 254.921444 245.217706 
L 258.184303 240.620054 
L 261.447163 235.659395 
L 264.710023 230.323793 
L 267.972883 224.605914 
L 271.235742 218.504513 
L 274.498602 212.026061 
L 277.761462 205.186417 
L 282.655751 194.311715 
L 287.550041 182.830555 
L 295.70719 162.940384 
L 302.23291 147.105743 
L 307.1272 135.761178 
L 310.390059 128.614254 
L 313.652919 121.884368 
L 316.915779 115.626175 
L 320.178639 109.876679 
L 323.441498 104.654984 
L 326.704358 99.963453 
L 329.967218 95.78995 
L 333.230078 92.110723 
L 336.492937 88.893534 
L 339.755797 86.100668 
L 343.018657 83.691591 
L 346.281517 81.625126 
L 349.544376 79.861104 
L 352.807236 78.361525 
L 356.070096 77.091294 
L 359.332956 76.018607 
L 364.227245 74.718814 
L 369.121535 73.718668 
L 374.015825 72.951918 
L 380.541544 72.203043 
L 387.067264 71.681472 
L 395.224413 71.247468 
L 398.487273 71.122377 
L 398.487273 71.122377 
" clip-path="url(#p2caf52fc53)" style="fill: none; stroke: #bcbd22; stroke-width: 1.5; stroke-linecap: square"/>
   </g>
   <g id="line2d_87">
    <path d="M 73.832727 295.184878 
L 99.935605 294.852341 
L 119.512764 294.380289 
L 134.195633 293.807943 
L 145.615642 293.165174 
L 155.404221 292.421786 
L 165.1928 291.440606 
L 173.34995 290.387219 
L 179.875669 289.35054 
L 186.401389 288.103548 
L 192.927108 286.603858 
L 197.821398 285.283102 
L 202.715688 283.76693 
L 207.609977 282.026911 
L 212.504267 280.03072 
L 217.398556 277.741743 
L 222.292846 275.118691 
L 225.555706 273.161757 
L 228.818566 271.020914 
L 232.081425 268.680172 
L 235.344285 266.122555 
L 238.607145 263.330179 
L 241.870005 260.284379 
L 245.132864 256.965907 
L 248.395724 253.355217 
L 251.658584 249.432869 
L 254.921444 245.180067 
L 258.184303 240.579356 
L 261.447163 235.61551 
L 264.710023 230.276622 
L 267.972883 224.555399 
L 271.235742 218.450653 
L 274.498602 211.968922 
L 277.761462 205.126144 
L 282.655751 194.247226 
L 287.550041 182.76274 
L 295.70719 162.869927 
L 302.23291 147.036394 
L 307.1272 135.694583 
L 310.390059 128.550299 
L 313.652919 121.823571 
L 316.915779 115.568925 
L 320.178639 109.823224 
L 323.441498 104.605435 
L 326.704358 99.917797 
L 329.967218 95.748069 
L 333.230078 92.072419 
L 336.492937 88.858552 
L 339.755797 86.06872 
L 343.018657 83.662374 
L 346.281517 81.598335 
L 349.544376 79.836446 
L 352.807236 78.338727 
L 356.070096 77.070105 
L 359.332956 75.998799 
L 364.227245 74.70071 
L 369.121535 73.701897 
L 374.015825 72.936181 
L 380.541544 72.188328 
L 387.067264 71.667474 
L 395.224413 71.234072 
L 398.487273 71.109155 
L 398.487273 71.109155 
" clip-path="url(#p2caf52fc53)" style="fill: none; stroke: #17becf; stroke-width: 1.5; stroke-linecap: square"/>
   </g>
   <g id="patch_3">
    <path d="M 57.6 307.584 
L 57.6 41.472 
" style="fill: none; stroke: #000000; stroke-width: 0.8; stroke-linejoin: miter; stroke-linecap: square"/>
   </g>
   <g id="patch_4">
    <path d="M 414.72 307.584 
L 414.72 41.472 
" style="fill: none; stroke: #000000; stroke-width: 0.8; stroke-linejoin: miter; stroke-linecap: square"/>
   </g>
   <g id="patch_5">
    <path d="M 57.6 307.584 
L 414.72 307.584 
" style="fill: none; stroke: #000000; stroke-width: 0.8; stroke-linejoin: miter; stroke-linecap: square"/>
   </g>
   <g id="patch_6">
    <path d="M 57.6 41.472 
L 414.72 41.472 
" style="fill: none; stroke: #000000; stroke-width: 0.8; stroke-linejoin: miter; stroke-linecap: square"/>
   </g>
   <g id="text_14">
    <!-- Gain vs Frequency -->
    <g transform="translate(180.8775 35.472) scale(0.12 -0.12)">
     <defs>
      <path id="DejaVuSans-59" d="M 191 3500 
L 800 3500 
L 1894 563 
L 2988 3500 
L 3597 3500 
L 2284 0 
L 1503 0 
L 191 3500 
z
" transform="scale(0.015625)"/>
      <path id="DejaVuSans-56" d="M 2834 3397 
L 2834 2853 
Q 2591 2978 2328 3040 
Q 2066 3103 1784 3103 
Q 1356 3103 1142 2972 
Q 928 2841 928 2578 
Q 928 2378 1081 2264 
Q 1234 2150 1697 2047 
L 1894 2003 
Q 2506 1872 2764 1633 
Q 3022 1394 3022 966 
Q 3022 478 2636 193 
Q 2250 -91 1575 -91 
Q 1294 -91 989 -36 
Q 684 19 347 128 
L 347 722 
Q 666 556 975 473 
Q 1284 391 1588 391 
Q 1994 391 2212 530 
Q 2431 669 2431 922 
Q 2431 1156 2273 1281 
Q 2116 1406 1581 1522 
L 1381 1569 
Q 847 1681 609 1914 
Q 372 2147 372 2553 
Q 372 3047 722 3315 
Q 1072 3584 1716 3584 
Q 2034 3584 2315 3537 
Q 2597 3491 2834 3397 
z
" transform="scale(0.015625)"/>
     </defs>
     <use xlink:href="#DejaVuSans-2a"/>
     <use xlink:href="#DejaVuSans-44" transform="translate(77.484375 0)"/>
     <use xlink:href="#DejaVuSans-4c" transform="translate(138.765625 0)"/>
     <use xlink:href="#DejaVuSans-51" transform="translate(166.546875 0)"/>
     <use xlink:href="#DejaVuSans-3" transform="translate(229.921875 0)"/>
     <use xlink:href="#DejaVuSans-59" transform="translate(261.703125 0)"/>
     <use xlink:href="#DejaVuSans-56" transform="translate(320.890625 0)"/>
     <use xlink:href="#DejaVuSans-3" transform="translate(372.984375 0)"/>
     <use xlink:href="#DejaVuSans-29" transform="translate(404.765625 0)"/>
     <use xlink:href="#DejaVuSans-55" transform="translate(455 0)"/>
     <use xlink:href="#DejaVuSans-48" transform="translate(493.90625 0)"/>
     <use xlink:href="#DejaVuSans-54" transform="translate(555.4375 0)"/>
     <use xlink:href="#DejaVuSans-58" transform="translate(618.921875 0)"/>
     <use xlink:href="#DejaVuSans-48" transform="translate(682.296875 0)"/>
     <use xlink:href="#DejaVuSans-51" transform="translate(743.828125 0)"/>
     <use xlink:href="#DejaVuSans-46" transform="translate(807.203125 0)"/>
     <use xlink:href="#DejaVuSans-5c" transform="translate(862.1875 0)"/>
    </g>
   </g>
  </g>
 </g>
 <defs>
  <clipPath id="p2caf52fc53">
   <rect x="57.6" y="41.472" width="357.12" height="266.112"/>
  </clipPath>
 </defs>
</svg>
