<?xml version="1.0" encoding="utf-8" standalone="no"?>
<!DOCTYPE svg PUBLIC "-//W3C//DTD SVG 1.1//EN"
  "http://www.w3.org/Graphics/SVG/1.1/DTD/svg11.dtd">
<svg xmlns:xlink="http://www.w3.org/1999/xlink" width="460.8pt" height="345.6pt" viewBox="0 0 460.8 345.6" xmlns="http://www.w3.org/2000/svg" version="1.1">
 <metadata>
  <rdf:RDF xmlns:dc="http://purl.org/dc/elements/1.1/" xmlns:cc="http://creativecommons.org/ns#" xmlns:rdf="http://www.w3.org/1999/02/22-rdf-syntax-ns#">
   <cc:Work>
    <dc:type rdf:resource="http://purl.org/dc/dcmitype/StillImage"/>
    <dc:date>1980-01-01T00:00:00+00:00</dc:date>
    <dc:format>image/svg+xml</dc:format>
    <dc:creator>
     <cc:Agent>
      <dc:title>Matplotlib v3.11.0, https://matplotlib.org/</dc:title>
     </cc:Agent>
    </dc:creator>
   </cc:Work>
  </rdf:RDF>
 </metadata>
 <defs>
  <style type="text/css">*{stroke-linejoin: round; stroke-linecap: butt}</style>
 </defs>
 <g id="figure_1">
  <g id="patch_1">
   <path d="M 0 345.6 
L 460.8 345.6 
L 460.8 0 
L 0 0 
z
" style="fill: #ffffff"/>
  </g>
  <g id="axes_1">
   <g id="patch_2">
    <path d="M 57.6 307.584 
L 414.72 307.584 
L 414.72 41.472 
L 57.6 41.472 
z
" style="fill: #ffffff"/>
   </g>
   <g id="FillBetweenPolyCollection_1">
    <defs>
     <path id="mb3c2bdb2d6" d="M 73.832727 -219.456 
L 73.832727 -50.112 
L 75.464157 -50.112 
L 77.095587 -50.112 
L 78.727017 -50.112 
L 80.358447 -50.112 
L 81.989877 -50.112 
L 83.621307 -50.112 
L 85.252736 -50.112 
L 86.884166 -50.112 
L 88.515596 -50.112 
L 90.147026 -50.112 
L 91.778456 -50.112 
L 93.409886 -50.112 
L 95.041316 -50.112 
L 96.672746 -50.112 
L 98.304175 -50.112 
L 99.935605 -50.112 
L 101.567035 -50.112 
L 103.198465 -50.112 
L 104.829895 -50.112 
L 106.461325 -50.112 
L 108.092755 -50.112 
L 109.724185 -50.112 
L 111.355614 -50.112 
L 112.987044 -50.112 
L 114.618474 -50.112 
L 116.249904 -50.112 
L 117.881334 -50.112 
L 119.512764 -50.112 
L 121.144194 -50.112 
L 122.775624 -50.112 
L 124.407053 -50.112 
L 126.038483 -50.112 
L 127.669913 -50.112 
L 129.301343 -50.112 
L 130.932773 -50.112 
L 132.564203 -50.112 
L 134.195633 -50.112 
L 135.827063 -50.112 
L 137.458492 -50.112 
L 139.089922 -50.112 
L 140.721352 -50.112 
L 142.352782 -50.112 
L 143.984212 -50.112 
L 145.615642 -50.112 
L 147.247072 -50.112 
L 148.878502 -50.112 
L 150.509931 -50.112 
L 152.141361 -50.112 
L 153.772791 -50.112 
L 155.404221 -50.112 
L 157.035651 -50.112 
L 158.667081 -50.112 
L 160.298511 -50.112 
L 161.929941 -50.112 
L 163.56137 -50.112 
L 165.1928 -50.112 
L 166.82423 -50.112 
L 168.45566 -50.112 
L 170.08709 -50.112 
L 171.71852 -50.112 
L 173.34995 -50.112 
L 174.98138 -50.112 
L 176.61281 -50.112 
L 178.244239 -50.112 
L 179.875669 -50.112 
L 181.507099 -50.112 
L 183.138529 -50.112 
L 184.769959 -50.112 
L 186.401389 -50.112 
L 188.032819 -50.112 
L 189.664249 -50.112 
L 191.295678 -50.112 
L 192.927108 -50.112 
L 194.558538 -50.112 
L 196.189968 -50.112 
L 197.821398 -50.112 
L 199.452828 -50.112 
L 201.084258 -50.112 
L 202.715688 -50.112 
L 204.347117 -50.112 
L 205.978547 -50.112 
L 207.609977 -50.112 
L 209.241407 -50.112 
L 210.872837 -50.112 
L 212.504267 -50.112 
L 214.135697 -50.112 
L 215.767127 -50.112 
L 217.398556 -50.112 
L 219.029986 -50.112 
L 220.661416 -50.112 
L 222.292846 -50.112 
L 223.924276 -50.112 
L 225.555706 -50.112 
L 227.187136 -50.112 
L 228.818566 -50.112 
L 230.449995 -50.112 
L 232.081425 -50.112 
L 233.712855 -50.112 
L 235.344285 -50.112 
L 236.975715 -50.112 
L 238.607145 -50.112 
L 240.238575 -50.112 
L 241.870005 -50.112 
L 243.501434 -50.112 
L 245.132864 -50.112 
L 246.764294 -50.112 
L 248.395724 -50.112 
L 250.027154 -50.112 
L 251.658584 -50.112 
L 253.290014 -50.112 
L 254.921444 -50.112 
L 256.552873 -50.112 
L 258.184303 -50.112 
L 259.815733 -50.112 
L 259.815733 -219.456 
L 259.815733 -219.456 
L 258.184303 -219.456 
L 256.552873 -219.456 
L 254.921444 -219.456 
L 253.290014 -219.456 
L 251.658584 -219.456 
L 250.027154 -219.456 
L 248.395724 -219.456 
L 246.764294 -219.456 
L 245.132864 -219.456 
L 243.501434 -219.456 
L 241.870005 -219.456 
L 240.238575 -219.456 
L 238.607145 -219.456 
L 236.975715 -219.456 
L 235.344285 -219.456 
L 233.712855 -219.456 
L 232.081425 -219.456 
L 230.449995 -219.456 
L 228.818566 -219.456 
L 227.187136 -219.456 
L 225.555706 -219.456 
L 223.924276 -219.456 
L 222.292846 -219.456 
L 220.661416 -219.456 
L 219.029986 -219.456 
L 217.398556 -219.456 
L 215.767127 -219.456 
L 214.135697 -219.456 
L 212.504267 -219.456 
L 210.872837 -219.456 
L 209.241407 -219.456 
L 207.609977 -219.456 
L 205.978547 -219.456 
L 204.347117 -219.456 
L 202.715688 -219.456 
L 201.084258 -219.456 
L 199.452828 -219.456 
L 197.821398 -219.456 
L 196.189968 -219.456 
L 194.558538 -219.456 
L 192.927108 -219.456 
L 191.295678 -219.456 
L 189.664249 -219.456 
L 188.032819 -219.456 
L 186.401389 -219.456 
L 184.769959 -219.456 
L 183.138529 -219.456 
L 181.507099 -219.456 
L 179.875669 -219.456 
L 178.244239 -219.456 
L 176.61281 -219.456 
L 174.98138 -219.456 
L 173.34995 -219.456 
L 171.71852 -219.456 
L 170.08709 -219.456 
L 168.45566 -219.456 
L 166.82423 -219.456 
L 165.1928 -219.456 
L 163.56137 -219.456 
L 161.929941 -219.456 
L 160.298511 -219.456 
L 158.667081 -219.456 
L 157.035651 -219.456 
L 155.404221 -219.456 
L 153.772791 -219.456 
L 152.141361 -219.456 
L 150.509931 -219.456 
L 148.878502 -219.456 
L 147.247072 -219.456 
L 145.615642 -219.456 
L 143.984212 -219.456 
L 142.352782 -219.456 
L 140.721352 -219.456 
L 139.089922 -219.456 
L 137.458492 -219.456 
L 135.827063 -219.456 
L 134.195633 -219.456 
L 132.564203 -219.456 
L 130.932773 -219.456 
L 129.301343 -219.456 
L 127.669913 -219.456 
L 126.038483 -219.456 
L 124.407053 -219.456 
L 122.775624 -219.456 
L 121.144194 -219.456 
L 119.512764 -219.456 
L 117.881334 -219.456 
L 116.249904 -219.456 
L 114.618474 -219.456 
L 112.987044 -219.456 
L 111.355614 -219.456 
L 109.724185 -219.456 
L 108.092755 -219.456 
L 106.461325 -219.456 
L 104.829895 -219.456 
L 103.198465 -219.456 
L 101.567035 -219.456 
L 99.935605 -219.456 
L 98.304175 -219.456 
L 96.672746 -219.456 
L 95.041316 -219.456 
L 93.409886 -219.456 
L 91.778456 -219.456 
L 90.147026 -219.456 
L 88.515596 -219.456 
L 86.884166 -219.456 
L 85.252736 -219.456 
L 83.621307 -219.456 
L 81.989877 -219.456 
L 80.358447 -219.456 
L 78.727017 -219.456 
L 77.095587 -219.456 
L 75.464157 -219.456 
L 73.832727 -219.456 
z
" style="stroke: #ff0000; stroke-opacity: 0.3"/>
    </defs>
    <g clip-path="url(#p78ea51c2fb)">
     <use xlink:href="#mb3c2bdb2d6" x="0" y="345.6" style="fill: #ff0000; fill-opacity: 0.3; stroke: #ff0000; stroke-opacity: 0.3"/>
    </g>
   </g>
   <g id="FillBetweenPolyCollection_2">
    <defs>
     <path id="mf5250e6bc3" d="M 261.447163 -292.032 
L 261.447163 -50.112 
L 263.078593 -50.112 
L 264.710023 -50.112 
L 266.341453 -50.112 
L 267.972883 -50.112 
L 269.604312 -50.112 
L 271.235742 -50.112 
L 272.867172 -50.112 
L 274.498602 -50.112 
L 276.130032 -50.112 
L 277.761462 -50.112 
L 279.392892 -50.112 
L 281.024322 -50.112 
L 282.655751 -50.112 
L 284.287181 -50.112 
L 285.918611 -50.112 
L 287.550041 -50.112 
L 289.181471 -50.112 
L 290.812901 -50.112 
L 292.444331 -50.112 
L 294.075761 -50.112 
L 295.70719 -50.112 
L 297.33862 -50.112 
L 298.97005 -50.112 
L 300.60148 -50.112 
L 302.23291 -50.112 
L 303.86434 -50.112 
L 305.49577 -50.112 
L 307.1272 -50.112 
L 308.75863 -50.112 
L 310.390059 -50.112 
L 312.021489 -50.112 
L 313.652919 -50.112 
L 315.284349 -50.112 
L 316.915779 -50.112 
L 318.547209 -50.112 
L 320.178639 -50.112 
L 321.810069 -50.112 
L 323.441498 -50.112 
L 325.072928 -50.112 
L 326.704358 -50.112 
L 328.335788 -50.112 
L 329.967218 -50.112 
L 331.598648 -50.112 
L 333.230078 -50.112 
L 334.861508 -50.112 
L 336.492937 -50.112 
L 338.124367 -50.112 
L 339.755797 -50.112 
L 341.387227 -50.112 
L 343.018657 -50.112 
L 344.650087 -50.112 
L 346.281517 -50.112 
L 347.912947 -50.112 
L 349.544376 -50.112 
L 351.175806 -50.112 
L 352.807236 -50.112 
L 354.438666 -50.112 
L 354.438666 -292.032 
L 354.438666 -292.032 
L 352.807236 -292.032 
L 351.175806 -292.032 
L 349.544376 -292.032 
L 347.912947 -292.032 
L 346.281517 -292.032 
L 344.650087 -292.032 
L 343.018657 -292.032 
L 341.387227 -292.032 
L 339.755797 -292.032 
L 338.124367 -292.032 
L 336.492937 -292.032 
L 334.861508 -292.032 
L 333.230078 -292.032 
L 331.598648 -292.032 
L 329.967218 -292.032 
L 328.335788 -292.032 
L 326.704358 -292.032 
L 325.072928 -292.032 
L 323.441498 -292.032 
L 321.810069 -292.032 
L 320.178639 -292.032 
L 318.547209 -292.032 
L 316.915779 -292.032 
L 315.284349 -292.032 
L 313.652919 -292.032 
L 312.021489 -292.032 
L 310.390059 -292.032 
L 308.75863 -292.032 
L 307.1272 -292.032 
L 305.49577 -292.032 
L 303.86434 -292.032 
L 302.23291 -292.032 
L 300.60148 -292.032 
L 298.97005 -292.032 
L 297.33862 -292.032 
L 295.70719 -292.032 
L 294.075761 -292.032 
L 292.444331 -292.032 
L 290.812901 -292.032 
L 289.181471 -292.032 
L 287.550041 -292.032 
L 285.918611 -292.032 
L 284.287181 -292.032 
L 282.655751 -292.032 
L 281.024322 -292.032 
L 279.392892 -292.032 
L 277.761462 -292.032 
L 276.130032 -292.032 
L 274.498602 -292.032 
L 272.867172 -292.032 
L 271.235742 -292.032 
L 269.604312 -292.032 
L 267.972883 -292.032 
L 266.341453 -292.032 
L 264.710023 -292.032 
L 263.078593 -292.032 
L 261.447163 -292.032 
z
" style="stroke: #ffff00; stroke-opacity: 0.3"/>
    </defs>
    <g clip-path="url(#p78ea51c2fb)">
     <use xlink:href="#mf5250e6bc3" x="0" y="345.6" style="fill: #ffff00; fill-opacity: 0.3; stroke: #ffff00; stroke-opacity: 0.3"/>
    </g>
   </g>
   <g id="FillBetweenPolyCollection_3">
    <defs>
     <path id="me6de4534d6" d="M 356.070096 -292.032 
L 356.070096 -219.456 
L 357.701526 -219.456 
L 359.332956 -219.456 
L 360.964386 -219.456 
L 362.595815 -219.456 
L 364.227245 -219.456 
L 365.858675 -219.456 
L 367.490105 -219.456 
L 369.121535 -219.456 
L 370.752965 -219.456 
L 372.384395 -219.456 
L 374.015825 -219.456 
L 374.015825 -292.032 
L 374.015825 -292.032 
L 372.384395 -292.032 
L 370.752965 -292.032 
L 369.121535 -292.032 
L 367.490105 -292.032 
L 365.858675 -292.032 
L 364.227245 -292.032 
L 362.595815 -292.032 
L 360.964386 -292.032 
L 359.332956 -292.032 
L 357.701526 -292.032 
L 356.070096 -292.032 
z
" style="stroke: #008000; stroke-opacity: 0.3"/>
    </defs>
    <g clip-path="url(#p78ea51c2fb)">
     <use xlink:href="#me6de4534d6" x="0" y="345.6" style="fill: #008000; fill-opacity: 0.3; stroke: #008000; stroke-opacity: 0.3"/>
    </g>
   </g>
   <g id="FillBetweenPolyCollection_4">
    <defs>
     <path id="m6a2bae7be5" d="M 375.647254 -292.032 
L 375.647254 -243.648 
L 377.278684 -243.648 
L 378.910114 -243.648 
L 380.541544 -243.648 
L 382.172974 -243.648 
L 383.804404 -243.648 
L 385.435834 -243.648 
L 387.067264 -243.648 
L 388.698693 -243.648 
L 390.330123 -243.648 
L 391.961553 -243.648 
L 393.592983 -243.648 
L 395.224413 -243.648 
L 396.855843 -243.648 
L 398.487273 -243.648 
L 398.487273 -292.032 
L 398.487273 -292.032 
L 396.855843 -292.032 
L 395.224413 -292.032 
L 393.592983 -292.032 
L 391.961553 -292.032 
L 390.330123 -292.032 
L 388.698693 -292.032 
L 387.067264 -292.032 
L 385.435834 -292.032 
L 383.804404 -292.032 
L 382.172974 -292.032 
L 380.541544 -292.032 
L 378.910114 -292.032 
L 377.278684 -292.032 
L 375.647254 -292.032 
z
" style="stroke: #008000; stroke-opacity: 0.3"/>
    </defs>
    <g clip-path="url(#p78ea51c2fb)">
     <use xlink:href="#m6a2bae7be5" x="0" y="345.6" style="fill: #008000; fill-opacity: 0.3; stroke: #008000; stroke-opacity: 0.3"/>
    </g>
   </g>
   <g id="matplotlib.axis_1">
    <g id="xtick_1">
     <g id="line2d_1">
      <path d="M 73.832727 307.584 
L 73.832727 41.472 
" clip-path="url(#p78ea51c2fb)" style="fill: none; stroke: #b0b0b0; stroke-width: 0.8; stroke-linecap: square"/>
     </g>
     <g id="line2d_2">
      <defs>
       <path id="m2a40e198b8" d="M 0 0 
L 0 3.5 
" style="stroke: #000000; stroke-width: 0.8"/>
      </defs>
      <g>
       <use xlink:href="#m2a40e198b8" x="73.832727" y="307.584" style="stroke: #000000; stroke-width: 0.8"/>
      </g>
     </g>
     <g id="text_1">
      <!-- $\mathdefault{10^{0}}$ -->
      <g transform="translate(65.032727 323.984) scale(0.1 -0.1)">
       <defs>
        <path id="DejaVuSans-14" d="M 794 531 
L 1825 531 
L 1825 4091 
L 703 3866 
L 703 4441 
L 1819 4666 
L 2450 4666 
L 2450 531 
L 3481 531 
L 3481 0 
L 794 0 
L 794 531 
z
" transform="scale(0.015625)"/>
        <path id="DejaVuSans-13" d="M 2034 4250 
Q 1547 4250 1301 3770 
Q 1056 3291 1056 2328 
Q 1056 1369 1301 889 
Q 1547 409 2034 409 
Q 2525 409 2770 889 
Q 3016 1369 3016 2328 
Q 3016 3291 2770 3770 
Q 2525 4250 2034 4250 
z
M 2034 4750 
Q 2819 4750 3233 4129 
Q 3647 3509 3647 2328 
Q 3647 1150 3233 529 
Q 2819 -91 2034 -91 
Q 1250 -91 836 529 
Q 422 1150 422 2328 
Q 422 3509 836 4129 
Q 1250 4750 2034 4750 
z
" transform="scale(0.015625)"/>
       </defs>
       <use xlink:href="#DejaVuSans-14" transform="translate(0 0.746875)"/>
       <use xlink:href="#DejaVuSans-13" transform="translate(63.623047 0.746875)"/>
       <use xlink:href="#DejaVuSans-13" transform="translate(128.203125 42.046875) scale(0.7)"/>
      </g>
     </g>
    </g>
    <g id="xtick_2">
     <g id="line2d_3">
      <path d="M 154.996364 307.584 
L 154.996364 41.472 
" clip-path="url(#p78ea51c2fb)" style="fill: none; stroke: #b0b0b0; stroke-width: 0.8; stroke-linecap: square"/>
     </g>
     <g id="line2d_4">
      <g>
       <use xlink:href="#m2a40e198b8" x="154.996364" y="307.584" style="stroke: #000000; stroke-width: 0.8"/>
      </g>
     </g>
     <g id="text_2">
      <!-- $\mathdefault{10^{1}}$ -->
      <g transform="translate(146.196364 323.884) scale(0.1 -0.1)">
       <use xlink:href="#DejaVuSans-14" transform="translate(0 0.665625)"/>
       <use xlink:href="#DejaVuSans-13" transform="translate(63.623047 0.665625)"/>
       <use xlink:href="#DejaVuSans-14" transform="translate(128.203125 41.965625) scale(0.7)"/>
      </g>
     </g>
    </g>
    <g id="xtick_3">
     <g id="line2d_5">
      <path d="M 236.16 307.584 
L 236.16 41.472 
" clip-path="url(#p78ea51c2fb)" style="fill: none; stroke: #b0b0b0; stroke-width: 0.8; stroke-linecap: square"/>
     </g>
     <g id="line2d_6">
      <g>
       <use xlink:href="#m2a40e198b8" x="236.16" y="307.584" style="stroke: #000000; stroke-width: 0.8"/>
      </g>
     </g>
     <g id="text_3">
      <!-- $\mathdefault{10^{2}}$ -->
      <g transform="translate(227.36 323.984) scale(0.1 -0.1)">
       <defs>
        <path id="DejaVuSans-15" d="M 1228 531 
L 3431 531 
L 3431 0 
L 469 0 
L 469 531 
Q 828 903 1448 1529 
Q 2069 2156 2228 2338 
Q 2531 2678 2651 2914 
Q 2772 3150 2772 3378 
Q 2772 3750 2511 3984 
Q 2250 4219 1831 4219 
Q 1534 4219 1204 4116 
Q 875 4013 500 3803 
L 500 4441 
Q 881 4594 1212 4672 
Q 1544 4750 1819 4750 
Q 2544 4750 2975 4387 
Q 3406 4025 3406 3419 
Q 3406 3131 3298 2873 
Q 3191 2616 2906 2266 
Q 2828 2175 2409 1742 
Q 1991 1309 1228 531 
z
" transform="scale(0.015625)"/>
       </defs>
       <use xlink:href="#DejaVuSans-14" transform="translate(0 0.746875)"/>
       <use xlink:href="#DejaVuSans-13" transform="translate(63.623047 0.746875)"/>
       <use xlink:href="#DejaVuSans-15" transform="translate(128.203125 42.046875) scale(0.7)"/>
      </g>
     </g>
    </g>
    <g id="xtick_4">
     <g id="line2d_7">
      <path d="M 317.323636 307.584 
L 317.323636 41.472 
" clip-path="url(#p78ea51c2fb)" style="fill: none; stroke: #b0b0b0; stroke-width: 0.8; stroke-linecap: square"/>
     </g>
     <g id="line2d_8">
      <g>
       <use xlink:href="#m2a40e198b8" x="317.323636" y="307.584" style="stroke: #000000; stroke-width: 0.8"/>
      </g>
     </g>
     <g id="text_4">
      <!-- $\mathdefault{10^{3}}$ -->
      <g transform="translate(308.523636 323.984) scale(0.1 -0.1)">
       <defs>
        <path id="DejaVuSans-16" d="M 2597 2516 
Q 3050 2419 3304 2112 
Q 3559 1806 3559 1356 
Q 3559 666 3084 287 
Q 2609 -91 1734 -91 
Q 1441 -91 1130 -33 
Q 819 25 488 141 
L 488 750 
Q 750 597 1062 519 
Q 1375 441 1716 441 
Q 2309 441 2620 675 
Q 2931 909 2931 1356 
Q 2931 1769 2642 2001 
Q 2353 2234 1838 2234 
L 1294 2234 
L 1294 2753 
L 1863 2753 
Q 2328 2753 2575 2939 
Q 2822 3125 2822 3475 
Q 2822 3834 2567 4026 
Q 2313 4219 1838 4219 
Q 1578 4219 1281 4162 
Q 984 4106 628 3988 
L 628 4550 
Q 988 4650 1302 4700 
Q 1616 4750 1894 4750 
Q 2613 4750 3031 4423 
Q 3450 4097 3450 3541 
Q 3450 3153 3228 2886 
Q 3006 2619 2597 2516 
z
" transform="scale(0.015625)"/>
       </defs>
       <use xlink:href="#DejaVuSans-14" transform="translate(0 0.746875)"/>
       <use xlink:href="#DejaVuSans-13" transform="translate(63.623047 0.746875)"/>
       <use xlink:href="#DejaVuSans-16" transform="translate(128.203125 42.046875) scale(0.7)"/>
      </g>
     </g>
    </g>
    <g id="xtick_5">
     <g id="line2d_9">
      <path d="M 398.487273 307.584 
L 398.487273 41.472 
" clip-path="url(#p78ea51c2fb)" style="fill: none; stroke: #b0b0b0; stroke-width: 0.8; stroke-linecap: square"/>
     </g>
     <g id="line2d_10">
      <g>
       <use xlink:href="#m2a40e198b8" x="398.487273" y="307.584" style="stroke: #000000; stroke-width: 0.8"/>
      </g>
     </g>
     <g id="text_5">
      <!-- $\mathdefault{10^{4}}$ -->
      <g transform="translate(389.687273 323.884) scale(0.1 -0.1)">
       <defs>
        <path id="DejaVuSans-17" d="M 2419 4116 
L 825 1625 
L 2419 1625 
L 2419 4116 
z
M 2253 4666 
L 3047 4666 
L 3047 1625 
L 3713 1625 
L 3713 1100 
L 3047 1100 
L 3047 0 
L 2419 0 
L 2419 1100 
L 313 1100 
L 313 1709 
L 2253 4666 
z
" transform="scale(0.015625)"/>
       </defs>
       <use xlink:href="#DejaVuSans-14" transform="translate(0 0.665625)"/>
       <use xlink:href="#DejaVuSans-13" transform="translate(63.623047 0.665625)"/>
       <use xlink:href="#DejaVuSans-17" transform="translate(128.203125 41.965625) scale(0.7)"/>
      </g>
     </g>
    </g>
    <g id="xtick_6">
     <g id="line2d_11">
      <defs>
       <path id="m9862873b10" d="M 0 0 
L 0 2 
" style="stroke: #000000; stroke-width: 0.6"/>
      </defs>
      <g>
       <use xlink:href="#m9862873b10" x="61.260321" y="307.584" style="stroke: #000000; stroke-width: 0.6"/>
      </g>
     </g>
    </g>
    <g id="xtick_7">
     <g id="line2d_12">
      <g>
       <use xlink:href="#m9862873b10" x="65.967158" y="307.584" style="stroke: #000000; stroke-width: 0.6"/>
      </g>
     </g>
    </g>
    <g id="xtick_8">
     <g id="line2d_13">
      <g>
       <use xlink:href="#m9862873b10" x="70.118883" y="307.584" style="stroke: #000000; stroke-width: 0.6"/>
      </g>
     </g>
    </g>
    <g id="xtick_9">
     <g id="line2d_14">
      <g>
       <use xlink:href="#m9862873b10" x="98.265416" y="307.584" style="stroke: #000000; stroke-width: 0.6"/>
      </g>
     </g>
    </g>
    <g id="xtick_10">
     <g id="line2d_15">
      <g>
       <use xlink:href="#m9862873b10" x="112.557623" y="307.584" style="stroke: #000000; stroke-width: 0.6"/>
      </g>
     </g>
    </g>
    <g id="xtick_11">
     <g id="line2d_16">
      <g>
       <use xlink:href="#m9862873b10" x="122.698105" y="307.584" style="stroke: #000000; stroke-width: 0.6"/>
      </g>
     </g>
    </g>
    <g id="xtick_12">
     <g id="line2d_17">
      <g>
       <use xlink:href="#m9862873b10" x="130.563675" y="307.584" style="stroke: #000000; stroke-width: 0.6"/>
      </g>
     </g>
    </g>
    <g id="xtick_13">
     <g id="line2d_18">
      <g>
       <use xlink:href="#m9862873b10" x="136.990312" y="307.584" style="stroke: #000000; stroke-width: 0.6"/>
      </g>
     </g>
    </g>
    <g id="xtick_14">
     <g id="line2d_19">
      <g>
       <use xlink:href="#m9862873b10" x="142.423957" y="307.584" style="stroke: #000000; stroke-width: 0.6"/>
      </g>
     </g>
    </g>
    <g id="xtick_15">
     <g id="line2d_20">
      <g>
       <use xlink:href="#m9862873b10" x="147.130795" y="307.584" style="stroke: #000000; stroke-width: 0.6"/>
      </g>
     </g>
    </g>
    <g id="xtick_16">
     <g id="line2d_21">
      <g>
       <use xlink:href="#m9862873b10" x="151.282519" y="307.584" style="stroke: #000000; stroke-width: 0.6"/>
      </g>
     </g>
    </g>
    <g id="xtick_17">
     <g id="line2d_22">
      <g>
       <use xlink:href="#m9862873b10" x="179.429053" y="307.584" style="stroke: #000000; stroke-width: 0.6"/>
      </g>
     </g>
    </g>
    <g id="xtick_18">
     <g id="line2d_23">
      <g>
       <use xlink:href="#m9862873b10" x="193.72126" y="307.584" style="stroke: #000000; stroke-width: 0.6"/>
      </g>
     </g>
    </g>
    <g id="xtick_19">
     <g id="line2d_24">
      <g>
       <use xlink:href="#m9862873b10" x="203.861742" y="307.584" style="stroke: #000000; stroke-width: 0.6"/>
      </g>
     </g>
    </g>
    <g id="xtick_20">
     <g id="line2d_25">
      <g>
       <use xlink:href="#m9862873b10" x="211.727311" y="307.584" style="stroke: #000000; stroke-width: 0.6"/>
      </g>
     </g>
    </g>
    <g id="xtick_21">
     <g id="line2d_26">
      <g>
       <use xlink:href="#m9862873b10" x="218.153949" y="307.584" style="stroke: #000000; stroke-width: 0.6"/>
      </g>
     </g>
    </g>
    <g id="xtick_22">
     <g id="line2d_27">
      <g>
       <use xlink:href="#m9862873b10" x="223.587594" y="307.584" style="stroke: #000000; stroke-width: 0.6"/>
      </g>
     </g>
    </g>
    <g id="xtick_23">
     <g id="line2d_28">
      <g>
       <use xlink:href="#m9862873b10" x="228.294431" y="307.584" style="stroke: #000000; stroke-width: 0.6"/>
      </g>
     </g>
    </g>
    <g id="xtick_24">
     <g id="line2d_29">
      <g>
       <use xlink:href="#m9862873b10" x="232.446156" y="307.584" style="stroke: #000000; stroke-width: 0.6"/>
      </g>
     </g>
    </g>
    <g id="xtick_25">
     <g id="line2d_30">
      <g>
       <use xlink:href="#m9862873b10" x="260.592689" y="307.584" style="stroke: #000000; stroke-width: 0.6"/>
      </g>
     </g>
    </g>
    <g id="xtick_26">
     <g id="line2d_31">
      <g>
       <use xlink:href="#m9862873b10" x="274.884896" y="307.584" style="stroke: #000000; stroke-width: 0.6"/>
      </g>
     </g>
    </g>
    <g id="xtick_27">
     <g id="line2d_32">
      <g>
       <use xlink:href="#m9862873b10" x="285.025378" y="307.584" style="stroke: #000000; stroke-width: 0.6"/>
      </g>
     </g>
    </g>
    <g id="xtick_28">
     <g id="line2d_33">
      <g>
       <use xlink:href="#m9862873b10" x="292.890947" y="307.584" style="stroke: #000000; stroke-width: 0.6"/>
      </g>
     </g>
    </g>
    <g id="xtick_29">
     <g id="line2d_34">
      <g>
       <use xlink:href="#m9862873b10" x="299.317585" y="307.584" style="stroke: #000000; stroke-width: 0.6"/>
      </g>
     </g>
    </g>
    <g id="xtick_30">
     <g id="line2d_35">
      <g>
       <use xlink:href="#m9862873b10" x="304.75123" y="307.584" style="stroke: #000000; stroke-width: 0.6"/>
      </g>
     </g>
    </g>
    <g id="xtick_31">
     <g id="line2d_36">
      <g>
       <use xlink:href="#m9862873b10" x="309.458067" y="307.584" style="stroke: #000000; stroke-width: 0.6"/>
      </g>
     </g>
    </g>
    <g id="xtick_32">
     <g id="line2d_37">
      <g>
       <use xlink:href="#m9862873b10" x="313.609792" y="307.584" style="stroke: #000000; stroke-width: 0.6"/>
      </g>
     </g>
    </g>
    <g id="xtick_33">
     <g id="line2d_38">
      <g>
       <use xlink:href="#m9862873b10" x="341.756325" y="307.584" style="stroke: #000000; stroke-width: 0.6"/>
      </g>
     </g>
    </g>
    <g id="xtick_34">
     <g id="line2d_39">
      <g>
       <use xlink:href="#m9862873b10" x="356.048532" y="307.584" style="stroke: #000000; stroke-width: 0.6"/>
      </g>
     </g>
    </g>
    <g id="xtick_35">
     <g id="line2d_40">
      <g>
       <use xlink:href="#m9862873b10" x="366.189015" y="307.584" style="stroke: #000000; stroke-width: 0.6"/>
      </g>
     </g>
    </g>
    <g id="xtick_36">
     <g id="line2d_41">
      <g>
       <use xlink:href="#m9862873b10" x="374.054584" y="307.584" style="stroke: #000000; stroke-width: 0.6"/>
      </g>
     </g>
    </g>
    <g id="xtick_37">
     <g id="line2d_42">
      <g>
       <use xlink:href="#m9862873b10" x="380.481221" y="307.584" style="stroke: #000000; stroke-width: 0.6"/>
      </g>
     </g>
    </g>
    <g id="xtick_38">
     <g id="line2d_43">
      <g>
       <use xlink:href="#m9862873b10" x="385.914866" y="307.584" style="stroke: #000000; stroke-width: 0.6"/>
      </g>
     </g>
    </g>
    <g id="xtick_39">
     <g id="line2d_44">
      <g>
       <use xlink:href="#m9862873b10" x="390.621704" y="307.584" style="stroke: #000000; stroke-width: 0.6"/>
      </g>
     </g>
    </g>
    <g id="xtick_40">
     <g id="line2d_45">
      <g>
       <use xlink:href="#m9862873b10" x="394.773428" y="307.584" style="stroke: #000000; stroke-width: 0.6"/>
      </g>
     </g>
    </g>
    <g id="text_6">
     <!-- Frequency (Hz) -->
     <g transform="translate(198.454531 337.984) scale(0.1 -0.1)">
      <defs>
       <path id="DejaVuSans-29" d="M 628 4666 
L 3309 4666 
L 3309 4134 
L 1259 4134 
L 1259 2759 
L 3109 2759 
L 3109 2228 
L 1259 2228 
L 1259 0 
L 628 0 
L 628 4666 
z
" transform="scale(0.015625)"/>
       <path id="DejaVuSans-55" d="M 2631 2963 
Q 2534 3019 2420 3045 
Q 2306 3072 2169 3072 
Q 1681 3072 1420 2755 
Q 1159 2438 1159 1844 
L 1159 0 
L 581 0 
L 581 3500 
L 1159 3500 
L 1159 2956 
Q 1341 3275 1631 3429 
Q 1922 3584 2338 3584 
Q 2397 3584 2469 3576 
Q 2541 3569 2628 3553 
L 2631 2963 
z
" transform="scale(0.015625)"/>
       <path id="DejaVuSans-48" d="M 3597 1894 
L 3597 1613 
L 953 1613 
Q 991 1019 1311 708 
Q 1631 397 2203 397 
Q 2534 397 2845 478 
Q 3156 559 3463 722 
L 3463 178 
Q 3153 47 2828 -22 
Q 2503 -91 2169 -91 
Q 1331 -91 842 396 
Q 353 884 353 1716 
Q 353 2575 817 3079 
Q 1281 3584 2069 3584 
Q 2775 3584 3186 3129 
Q 3597 2675 3597 1894 
z
M 3022 2063 
Q 3016 2534 2758 2815 
Q 2500 3097 2075 3097 
Q 1594 3097 1305 2825 
Q 1016 2553 972 2059 
L 3022 2063 
z
" transform="scale(0.015625)"/>
       <path id="DejaVuSans-54" d="M 947 1747 
Q 947 1113 1208 752 
Q 1469 391 1925 391 
Q 2381 391 2643 752 
Q 2906 1113 2906 1747 
Q 2906 2381 2643 2742 
Q 2381 3103 1925 3103 
Q 1469 3103 1208 2742 
Q 947 2381 947 1747 
z
M 2906 525 
Q 2725 213 2448 61 
Q 2172 -91 1784 -91 
Q 1150 -91 751 415 
Q 353 922 353 1747 
Q 353 2572 751 3078 
Q 1150 3584 1784 3584 
Q 2172 3584 2448 3432 
Q 2725 3281 2906 2969 
L 2906 3500 
L 3481 3500 
L 3481 -1331 
L 2906 -1331 
L 2906 525 
z
" transform="scale(0.015625)"/>
       <path id="DejaVuSans-58" d="M 544 1381 
L 544 3500 
L 1119 3500 
L 1119 1403 
Q 1119 906 1312 657 
Q 1506 409 1894 409 
Q 2359 409 2629 706 
Q 2900 1003 2900 1516 
L 2900 3500 
L 3475 3500 
L 3475 0 
L 2900 0 
L 2900 538 
Q 2691 219 2414 64 
Q 2138 -91 1772 -91 
Q 1169 -91 856 284 
Q 544 659 544 1381 
z
M 1991 3584 
L 1991 3584 
z
" transform="scale(0.015625)"/>
       <path id="DejaVuSans-51" d="M 3513 2113 
L 3513 0 
L 2938 0 
L 2938 2094 
Q 2938 2591 2744 2837 
Q 2550 3084 2163 3084 
Q 1697 3084 1428 2787 
Q 1159 2491 1159 1978 
L 1159 0 
L 581 0 
L 581 3500 
L 1159 3500 
L 1159 2956 
Q 1366 3272 1645 3428 
Q 1925 3584 2291 3584 
Q 2894 3584 3203 3211 
Q 3513 2838 3513 2113 
z
" transform="scale(0.015625)"/>
       <path id="DejaVuSans-46" d="M 3122 3366 
L 3122 2828 
Q 2878 2963 2633 3030 
Q 2388 3097 2138 3097 
Q 1578 3097 1268 2742 
Q 959 2388 959 1747 
Q 959 1106 1268 751 
Q 1578 397 2138 397 
Q 2388 397 2633 464 
Q 2878 531 3122 666 
L 3122 134 
Q 2881 22 2623 -34 
Q 2366 -91 2075 -91 
Q 1284 -91 818 406 
Q 353 903 353 1747 
Q 353 2603 823 3093 
Q 1294 3584 2113 3584 
Q 2378 3584 2631 3529 
Q 2884 3475 3122 3366 
z
" transform="scale(0.015625)"/>
       <path id="DejaVuSans-5c" d="M 2059 -325 
Q 1816 -950 1584 -1140 
Q 1353 -1331 966 -1331 
L 506 -1331 
L 506 -850 
L 844 -850 
Q 1081 -850 1212 -737 
Q 1344 -625 1503 -206 
L 1606 56 
L 191 3500 
L 800 3500 
L 1894 763 
L 2988 3500 
L 3597 3500 
L 2059 -325 
z
" transform="scale(0.015625)"/>
       <path id="DejaVuSans-3" transform="scale(0.015625)"/>
       <path id="DejaVuSans-b" d="M 1984 4856 
Q 1566 4138 1362 3434 
Q 1159 2731 1159 2009 
Q 1159 1288 1364 580 
Q 1569 -128 1984 -844 
L 1484 -844 
Q 1016 -109 783 600 
Q 550 1309 550 2009 
Q 550 2706 781 3412 
Q 1013 4119 1484 4856 
L 1984 4856 
z
" transform="scale(0.015625)"/>
       <path id="DejaVuSans-2b" d="M 628 4666 
L 1259 4666 
L 1259 2753 
L 3553 2753 
L 3553 4666 
L 4184 4666 
L 4184 0 
L 3553 0 
L 3553 2222 
L 1259 2222 
L 1259 0 
L 628 0 
L 628 4666 
z
" transform="scale(0.015625)"/>
       <path id="DejaVuSans-5d" d="M 353 3500 
L 3084 3500 
L 3084 2975 
L 922 459 
L 3084 459 
L 3084 0 
L 275 0 
L 275 525 
L 2438 3041 
L 353 3041 
L 353 3500 
z
" transform="scale(0.015625)"/>
       <path id="DejaVuSans-c" d="M 513 4856 
L 1013 4856 
Q 1481 4119 1714 3412 
Q 1947 2706 1947 2009 
Q 1947 1309 1714 600 
Q 1481 -109 1013 -844 
L 513 -844 
Q 928 -128 1133 580 
Q 1338 1288 1338 2009 
Q 1338 2731 1133 3434 
Q 928 4138 513 4856 
z
" transform="scale(0.015625)"/>
      </defs>
      <use xlink:href="#DejaVuSans-29"/>
      <use xlink:href="#DejaVuSans-55" transform="translate(50.234375 0)"/>
      <use xlink:href="#DejaVuSans-48" transform="translate(89.140625 0)"/>
      <use xlink:href="#DejaVuSans-54" transform="translate(150.671875 0)"/>
      <use xlink:href="#DejaVuSans-58" transform="translate(214.15625 0)"/>
      <use xlink:href="#DejaVuSans-48" transform="translate(277.53125 0)"/>
      <use xlink:href="#DejaVuSans-51" transform="translate(339.0625 0)"/>
      <use xlink:href="#DejaVuSans-46" transform="translate(402.4375 0)"/>
      <use xlink:href="#DejaVuSans-5c" transform="translate(457.421875 0)"/>
      <use xlink:href="#DejaVuSans-3" transform="translate(516.609375 0)"/>
      <use xlink:href="#DejaVuSans-b" transform="translate(548.390625 0)"/>
      <use xlink:href="#DejaVuSans-2b" transform="translate(587.40625 0)"/>
      <use xlink:href="#DejaVuSans-5d" transform="translate(662.609375 0)"/>
      <use xlink:href="#DejaVuSans-c" transform="translate(715.09375 0)"/>
     </g>
    </g>
   </g>
   <g id="matplotlib.axis_2">
    <g id="ytick_1">
     <g id="line2d_46">
      <path d="M 57.6 295.488 
L 414.72 295.488 
" clip-path="url(#p78ea51c2fb)" style="fill: none; stroke: #b0b0b0; stroke-width: 0.8; stroke-linecap: square"/>
     </g>
     <g id="line2d_47">
      <defs>
       <path id="mffbdb26aff" d="M 0 0 
L -3.5 0 
" style="stroke: #000000; stroke-width: 0.8"/>
      </defs>
      <g>
       <use xlink:href="#mffbdb26aff" x="57.6" y="295.488" style="stroke: #000000; stroke-width: 0.8"/>
      </g>
     </g>
     <g id="text_7">
      <!-- 0.0 -->
      <g transform="translate(34.696875 299.286828) scale(0.1 -0.1)">
       <defs>
        <path id="DejaVuSans-11" d="M 684 794 
L 1344 794 
L 1344 0 
L 684 0 
L 684 794 
z
" transform="scale(0.015625)"/>
       </defs>
       <use xlink:href="#DejaVuSans-13"/>
       <use xlink:href="#DejaVuSans-11" transform="translate(63.625 0)"/>
       <use xlink:href="#DejaVuSans-13" transform="translate(95.40625 0)"/>
      </g>
     </g>
    </g>
    <g id="ytick_2">
     <g id="line2d_48">
      <path d="M 57.6 247.104 
L 414.72 247.104 
" clip-path="url(#p78ea51c2fb)" style="fill: none; stroke: #b0b0b0; stroke-width: 0.8; stroke-linecap: square"/>
     </g>
     <g id="line2d_49">
      <g>
       <use xlink:href="#mffbdb26aff" x="57.6" y="247.104" style="stroke: #000000; stroke-width: 0.8"/>
      </g>
     </g>
     <g id="text_8">
      <!-- 0.2 -->
      <g transform="translate(34.696875 250.902828) scale(0.1 -0.1)">
       <use xlink:href="#DejaVuSans-13"/>
       <use xlink:href="#DejaVuSans-11" transform="translate(63.625 0)"/>
       <use xlink:href="#DejaVuSans-15" transform="translate(95.40625 0)"/>
      </g>
     </g>
    </g>
    <g id="ytick_3">
     <g id="line2d_50">
      <path d="M 57.6 198.72 
L 414.72 198.72 
" clip-path="url(#p78ea51c2fb)" style="fill: none; stroke: #b0b0b0; stroke-width: 0.8; stroke-linecap: square"/>
     </g>
     <g id="line2d_51">
      <g>
       <use xlink:href="#mffbdb26aff" x="57.6" y="198.72" style="stroke: #000000; stroke-width: 0.8"/>
      </g>
     </g>
     <g id="text_9">
      <!-- 0.4 -->
      <g transform="translate(34.696875 202.518828) scale(0.1 -0.1)">
       <use xlink:href="#DejaVuSans-13"/>
       <use xlink:href="#DejaVuSans-11" transform="translate(63.625 0)"/>
       <use xlink:href="#DejaVuSans-17" transform="translate(95.40625 0)"/>
      </g>
     </g>
    </g>
    <g id="ytick_4">
     <g id="line2d_52">
      <path d="M 57.6 150.336 
L 414.72 150.336 
" clip-path="url(#p78ea51c2fb)" style="fill: none; stroke: #b0b0b0; stroke-width: 0.8; stroke-linecap: square"/>
     </g>
     <g id="line2d_53">
      <g>
       <use xlink:href="#mffbdb26aff" x="57.6" y="150.336" style="stroke: #000000; stroke-width: 0.8"/>
      </g>
     </g>
     <g id="text_10">
      <!-- 0.6 -->
      <g transform="translate(34.696875 154.134828) scale(0.1 -0.1)">
       <defs>
        <path id="DejaVuSans-19" d="M 2113 2584 
Q 1688 2584 1439 2293 
Q 1191 2003 1191 1497 
Q 1191 994 1439 701 
Q 1688 409 2113 409 
Q 2538 409 2786 701 
Q 3034 994 3034 1497 
Q 3034 2003 2786 2293 
Q 2538 2584 2113 2584 
z
M 3366 4563 
L 3366 3988 
Q 3128 4100 2886 4159 
Q 2644 4219 2406 4219 
Q 1781 4219 1451 3797 
Q 1122 3375 1075 2522 
Q 1259 2794 1537 2939 
Q 1816 3084 2150 3084 
Q 2853 3084 3261 2657 
Q 3669 2231 3669 1497 
Q 3669 778 3244 343 
Q 2819 -91 2113 -91 
Q 1303 -91 875 529 
Q 447 1150 447 2328 
Q 447 3434 972 4092 
Q 1497 4750 2381 4750 
Q 2619 4750 2861 4703 
Q 3103 4656 3366 4563 
z
" transform="scale(0.015625)"/>
       </defs>
       <use xlink:href="#DejaVuSans-13"/>
       <use xlink:href="#DejaVuSans-11" transform="translate(63.625 0)"/>
       <use xlink:href="#DejaVuSans-19" transform="translate(95.40625 0)"/>
      </g>
     </g>
    </g>
    <g id="ytick_5">
     <g id="line2d_54">
      <path d="M 57.6 101.952 
L 414.72 101.952 
" clip-path="url(#p78ea51c2fb)" style="fill: none; stroke: #b0b0b0; stroke-width: 0.8; stroke-linecap: square"/>
     </g>
     <g id="line2d_55">
      <g>
       <use xlink:href="#mffbdb26aff" x="57.6" y="101.952" style="stroke: #000000; stroke-width: 0.8"/>
      </g>
     </g>
     <g id="text_11">
      <!-- 0.8 -->
      <g transform="translate(34.696875 105.750828) scale(0.1 -0.1)">
       <defs>
        <path id="DejaVuSans-1b" d="M 2034 2216 
Q 1584 2216 1326 1975 
Q 1069 1734 1069 1313 
Q 1069 891 1326 650 
Q 1584 409 2034 409 
Q 2484 409 2743 651 
Q 3003 894 3003 1313 
Q 3003 1734 2745 1975 
Q 2488 2216 2034 2216 
z
M 1403 2484 
Q 997 2584 770 2862 
Q 544 3141 544 3541 
Q 544 4100 942 4425 
Q 1341 4750 2034 4750 
Q 2731 4750 3128 4425 
Q 3525 4100 3525 3541 
Q 3525 3141 3298 2862 
Q 3072 2584 2669 2484 
Q 3125 2378 3379 2068 
Q 3634 1759 3634 1313 
Q 3634 634 3220 271 
Q 2806 -91 2034 -91 
Q 1263 -91 848 271 
Q 434 634 434 1313 
Q 434 1759 690 2068 
Q 947 2378 1403 2484 
z
M 1172 3481 
Q 1172 3119 1398 2916 
Q 1625 2713 2034 2713 
Q 2441 2713 2670 2916 
Q 2900 3119 2900 3481 
Q 2900 3844 2670 4047 
Q 2441 4250 2034 4250 
Q 1625 4250 1398 4047 
Q 1172 3844 1172 3481 
z
" transform="scale(0.015625)"/>
       </defs>
       <use xlink:href="#DejaVuSans-13"/>
       <use xlink:href="#DejaVuSans-11" transform="translate(63.625 0)"/>
       <use xlink:href="#DejaVuSans-1b" transform="translate(95.40625 0)"/>
      </g>
     </g>
    </g>
    <g id="ytick_6">
     <g id="line2d_56">
      <path d="M 57.6 53.568 
L 414.72 53.568 
" clip-path="url(#p78ea51c2fb)" style="fill: none; stroke: #b0b0b0; stroke-width: 0.8; stroke-linecap: square"/>
     </g>
     <g id="line2d_57">
      <g>
       <use xlink:href="#mffbdb26aff" x="57.6" y="53.568" style="stroke: #000000; stroke-width: 0.8"/>
      </g>
     </g>
     <g id="text_12">
      <!-- 1.0 -->
      <g transform="translate(34.696875 57.366828) scale(0.1 -0.1)">
       <use xlink:href="#DejaVuSans-14"/>
       <use xlink:href="#DejaVuSans-11" transform="translate(63.625 0)"/>
       <use xlink:href="#DejaVuSans-13" transform="translate(95.40625 0)"/>
      </g>
     </g>
    </g>
    <g id="text_13">
     <!-- Gain -->
     <g transform="translate(28.294531 186.024094) rotate(-90) scale(0.1 -0.1)">
      <defs>
       <path id="DejaVuSans-2a" d="M 3809 666 
L 3809 1919 
L 2778 1919 
L 2778 2438 
L 4434 2438 
L 4434 434 
Q 4069 175 3628 42 
Q 3188 -91 2688 -91 
Q 1594 -91 976 548 
Q 359 1188 359 2328 
Q 359 3472 976 4111 
Q 1594 4750 2688 4750 
Q 3144 4750 3555 4637 
Q 3966 4525 4313 4306 
L 4313 3634 
Q 3963 3931 3569 4081 
Q 3175 4231 2741 4231 
Q 1884 4231 1454 3753 
Q 1025 3275 1025 2328 
Q 1025 1384 1454 906 
Q 1884 428 2741 428 
Q 3075 428 3337 486 
Q 3600 544 3809 666 
z
" transform="scale(0.015625)"/>
       <path id="DejaVuSans-44" d="M 2194 1759 
Q 1497 1759 1228 1600 
Q 959 1441 959 1056 
Q 959 750 1161 570 
Q 1363 391 1709 391 
Q 2188 391 2477 730 
Q 2766 1069 2766 1631 
L 2766 1759 
L 2194 1759 
z
M 3341 1997 
L 3341 0 
L 2766 0 
L 2766 531 
Q 2569 213 2275 61 
Q 1981 -91 1556 -91 
Q 1019 -91 701 211 
Q 384 513 384 1019 
Q 384 1609 779 1909 
Q 1175 2209 1959 2209 
L 2766 2209 
L 2766 2266 
Q 2766 2663 2505 2880 
Q 2244 3097 1772 3097 
Q 1472 3097 1187 3025 
Q 903 2953 641 2809 
L 641 3341 
Q 956 3463 1253 3523 
Q 1550 3584 1831 3584 
Q 2591 3584 2966 3190 
Q 3341 2797 3341 1997 
z
" transform="scale(0.015625)"/>
       <path id="DejaVuSans-4c" d="M 603 3500 
L 1178 3500 
L 1178 0 
L 603 0 
L 603 3500 
z
M 603 4863 
L 1178 4863 
L 1178 4134 
L 603 4134 
L 603 4863 
z
" transform="scale(0.015625)"/>
      </defs>
      <use xlink:href="#DejaVuSans-2a"/>
      <use xlink:href="#DejaVuSans-44" transform="translate(77.484375 0)"/>
      <use xlink:href="#DejaVuSans-4c" transform="translate(138.765625 0)"/>
      <use xlink:href="#DejaVuSans-51" transform="translate(166.546875 0)"/>
     </g>
    </g>
   </g>
   <g id="line2d_58">
    <path d="M 73.832727 295.270163 
L 104.829895 294.963143 
L 126.038483 294.530047 
L 142.352782 293.966254 
L 155.404221 293.284397 
L 165.1928 292.579171 
L 174.98138 291.648368 
L 183.138529 290.649079 
L 189.664249 289.665657 
L 196.189968 288.482753 
L 202.715688 287.060186 
L 207.609977 285.807401 
L 212.504267 284.369326 
L 217.398556 282.719036 
L 222.292846 280.825941 
L 227.187136 278.655414 
L 232.081425 276.168453 
L 236.975715 273.32142 
L 240.238575 271.199654 
L 243.501434 268.880954 
L 246.764294 266.348969 
L 250.027154 263.586598 
L 253.290014 260.576154 
L 256.552873 257.299616 
L 259.815733 253.738967 
L 263.078593 249.87667 
L 266.341453 245.696274 
L 269.604312 241.183201 
L 272.867172 236.325707 
L 276.130032 231.116041 
L 279.392892 225.551786 
L 282.655751 219.637336 
L 285.918611 213.385445 
L 290.812901 203.427356 
L 295.70719 192.88747 
L 302.23291 178.256069 
L 312.021489 156.303178 
L 316.915779 145.945029 
L 320.178639 139.450447 
L 323.441498 133.357672 
L 326.704358 127.712486 
L 329.967218 122.544144 
L 333.230078 117.86556 
L 336.492937 113.674709 
L 339.755797 109.95691 
L 343.018657 106.687605 
L 346.281517 103.835239 
L 349.544376 101.363963 
L 352.807236 99.235969 
L 356.070096 97.413356 
L 359.332956 95.859516 
L 362.595815 94.540083 
L 365.858675 93.423511 
L 369.121535 92.481348 
L 374.015825 91.340654 
L 378.910114 90.463634 
L 383.804404 89.791693 
L 390.330123 89.135766 
L 398.487273 88.588686 
L 398.487273 88.588686 
" clip-path="url(#p78ea51c2fb)" style="fill: none; stroke: #1f77b4; stroke-width: 1.5; stroke-linecap: square"/>
   </g>
   <g id="line2d_59">
    <path d="M 73.832727 295.168767 
L 99.935605 294.818556 
L 117.881334 294.374177 
L 132.564203 293.798675 
L 143.984212 293.152366 
L 153.772791 292.404889 
L 163.56137 291.418324 
L 171.71852 290.359178 
L 178.244239 289.316857 
L 184.769959 288.063122 
L 191.295678 286.555396 
L 196.189968 285.227644 
L 201.084258 283.703547 
L 205.978547 281.954593 
L 210.872837 279.948398 
L 215.767127 277.648317 
L 220.661416 275.013097 
L 223.924276 273.047522 
L 227.187136 270.8977 
L 230.449995 268.547761 
L 233.712855 265.980908 
L 236.975715 263.179509 
L 240.238575 260.125249 
L 243.501434 256.799353 
L 246.764294 253.182911 
L 250.027154 249.257313 
L 253.290014 245.004837 
L 256.552873 240.409399 
L 259.815733 235.457487 
L 263.078593 230.139307 
L 266.341453 224.450111 
L 269.604312 218.391703 
L 272.867172 211.974047 
L 277.761462 201.720127 
L 282.655751 190.819729 
L 289.181471 175.595996 
L 300.60148 148.788133 
L 305.49577 138.006163 
L 308.75863 131.260385 
L 312.021489 124.942637 
L 315.284349 119.098565 
L 318.547209 113.756459 
L 321.810069 108.927632 
L 325.072928 104.60803 
L 328.335788 100.780727 
L 331.598648 97.418856 
L 334.861508 94.488624 
L 338.124367 91.952097 
L 341.387227 89.769581 
L 344.650087 87.901505 
L 347.912947 86.309815 
L 351.175806 84.958904 
L 354.438666 83.816169 
L 357.701526 82.852273 
L 362.595815 81.685686 
L 367.490105 80.789073 
L 372.384395 80.102306 
L 378.910114 79.432063 
L 387.067264 78.87316 
L 396.855843 78.465764 
L 398.487273 78.417109 
L 398.487273 78.417109 
" clip-path="url(#p78ea51c2fb)" style="fill: none; stroke: #ff7f0e; stroke-width: 1.5; stroke-linecap: square"/>
   </g>
   <g id="line2d_60">
    <path d="M 73.832727 295.13035 
L 98.304175 294.771916 
L 116.249904 294.296579 
L 130.932773 293.680986 
L 142.352782 292.989659 
L 152.141361 292.190127 
L 160.298511 291.331692 
L 168.45566 290.25001 
L 174.98138 289.18552 
L 181.507099 287.90513 
L 188.032819 286.365372 
L 192.927108 285.009432 
L 197.821398 283.453009 
L 202.715688 281.667006 
L 207.609977 279.61838 
L 212.504267 277.269756 
L 217.398556 274.579076 
L 220.661416 272.572256 
L 223.924276 270.377455 
L 227.187136 267.978524 
L 230.449995 265.358384 
L 233.712855 262.499126 
L 236.975715 259.38217 
L 240.238575 255.988504 
L 243.501434 252.299018 
L 246.764294 248.294968 
L 250.027154 243.958581 
L 253.290014 239.273831 
L 256.552873 234.227415 
L 259.815733 228.809922 
L 263.078593 223.017207 
L 266.341453 216.851921 
L 269.604312 210.325144 
L 274.498602 199.906467 
L 279.392892 188.845238 
L 285.918611 173.424683 
L 295.70719 150.121892 
L 300.60148 139.047814 
L 303.86434 132.07576 
L 307.1272 125.51386 
L 310.390059 119.414884 
L 313.652919 113.814304 
L 316.915779 108.730115 
L 320.178639 104.164015 
L 323.441498 100.103627 
L 326.704358 96.525344 
L 329.967218 93.397379 
L 333.230078 90.682704 
L 336.492937 88.341629 
L 339.755797 86.33391 
L 343.018657 84.620342 
L 346.281517 83.163877 
L 349.544376 81.930328 
L 352.807236 80.888735 
L 357.701526 79.626761 
L 362.595815 78.655824 
L 367.490105 77.91153 
L 374.015825 77.184641 
L 380.541544 76.678413 
L 388.698693 76.257197 
L 398.487273 75.950689 
L 398.487273 75.950689 
" clip-path="url(#p78ea51c2fb)" style="fill: none; stroke: #2ca02c; stroke-width: 1.5; stroke-linecap: square"/>
   </g>
   <g id="line2d_61">
    <path d="M 73.832727 295.11014 
L 98.304175 294.731452 
L 116.249904 294.229256 
L 129.301343 293.665223 
L 140.721352 292.967866 
L 150.509931 292.161361 
L 158.667081 291.295441 
L 166.82423 290.204329 
L 173.34995 289.130562 
L 179.875669 287.839017 
L 186.401389 286.285853 
L 191.295678 284.918115 
L 196.189968 283.348163 
L 201.084258 281.546652 
L 205.978547 279.480263 
L 210.872837 277.111316 
L 215.767127 274.39741 
L 219.029986 272.373315 
L 222.292846 270.159672 
L 225.555706 267.740213 
L 228.818566 265.097738 
L 232.081425 262.214221 
L 235.344285 259.070966 
L 238.607145 255.648858 
L 241.870005 251.9287 
L 245.132864 247.891682 
L 248.395724 243.519999 
L 251.658584 238.797642 
L 254.921444 233.711376 
L 258.184303 228.251937 
L 261.447163 222.415407 
L 264.710023 216.204769 
L 267.972883 209.631541 
L 272.867172 199.142361 
L 277.761462 188.011716 
L 284.287181 172.504917 
L 294.075761 149.098599 
L 298.97005 137.98811 
L 302.23291 130.997765 
L 305.49577 124.422088 
L 308.75863 118.313414 
L 312.021489 112.706658 
L 315.284349 107.619194 
L 318.547209 103.052097 
L 321.810069 98.992405 
L 325.072928 95.415994 
L 328.335788 92.290649 
L 331.598648 89.579004 
L 334.861508 87.241114 
L 338.124367 85.236551 
L 341.387227 83.525991 
L 344.650087 82.072313 
L 347.912947 80.841289 
L 351.175806 79.801947 
L 356.070096 78.542848 
L 360.964386 77.574233 
L 365.858675 76.831784 
L 372.384395 76.106751 
L 378.910114 75.601848 
L 387.067264 75.181754 
L 398.487273 74.839598 
L 398.487273 74.839598 
" clip-path="url(#p78ea51c2fb)" style="fill: none; stroke: #d62728; stroke-width: 1.5; stroke-linecap: square"/>
   </g>
   <g id="line2d_62">
    <path d="M 73.832727 295.097674 
L 96.672746 294.741838 
L 114.618474 294.246536 
L 127.669913 293.690244 
L 139.089922 293.002457 
L 148.878502 292.207017 
L 157.035651 291.352971 
L 165.1928 290.276814 
L 171.71852 289.217751 
L 178.244239 287.943874 
L 184.769959 286.411921 
L 189.664249 285.062828 
L 194.558538 283.514227 
L 199.452828 281.737144 
L 204.347117 279.698664 
L 209.241407 277.361543 
L 214.135697 274.683848 
L 217.398556 272.686561 
L 220.661416 270.502022 
L 223.924276 268.114091 
L 227.187136 265.505683 
L 230.449995 262.658858 
L 233.712855 259.554977 
L 236.975715 256.174922 
L 240.238575 252.499429 
L 243.501434 248.509524 
L 246.764294 244.187122 
L 250.027154 239.515777 
L 253.290014 234.48164 
L 256.552873 229.07461 
L 259.815733 223.289687 
L 263.078593 217.128505 
L 266.341453 210.600957 
L 271.235742 200.169059 
L 276.130032 189.075877 
L 282.655751 173.575912 
L 294.075761 146.258516 
L 298.97005 135.262108 
L 302.23291 128.379099 
L 305.49577 121.930577 
L 308.75863 115.96352 
L 312.021489 110.507242 
L 315.284349 105.573726 
L 318.547209 101.15925 
L 321.810069 97.246893 
L 325.072928 93.809528 
L 328.335788 90.812886 
L 331.598648 88.218407 
L 334.861508 85.985677 
L 338.124367 84.074363 
L 341.387227 82.445641 
L 344.650087 81.06316 
L 347.912947 79.89362 
L 351.175806 78.907043 
L 356.070096 77.712917 
L 360.964386 76.795072 
L 365.858675 76.092004 
L 372.384395 75.405818 
L 380.541544 74.833596 
L 390.330123 74.416477 
L 398.487273 74.207489 
L 398.487273 74.207489 
" clip-path="url(#p78ea51c2fb)" style="fill: none; stroke: #9467bd; stroke-width: 1.5; stroke-linecap: square"/>
   </g>
   <g id="line2d_63">
    <path d="M 73.832727 295.089216 
L 96.672746 294.725669 
L 114.618474 294.219635 
L 127.669913 293.65129 
L 139.089922 292.948603 
L 148.878502 292.135935 
L 157.035651 291.263398 
L 165.1928 290.163951 
L 171.71852 289.081982 
L 178.244239 287.780577 
L 184.769959 286.215562 
L 189.664249 284.837395 
L 194.558538 283.255481 
L 199.452828 281.440257 
L 204.347117 279.358162 
L 209.241407 276.97124 
L 214.135697 274.236792 
L 217.398556 272.197413 
L 220.661416 269.967097 
L 223.924276 267.529469 
L 227.187136 264.867222 
L 230.449995 261.96222 
L 233.712855 258.795667 
L 236.975715 255.34835 
L 240.238575 251.600989 
L 243.501434 247.534713 
L 246.764294 243.13168 
L 250.027154 238.375884 
L 253.290014 233.254143 
L 256.552873 227.757305 
L 259.815733 221.881638 
L 263.078593 215.630398 
L 266.341453 209.015467 
L 271.235742 198.462707 
L 276.130032 187.269013 
L 282.655751 171.682926 
L 292.444331 148.17864 
L 297.33862 137.031989 
L 300.60148 130.02263 
L 303.86434 123.43184 
L 307.1272 117.311628 
L 310.390059 111.696478 
L 313.652919 106.603274 
L 316.915779 102.032583 
L 320.178639 97.970966 
L 323.441498 94.39387 
L 326.704358 91.268716 
L 329.967218 88.55784 
L 333.230078 86.22107 
L 336.492937 84.21781 
L 339.755797 82.508612 
L 343.018657 81.056274 
L 346.281517 79.826519 
L 349.544376 78.788343 
L 354.438666 77.530774 
L 359.332956 76.563423 
L 364.227245 75.821995 
L 370.752965 75.098003 
L 377.278684 74.593851 
L 385.435834 74.174398 
L 396.855843 73.832775 
L 398.487273 73.79956 
L 398.487273 73.79956 
" clip-path="url(#p78ea51c2fb)" style="fill: none; stroke: #8c564b; stroke-width: 1.5; stroke-linecap: square"/>
   </g>
   <g id="line2d_64">
    <path d="M 73.832727 295.083101 
L 96.672746 294.71398 
L 114.618474 294.200186 
L 127.669913 293.623127 
L 139.089922 292.909668 
L 148.878502 292.084544 
L 157.035651 291.198638 
L 165.1928 290.082354 
L 171.71852 288.983826 
L 178.244239 287.662522 
L 184.769959 286.073607 
L 189.664249 284.674427 
L 194.558538 283.068437 
L 199.452828 281.225653 
L 204.347117 279.112046 
L 209.241407 276.68915 
L 214.135697 273.913719 
L 217.398556 271.843953 
L 220.661416 269.5806 
L 223.924276 267.107119 
L 227.187136 264.406048 
L 230.449995 261.459117 
L 233.712855 258.247424 
L 236.975715 254.751698 
L 240.238575 250.952663 
L 243.501434 246.831534 
L 246.764294 242.370672 
L 250.027154 237.554406 
L 253.290014 232.370066 
L 256.552873 226.809213 
L 259.815733 220.869066 
L 263.078593 214.554079 
L 266.341453 207.877599 
L 271.235742 197.240424 
L 276.130032 185.977634 
L 282.655751 170.334739 
L 292.444331 146.844193 
L 297.33862 135.75108 
L 300.60148 128.792286 
L 303.86434 122.261522 
L 307.1272 116.208278 
L 310.390059 110.664388 
L 313.652919 105.644177 
L 316.915779 101.145931 
L 320.178639 97.154317 
L 323.441498 93.643341 
L 326.704358 90.579432 
L 329.967218 87.924349 
L 333.230078 85.637683 
L 336.492937 83.678871 
L 339.755797 82.008698 
L 343.018657 80.590324 
L 346.281517 79.389907 
L 349.544376 78.376914 
L 354.438666 77.150364 
L 359.332956 76.207257 
L 364.227245 75.484638 
L 370.752965 74.779204 
L 378.910114 74.190803 
L 388.698693 73.761816 
L 398.487273 73.514515 
L 398.487273 73.514515 
" clip-path="url(#p78ea51c2fb)" style="fill: none; stroke: #e377c2; stroke-width: 1.5; stroke-linecap: square"/>
   </g>
   <g id="line2d_65">
    <path d="M 73.832727 295.078473 
L 96.672746 294.705134 
L 112.987044 294.244378 
L 126.038483 293.68712 
L 137.458492 292.998137 
L 147.247072 292.201314 
L 155.404221 291.345783 
L 163.56137 290.267753 
L 170.08709 289.206845 
L 176.61281 287.930746 
L 183.138529 286.396118 
L 188.032819 285.044663 
L 192.927108 283.493346 
L 197.821398 281.713135 
L 202.715688 279.671053 
L 207.609977 277.329781 
L 212.504267 274.647297 
L 215.767127 272.646412 
L 219.029986 270.457909 
L 222.292846 268.065609 
L 225.555706 265.45238 
L 228.818566 262.600231 
L 232.081425 259.490463 
L 235.344285 256.103891 
L 238.607145 252.421174 
L 241.870005 248.423251 
L 245.132864 244.091933 
L 248.395724 239.410663 
L 251.658584 234.365461 
L 254.921444 228.946082 
L 258.184303 223.147368 
L 261.447163 216.97078 
L 264.710023 210.426036 
L 269.604312 199.964602 
L 274.498602 188.836938 
L 281.024322 173.282799 
L 292.444331 145.850061 
L 297.33862 134.79904 
L 300.60148 127.879204 
L 303.86434 121.394237 
L 307.1272 115.391718 
L 310.390059 109.901498 
L 313.652919 104.93601 
L 316.915779 100.491864 
L 320.178639 96.552354 
L 323.441498 93.090454 
L 326.704358 90.071895 
L 329.967218 87.458038 
L 333.230078 85.208329 
L 336.492937 83.282255 
L 339.755797 81.640789 
L 343.018657 80.247371 
L 346.281517 79.068492 
L 349.544376 78.073974 
L 354.438666 76.870161 
L 359.332956 75.944812 
L 364.227245 75.235962 
L 370.752965 74.544105 
L 378.910114 73.967132 
L 388.698693 73.546538 
L 398.487273 73.304097 
L 398.487273 73.304097 
" clip-path="url(#p78ea51c2fb)" style="fill: none; stroke: #7f7f7f; stroke-width: 1.5; stroke-linecap: square"/>
   </g>
   <g id="line2d_66">
    <path d="M 73.832727 295.07485 
L 96.672746 294.698207 
L 112.987044 294.233375 
L 126.038483 293.671187 
L 137.458492 292.97611 
L 147.247072 292.172239 
L 155.404221 291.309145 
L 163.56137 290.221588 
L 170.08709 289.15131 
L 176.61281 287.863951 
L 183.138529 286.315798 
L 188.032819 284.95245 
L 192.927108 283.387504 
L 197.821398 281.591689 
L 202.715688 279.531763 
L 207.609977 277.170113 
L 212.504267 274.464404 
L 215.767127 272.446292 
L 219.029986 270.239052 
L 222.292846 267.826407 
L 225.555706 265.191134 
L 228.818566 262.31516 
L 232.081425 259.179719 
L 235.344285 255.765586 
L 238.607145 252.05341 
L 241.870005 248.024168 
L 245.132864 243.659769 
L 248.395724 238.943827 
L 251.658584 233.862632 
L 254.921444 228.406319 
L 258.184303 222.570245 
L 261.447163 216.356529 
L 264.710023 209.775696 
L 269.604312 199.264205 
L 274.498602 188.094698 
L 281.024322 172.504269 
L 290.812901 148.896404 
L 295.70719 137.654153 
L 298.97005 130.567782 
L 302.23291 123.892009 
L 305.49577 117.681503 
L 308.75863 111.973498 
L 312.021489 106.787499 
L 315.284349 102.126381 
L 318.547209 97.978578 
L 321.810069 94.320927 
L 325.072928 91.121759 
L 328.335788 88.343888 
L 331.598648 85.947253 
L 334.861508 83.891093 
L 338.124367 82.135597 
L 341.387227 80.643068 
L 344.650087 79.378665 
L 347.912947 78.310797 
L 352.807236 77.016715 
L 357.701526 76.020869 
L 362.595815 75.257359 
L 369.121535 74.511601 
L 375.647254 73.992172 
L 383.804404 73.559934 
L 395.224413 73.207848 
L 398.487273 73.142392 
L 398.487273 73.142392 
" clip-path="url(#p78ea51c2fb)" style="fill: none; stroke: #bcbd22; stroke-width: 1.5; stroke-linecap: square"/>
   </g>
   <g id="line2d_67">
    <path d="M 73.832727 295.071935 
L 96.672746 294.692636 
L 112.987044 294.224525 
L 126.038483 293.658371 
L 137.458492 292.958393 
L 147.247072 292.148854 
L 155.404221 291.279676 
L 163.56137 290.184457 
L 170.08709 289.106644 
L 176.61281 287.810229 
L 183.138529 286.251198 
L 188.032819 284.878286 
L 192.927108 283.30238 
L 197.821398 281.494018 
L 202.715688 279.419743 
L 207.609977 277.04171 
L 212.504267 274.317331 
L 215.767127 272.285372 
L 219.029986 270.063073 
L 222.292846 267.634079 
L 225.555706 264.981095 
L 228.818566 262.085983 
L 232.081425 258.929927 
L 235.344285 255.49367 
L 238.607145 251.757855 
L 241.870005 247.703494 
L 245.132864 243.312576 
L 248.395724 238.568861 
L 251.658584 233.45886 
L 254.921444 227.97302 
L 258.184303 222.107116 
L 261.447163 215.863803 
L 264.710023 209.254262 
L 269.604312 198.703091 
L 274.498602 187.500634 
L 281.024322 171.882099 
L 290.812901 148.277348 
L 295.70719 137.058439 
L 298.97005 129.994719 
L 302.23291 123.346186 
L 305.49577 117.166364 
L 308.75863 111.49126 
L 312.021489 106.339174 
L 315.284349 101.711892 
L 318.547209 97.596934 
L 321.810069 93.970426 
L 325.072928 90.800203 
L 328.335788 88.048773 
L 331.598648 85.675942 
L 334.861508 83.640944 
L 338.124367 81.904061 
L 341.387227 80.427755 
L 344.650087 79.177384 
L 347.912947 78.121574 
L 352.807236 76.84236 
L 357.701526 75.858147 
L 362.595815 75.103669 
L 369.121535 74.366828 
L 375.647254 73.853666 
L 383.804404 73.426679 
L 395.224413 73.078893 
L 398.487273 73.014238 
L 398.487273 73.014238 
" clip-path="url(#p78ea51c2fb)" style="fill: none; stroke: #17becf; stroke-width: 1.5; stroke-linecap: square"/>
   </g>
   <g id="line2d_68">
    <path d="M 73.832727 295.06954 
L 96.672746 294.688058 
L 112.987044 294.217253 
L 126.038483 293.64784 
L 137.458492 292.943834 
L 147.247072 292.129638 
L 155.404221 291.255461 
L 163.56137 290.153946 
L 170.08709 289.069941 
L 176.61281 287.766084 
L 183.138529 286.198115 
L 188.032819 284.817344 
L 192.927108 283.232433 
L 197.821398 281.413763 
L 202.715688 279.3277 
L 207.609977 276.936207 
L 212.504267 274.196492 
L 215.767127 272.153161 
L 219.029986 269.918494 
L 222.292846 267.476076 
L 225.555706 264.808551 
L 228.818566 261.897731 
L 232.081425 258.724757 
L 235.344285 255.270347 
L 238.607145 251.515144 
L 241.870005 247.440188 
L 245.132864 243.027539 
L 248.395724 238.261079 
L 251.658584 233.127502 
L 254.921444 227.617517 
L 258.184303 221.727247 
L 261.447163 215.45979 
L 264.710023 208.826871 
L 269.604312 198.24348 
L 274.498602 187.014413 
L 281.024322 171.373497 
L 290.812901 147.772368 
L 295.70719 136.573044 
L 298.97005 129.528121 
L 302.23291 122.902081 
L 305.49577 116.747502 
L 308.75863 111.099386 
L 312.021489 105.975055 
L 315.284349 101.375412 
L 318.547209 97.287237 
L 321.810069 93.686091 
L 325.072928 90.53941 
L 328.335788 87.809465 
L 331.598648 85.45596 
L 334.861508 83.438128 
L 338.124367 81.716335 
L 341.387227 80.253174 
L 344.650087 79.014168 
L 347.912947 77.96812 
L 352.807236 76.700939 
L 357.701526 75.726136 
L 362.595815 74.978963 
L 369.121535 74.249333 
L 375.647254 73.741237 
L 383.804404 73.318493 
L 395.224413 72.974182 
L 398.487273 72.910176 
L 398.487273 72.910176 
" clip-path="url(#p78ea51c2fb)" style="fill: none; stroke: #1f77b4; stroke-width: 1.5; stroke-linecap: square"/>
   </g>
   <g id="line2d_69">
    <path d="M 73.832727 295.067538 
L 96.672746 294.684229 
L 112.987044 294.21117 
L 126.038483 293.639033 
L 137.458492 292.931658 
L 147.247072 292.113567 
L 155.404221 291.235208 
L 163.56137 290.128428 
L 170.08709 289.039244 
L 176.61281 287.729164 
L 183.138529 286.153721 
L 188.032819 284.766378 
L 192.927108 283.173937 
L 197.821398 281.346646 
L 202.715688 279.250726 
L 207.609977 276.847981 
L 212.504267 274.095444 
L 215.767127 272.042605 
L 219.029986 269.797601 
L 222.292846 267.343963 
L 225.555706 264.664286 
L 228.818566 261.74034 
L 232.081425 258.553231 
L 235.344285 255.08366 
L 238.607145 251.312268 
L 241.870005 247.220121 
L 245.132864 242.78934 
L 248.395724 238.00391 
L 251.658584 232.850682 
L 254.921444 227.320586 
L 258.184303 221.41004 
L 261.447163 215.122514 
L 264.710023 208.470189 
L 269.604312 197.860119 
L 274.498602 186.60912 
L 281.024322 170.949978 
L 290.812901 147.352605 
L 295.70719 136.169931 
L 298.97005 129.140852 
L 302.23291 122.533694 
L 305.49577 116.400242 
L 308.75863 110.774662 
L 312.021489 105.673463 
L 315.284349 101.096819 
L 318.547209 97.030902 
L 321.810069 93.450807 
L 325.072928 90.323649 
L 328.335788 87.611506 
L 331.598648 85.274001 
L 334.861508 83.270375 
L 338.124367 81.561061 
L 341.387227 80.108768 
L 344.650087 78.879153 
L 347.912947 77.84117 
L 352.807236 76.583925 
L 357.701526 75.616893 
L 362.595815 74.87575 
L 369.121535 74.15207 
L 375.647254 73.648154 
L 383.804404 73.228911 
L 395.224413 72.887467 
L 398.487273 72.823995 
L 398.487273 72.823995 
" clip-path="url(#p78ea51c2fb)" style="fill: none; stroke: #ff7f0e; stroke-width: 1.5; stroke-linecap: square"/>
   </g>
   <g id="line2d_70">
    <path d="M 73.832727 295.065838 
L 96.672746 294.68098 
L 112.987044 294.206008 
L 126.038483 293.631558 
L 137.458492 292.921324 
L 147.247072 292.099927 
L 155.404221 291.21802 
L 163.56137 290.106771 
L 170.08709 289.013192 
L 176.61281 287.697831 
L 183.138529 286.116044 
L 188.032819 284.723123 
L 192.927108 283.124292 
L 197.821398 281.289686 
L 202.715688 279.185402 
L 207.609977 276.773108 
L 212.504267 274.009692 
L 215.767127 271.948787 
L 219.029986 269.695013 
L 222.292846 267.231857 
L 225.555706 264.541874 
L 228.818566 261.606796 
L 232.081425 258.407703 
L 235.344285 254.925278 
L 238.607145 251.140164 
L 241.870005 247.033451 
L 245.132864 242.587311 
L 248.395724 237.785818 
L 251.658584 232.61596 
L 254.921444 227.068855 
L 258.184303 221.141173 
L 261.447163 214.836702 
L 264.710023 208.168012 
L 269.604312 197.53549 
L 274.498602 186.266105 
L 281.024322 170.591844 
L 290.812901 146.998172 
L 295.70719 135.82982 
L 298.97005 128.814274 
L 302.23291 122.223187 
L 305.49577 116.107675 
L 308.75863 110.501195 
L 312.021489 105.419571 
L 315.284349 100.862362 
L 318.547209 96.815235 
L 321.810069 93.252893 
L 325.072928 90.142185 
L 328.335788 87.445034 
L 331.598648 85.120994 
L 334.861508 83.129317 
L 338.124367 81.430496 
L 341.387227 79.987336 
L 344.650087 78.765612 
L 347.912947 77.734403 
L 352.807236 76.485504 
L 357.701526 75.524995 
L 362.595815 74.788913 
L 369.121535 74.070227 
L 375.647254 73.56982 
L 383.804404 73.153514 
L 395.224413 72.814475 
L 398.487273 72.751451 
L 398.487273 72.751451 
" clip-path="url(#p78ea51c2fb)" style="fill: none; stroke: #2ca02c; stroke-width: 1.5; stroke-linecap: square"/>
   </g>
   <g id="line2d_71">
    <path d="M 73.832727 295.064377 
L 96.672746 294.678187 
L 112.987044 294.201572 
L 126.038483 293.625135 
L 137.458492 292.912443 
L 147.247072 292.088205 
L 155.404221 291.20325 
L 163.56137 290.08816 
L 170.08709 288.990805 
L 176.61281 287.670904 
L 183.138529 286.083667 
L 188.032819 284.685953 
L 192.927108 283.081631 
L 197.821398 281.240739 
L 202.715688 279.129268 
L 207.609977 276.70877 
L 212.504267 273.936008 
L 215.767127 271.868173 
L 219.029986 269.606866 
L 222.292846 267.135535 
L 225.555706 264.436699 
L 228.818566 261.492061 
L 232.081425 258.282677 
L 235.344285 254.789217 
L 238.607145 250.992325 
L 241.870005 246.873111 
L 245.132864 242.413794 
L 248.395724 237.598527 
L 251.658584 232.414412 
L 254.921444 226.852734 
L 258.184303 220.910379 
L 261.447163 214.59141 
L 264.710023 207.908734 
L 269.604312 197.257058 
L 274.498602 185.972041 
L 281.024322 170.285042 
L 290.812901 146.694922 
L 295.70719 135.539015 
L 298.97005 128.535159 
L 302.23291 121.957918 
L 305.49577 115.857828 
L 308.75863 110.267741 
L 312.021489 105.202894 
L 315.284349 100.662326 
L 318.547209 96.63127 
L 321.810069 93.084103 
L 325.072928 89.987446 
L 328.335788 87.30309 
L 331.598648 84.990539 
L 334.861508 83.009052 
L 338.124367 81.319176 
L 341.387227 79.883801 
L 344.650087 78.6688 
L 347.912947 77.643362 
L 352.807236 76.40157 
L 357.701526 75.446615 
L 362.595815 74.714842 
L 369.121535 74.000407 
L 375.647254 73.502985 
L 383.804404 73.089179 
L 395.224413 72.752187 
L 398.487273 72.689545 
L 398.487273 72.689545 
" clip-path="url(#p78ea51c2fb)" style="fill: none; stroke: #d62728; stroke-width: 1.5; stroke-linecap: square"/>
   </g>
   <g id="line2d_72">
    <path d="M 73.832727 295.063108 
L 96.672746 294.675762 
L 112.987044 294.197719 
L 126.038483 293.619555 
L 137.458492 292.904729 
L 147.247072 292.078024 
L 155.404221 291.19042 
L 163.56137 290.071995 
L 170.08709 288.971359 
L 176.61281 287.647517 
L 183.138529 286.055544 
L 188.032819 284.653668 
L 192.927108 283.044577 
L 197.821398 281.198226 
L 202.715688 279.080513 
L 207.609977 276.65289 
L 212.504267 273.872012 
L 215.767127 271.79816 
L 219.029986 269.530311 
L 222.292846 267.051881 
L 225.555706 264.34536 
L 228.818566 261.392423 
L 232.081425 258.174107 
L 235.344285 254.671069 
L 238.607145 250.863957 
L 241.870005 246.733899 
L 245.132864 242.263153 
L 248.395724 237.435941 
L 251.658584 232.23947 
L 254.921444 226.665167 
L 258.184303 220.710106 
L 261.447163 214.378594 
L 264.710023 207.683827 
L 269.604312 197.015617 
L 274.498602 185.717149 
L 281.024322 170.019275 
L 290.812901 146.432517 
L 295.70719 135.287521 
L 298.97005 128.293864 
L 302.23291 121.728673 
L 305.49577 115.641982 
L 308.75863 110.066118 
L 312.021489 105.015811 
L 315.284349 100.489651 
L 318.547209 96.472499 
L 321.810069 92.93845 
L 325.072928 89.853932 
L 328.335788 87.180627 
L 331.598648 84.877993 
L 334.861508 82.905299 
L 338.124367 81.22314 
L 341.387227 79.794477 
L 344.650087 78.585274 
L 347.912947 77.56481 
L 352.807236 76.329144 
L 357.701526 75.378975 
L 362.595815 74.650915 
L 369.121535 73.940142 
L 375.647254 73.445292 
L 383.804404 73.033639 
L 395.224413 72.69841 
L 398.487273 72.636096 
L 398.487273 72.636096 
" clip-path="url(#p78ea51c2fb)" style="fill: none; stroke: #9467bd; stroke-width: 1.5; stroke-linecap: square"/>
   </g>
   <g id="line2d_73">
    <path d="M 73.832727 295.061996 
L 96.672746 294.673635 
L 112.987044 294.194341 
L 126.038483 293.614664 
L 137.458492 292.897967 
L 147.247072 292.069098 
L 155.404221 291.179172 
L 163.56137 290.057823 
L 170.08709 288.954311 
L 176.61281 287.627013 
L 183.138529 286.03089 
L 188.032819 284.625365 
L 192.927108 283.012092 
L 197.821398 281.160955 
L 202.715688 279.037772 
L 207.609977 276.603903 
L 212.504267 273.815911 
L 215.767127 271.736784 
L 219.029986 269.463202 
L 222.292846 266.978552 
L 225.555706 264.265296 
L 228.818566 261.305087 
L 232.081425 258.078944 
L 235.344285 254.567516 
L 238.607145 250.751452 
L 241.870005 246.611895 
L 245.132864 242.131143 
L 248.395724 237.293476 
L 251.658584 232.086192 
L 254.921444 226.500845 
L 258.184303 220.534676 
L 261.447163 214.192204 
L 264.710023 207.486882 
L 269.604312 196.804257 
L 274.498602 185.494091 
L 281.024322 169.786828 
L 290.812901 146.203228 
L 295.70719 135.067874 
L 298.97005 128.083192 
L 302.23291 121.528583 
L 305.49577 115.453641 
L 308.75863 109.890232 
L 312.021489 104.852648 
L 315.284349 100.339083 
L 318.547209 96.334077 
L 321.810069 92.811482 
L 325.072928 89.737559 
L 328.335788 87.073892 
L 331.598648 84.779905 
L 334.861508 82.814876 
L 338.124367 81.139442 
L 341.387227 79.716628 
L 344.650087 78.512474 
L 347.912947 77.496343 
L 352.807236 76.26601 
L 357.701526 75.320009 
L 362.595815 74.595181 
L 369.121535 73.887596 
L 375.647254 73.394984 
L 383.804404 72.985206 
L 395.224413 72.651511 
L 398.487273 72.589483 
L 398.487273 72.589483 
" clip-path="url(#p78ea51c2fb)" style="fill: none; stroke: #8c564b; stroke-width: 1.5; stroke-linecap: square"/>
   </g>
   <g id="line2d_74">
    <path d="M 73.832727 295.061012 
L 96.672746 294.671756 
L 112.987044 294.191356 
L 126.038483 293.61034 
L 137.458492 292.89199 
L 147.247072 292.061209 
L 155.404221 291.169231 
L 163.56137 290.045297 
L 170.08709 288.939244 
L 176.61281 287.608891 
L 183.138529 286.009099 
L 188.032819 284.600349 
L 192.927108 282.983381 
L 197.821398 281.128015 
L 202.715688 278.999995 
L 207.609977 276.560607 
L 212.504267 273.766328 
L 215.767127 271.682541 
L 219.029986 269.403893 
L 222.292846 266.913746 
L 225.555706 264.194539 
L 228.818566 261.227906 
L 232.081425 257.994849 
L 235.344285 254.47601 
L 238.607145 250.65204 
L 241.870005 246.504096 
L 245.132864 242.01451 
L 248.395724 237.167614 
L 251.658584 231.950789 
L 254.921444 226.3557 
L 258.184303 220.379737 
L 261.447163 214.027607 
L 264.710023 207.312989 
L 269.604312 196.617686 
L 274.498602 185.297254 
L 281.024322 169.581805 
L 290.812901 146.001158 
L 295.70719 134.874385 
L 298.97005 127.897661 
L 302.23291 121.352419 
L 305.49577 115.287863 
L 308.75863 109.735453 
L 312.021489 104.709093 
L 315.284349 100.206633 
L 318.547209 96.21233 
L 321.810069 92.699821 
L 325.072928 89.635224 
L 328.335788 86.980039 
L 331.598648 84.693659 
L 334.861508 82.73537 
L 338.124367 81.065848 
L 341.387227 79.648175 
L 344.650087 78.448459 
L 347.912947 77.436135 
L 352.807236 76.21049 
L 357.701526 75.26815 
L 362.595815 74.54616 
L 369.121535 73.841375 
L 377.278684 73.253543 
L 387.067264 72.824986 
L 398.487273 72.548473 
L 398.487273 72.548473 
" clip-path="url(#p78ea51c2fb)" style="fill: none; stroke: #e377c2; stroke-width: 1.5; stroke-linecap: square"/>
   </g>
   <g id="line2d_75">
    <path d="M 73.832727 295.060137 
L 96.672746 294.670082 
L 112.987044 294.188698 
L 126.038483 293.606492 
L 137.458492 292.886669 
L 147.247072 292.054186 
L 155.404221 291.160381 
L 163.56137 290.034146 
L 170.08709 288.92583 
L 176.61281 287.592758 
L 183.138529 285.989701 
L 188.032819 284.578079 
L 192.927108 282.957823 
L 197.821398 281.098691 
L 202.715688 278.966367 
L 207.609977 276.522066 
L 212.504267 273.722191 
L 215.767127 271.634256 
L 219.029986 269.351099 
L 222.292846 266.85606 
L 225.555706 264.131557 
L 228.818566 261.159206 
L 232.081425 257.919998 
L 235.344285 254.394565 
L 238.607145 250.563561 
L 241.870005 246.408158 
L 245.132864 241.910714 
L 248.395724 237.055613 
L 251.658584 231.830306 
L 254.921444 226.22656 
L 258.184303 220.241897 
L 261.447163 213.881192 
L 264.710023 207.158325 
L 269.604312 196.451784 
L 274.498602 185.122273 
L 281.024322 169.399625 
L 290.812901 145.821734 
L 295.70719 134.702646 
L 298.97005 127.733026 
L 302.23291 121.196133 
L 305.49577 115.140823 
L 308.75863 109.598197 
L 312.021489 104.581813 
L 315.284349 100.089217 
L 318.547209 96.104416 
L 321.810069 92.600858 
L 325.072928 89.544533 
L 328.335788 86.896869 
L 331.598648 84.617231 
L 334.861508 82.664916 
L 338.124367 81.000633 
L 341.387227 79.587515 
L 344.650087 78.39173 
L 347.912947 77.382778 
L 352.807236 76.161283 
L 357.701526 75.222184 
L 362.595815 74.502709 
L 369.121535 73.800403 
L 377.278684 73.214657 
L 387.067264 72.787632 
L 398.487273 72.512112 
L 398.487273 72.512112 
" clip-path="url(#p78ea51c2fb)" style="fill: none; stroke: #7f7f7f; stroke-width: 1.5; stroke-linecap: square"/>
   </g>
   <g id="line2d_76">
    <path d="M 73.832727 295.059353 
L 96.672746 294.668583 
L 112.987044 294.186316 
L 126.038483 293.603043 
L 137.458492 292.881902 
L 147.247072 292.047894 
L 155.404221 291.152452 
L 163.56137 290.024155 
L 170.08709 288.913812 
L 176.61281 287.578304 
L 183.138529 285.972321 
L 188.032819 284.558127 
L 192.927108 282.934924 
L 197.821398 281.072419 
L 202.715688 278.936239 
L 207.609977 276.487536 
L 212.504267 273.682648 
L 215.767127 271.590997 
L 219.029986 269.303801 
L 222.292846 266.80438 
L 225.555706 264.075135 
L 228.818566 261.097663 
L 232.081425 257.852945 
L 235.344285 254.321608 
L 238.607145 250.484306 
L 241.870005 246.322224 
L 245.132864 241.817747 
L 248.395724 236.955302 
L 251.658584 231.722406 
L 254.921444 226.110916 
L 258.184303 220.118474 
L 261.447163 213.750103 
L 264.710023 207.019868 
L 269.604312 196.303298 
L 274.498602 184.965699 
L 282.655751 165.259168 
L 290.812901 145.661351 
L 295.70719 134.549184 
L 298.97005 127.585946 
L 302.23291 121.05654 
L 305.49577 115.009515 
L 308.75863 109.475648 
L 312.021489 104.468189 
L 315.284349 99.984413 
L 318.547209 96.008104 
L 321.810069 92.512542 
L 325.072928 89.463604 
L 328.335788 86.822655 
L 331.598648 84.549037 
L 334.861508 82.602052 
L 338.124367 80.942443 
L 341.387227 79.533388 
L 344.650087 78.341109 
L 347.912947 77.335165 
L 352.807236 76.117371 
L 357.701526 75.181163 
L 362.595815 74.463928 
L 369.121535 73.763832 
L 377.278684 73.179946 
L 387.067264 72.754288 
L 398.487273 72.479654 
L 398.487273 72.479654 
" clip-path="url(#p78ea51c2fb)" style="fill: none; stroke: #bcbd22; stroke-width: 1.5; stroke-linecap: square"/>
   </g>
   <g id="line2d_77">
    <path d="M 73.832727 295.058646 
L 96.672746 294.667232 
L 112.987044 294.184171 
L 126.038483 293.599936 
L 137.458492 292.877606 
L 147.247072 292.042224 
L 155.404221 291.145307 
L 163.56137 290.015153 
L 170.08709 288.902983 
L 176.61281 287.565279 
L 183.138529 285.956661 
L 188.032819 284.540149 
L 192.927108 282.91429 
L 197.821398 281.048746 
L 202.715688 278.909092 
L 207.609977 276.456423 
L 212.504267 273.647019 
L 215.767127 271.55202 
L 219.029986 269.261185 
L 222.292846 266.757816 
L 225.555706 264.024298 
L 228.818566 261.042214 
L 232.081425 257.792533 
L 235.344285 254.255878 
L 238.607145 250.412903 
L 241.870005 246.244807 
L 245.132864 241.733998 
L 248.395724 236.864942 
L 251.658584 231.625215 
L 254.921444 226.006757 
L 258.184303 220.007318 
L 261.447163 213.632055 
L 264.710023 206.895198 
L 269.604312 196.169622 
L 274.498602 184.824772 
L 282.655751 165.111988 
L 290.812901 145.51713 
L 295.70719 134.41123 
L 298.97005 127.453754 
L 302.23291 120.931102 
L 305.49577 114.891543 
L 308.75863 109.365562 
L 312.021489 104.366136 
L 315.284349 99.890293 
L 318.547209 95.921619 
L 321.810069 92.433244 
L 325.072928 89.390944 
L 328.335788 86.756026 
L 331.598648 84.487812 
L 334.861508 82.545614 
L 338.124367 80.890201 
L 341.387227 79.484793 
L 344.650087 78.295661 
L 347.912947 77.292416 
L 352.807236 76.077943 
L 357.701526 75.144328 
L 362.595815 74.429104 
L 369.121535 73.730991 
L 377.278684 73.148774 
L 387.067264 72.72434 
L 398.487273 72.4505 
L 398.487273 72.4505 
" clip-path="url(#p78ea51c2fb)" style="fill: none; stroke: #17becf; stroke-width: 1.5; stroke-linecap: square"/>
   </g>
   <g id="line2d_78">
    <path d="M 73.832727 295.058006 
L 96.672746 294.666009 
L 112.987044 294.182227 
L 126.038483 293.597122 
L 137.458492 292.873715 
L 147.247072 292.037089 
L 155.404221 291.138836 
L 163.56137 290.006999 
L 170.08709 288.893175 
L 176.61281 287.553483 
L 183.138529 285.942476 
L 188.032819 284.523865 
L 192.927108 282.895601 
L 197.821398 281.027305 
L 202.715688 278.884503 
L 207.609977 276.428243 
L 212.504267 273.614748 
L 215.767127 271.516718 
L 219.029986 269.222588 
L 222.292846 266.715644 
L 225.555706 263.978256 
L 228.818566 260.991995 
L 232.081425 257.737821 
L 235.344285 254.196351 
L 238.607145 250.348242 
L 241.870005 246.174702 
L 245.132864 241.658161 
L 248.395724 236.783122 
L 251.658584 231.537216 
L 254.921444 225.912454 
L 258.184303 219.906686 
L 261.447163 213.525193 
L 264.710023 206.782352 
L 269.604312 196.048646 
L 274.498602 184.69726 
L 282.655751 164.97887 
L 290.812901 145.386747 
L 295.70719 134.286547 
L 298.97005 127.3343 
L 302.23291 120.81777 
L 305.49577 114.784973 
L 308.75863 109.266132 
L 312.021489 104.273971 
L 315.284349 99.805303 
L 318.547209 95.84353 
L 321.810069 92.361649 
L 325.072928 89.325345 
L 328.335788 86.695875 
L 331.598648 84.432542 
L 334.861508 82.494665 
L 338.124367 80.84304 
L 341.387227 79.440923 
L 344.650087 78.254631 
L 347.912947 77.253822 
L 352.807236 76.042345 
L 357.701526 75.111071 
L 362.595815 74.397661 
L 369.121535 73.701336 
L 377.278684 73.120624 
L 387.067264 72.697295 
L 398.487273 72.424172 
L 398.487273 72.424172 
" clip-path="url(#p78ea51c2fb)" style="fill: none; stroke: #1f77b4; stroke-width: 1.5; stroke-linecap: square"/>
   </g>
   <g id="line2d_79">
    <path d="M 73.832727 295.057424 
L 96.672746 294.664896 
L 112.987044 294.180458 
L 126.038483 293.594561 
L 137.458492 292.870175 
L 147.247072 292.032415 
L 155.404221 291.132947 
L 163.56137 289.999579 
L 170.08709 288.884249 
L 176.61281 287.542748 
L 183.138529 285.929569 
L 188.032819 284.509047 
L 192.927108 282.878595 
L 197.821398 281.007794 
L 202.715688 278.862129 
L 207.609977 276.402601 
L 212.504267 273.585384 
L 215.767127 271.484594 
L 219.029986 269.187466 
L 222.292846 266.67727 
L 225.555706 263.936361 
L 228.818566 260.946301 
L 232.081425 257.68804 
L 235.344285 254.14219 
L 238.607145 250.28941 
L 241.870005 246.110918 
L 245.132864 241.589165 
L 248.395724 236.708687 
L 251.658584 231.457162 
L 254.921444 225.826672 
L 258.184303 219.815153 
L 261.447163 213.428 
L 264.710023 206.679726 
L 269.604312 195.938642 
L 274.498602 184.581333 
L 282.655751 164.85789 
L 290.812901 145.268302 
L 295.70719 134.173307 
L 298.97005 127.225827 
L 302.23291 120.714873 
L 305.49577 114.688228 
L 308.75863 109.17588 
L 312.021489 104.190325 
L 315.284349 99.728176 
L 318.547209 95.772672 
L 321.810069 92.296688 
L 325.072928 89.265827 
L 328.335788 86.641302 
L 331.598648 84.382397 
L 334.861508 82.448441 
L 338.124367 80.800252 
L 341.387227 79.401121 
L 344.650087 78.217406 
L 347.912947 77.218805 
L 352.807236 76.010046 
L 357.701526 75.080893 
L 362.595815 74.369128 
L 369.121535 73.674425 
L 377.278684 73.095077 
L 387.067264 72.672751 
L 398.487273 72.400277 
L 398.487273 72.400277 
" clip-path="url(#p78ea51c2fb)" style="fill: none; stroke: #ff7f0e; stroke-width: 1.5; stroke-linecap: square"/>
   </g>
   <g id="line2d_80">
    <path d="M 73.832727 295.056891 
L 96.672746 294.663878 
L 112.987044 294.178842 
L 126.038483 293.59222 
L 137.458492 292.866939 
L 147.247072 292.028145 
L 155.404221 291.127565 
L 163.56137 289.992798 
L 170.08709 288.876092 
L 176.61281 287.532938 
L 183.138529 285.917773 
L 188.032819 284.495506 
L 192.927108 282.863054 
L 197.821398 280.989963 
L 202.715688 278.841682 
L 207.609977 276.379168 
L 212.504267 273.558549 
L 215.767127 271.455239 
L 219.029986 269.155371 
L 222.292846 266.642203 
L 225.555706 263.898078 
L 228.818566 260.904547 
L 232.081425 257.64255 
L 235.344285 254.092699 
L 238.607145 250.235653 
L 241.870005 246.052639 
L 245.132864 241.526125 
L 248.395724 236.640679 
L 251.658584 231.384024 
L 254.921444 225.748304 
L 258.184303 219.731537 
L 261.447163 213.33922 
L 264.710023 206.585991 
L 269.604312 195.838182 
L 274.498602 184.475482 
L 282.655751 164.747461 
L 290.812901 145.160225 
L 295.70719 134.070004 
L 298.97005 127.126888 
L 302.23291 120.621032 
L 305.49577 114.600011 
L 308.75863 109.093593 
L 312.021489 104.114069 
L 315.284349 99.657868 
L 318.547209 95.708083 
L 321.810069 92.237478 
L 325.072928 89.211582 
L 328.335788 86.591564 
L 331.598648 84.336697 
L 334.861508 82.406314 
L 338.124367 80.761256 
L 341.387227 79.364847 
L 344.650087 78.183478 
L 347.912947 77.18689 
L 352.807236 75.980606 
L 357.701526 75.053387 
L 362.595815 74.34312 
L 369.121535 73.649894 
L 377.278684 73.071789 
L 387.067264 72.650375 
L 398.487273 72.378493 
L 398.487273 72.378493 
" clip-path="url(#p78ea51c2fb)" style="fill: none; stroke: #2ca02c; stroke-width: 1.5; stroke-linecap: square"/>
   </g>
   <g id="line2d_81">
    <path d="M 73.832727 295.056403 
L 96.672746 294.662945 
L 112.987044 294.177359 
L 126.038483 293.590073 
L 137.458492 292.863971 
L 147.247072 292.024227 
L 155.404221 291.122628 
L 163.56137 289.986577 
L 170.08709 288.868609 
L 176.61281 287.523938 
L 183.138529 285.906951 
L 188.032819 284.483083 
L 192.927108 282.848796 
L 197.821398 280.973605 
L 202.715688 278.822924 
L 207.609977 276.35767 
L 212.504267 273.533931 
L 215.767127 271.428309 
L 219.029986 269.125928 
L 222.292846 266.610034 
L 225.555706 263.862959 
L 228.818566 260.866243 
L 232.081425 257.600821 
L 235.344285 254.0473 
L 238.607145 250.186341 
L 241.870005 245.99918 
L 245.132864 241.468302 
L 248.395724 236.578301 
L 251.658584 231.316944 
L 254.921444 225.67643 
L 258.184303 219.654854 
L 261.447163 213.257807 
L 264.710023 206.500039 
L 269.604312 195.746076 
L 274.498602 184.378448 
L 282.655751 164.64626 
L 290.812901 145.061215 
L 295.70719 133.975386 
L 298.97005 127.036278 
L 302.23291 120.535103 
L 305.49577 114.519241 
L 308.75863 109.01826 
L 312.021489 104.044264 
L 315.284349 99.593514 
L 318.547209 95.648969 
L 321.810069 92.18329 
L 325.072928 89.161938 
L 328.335788 86.546047 
L 331.598648 84.294875 
L 334.861508 82.367763 
L 338.124367 80.725571 
L 341.387227 79.33165 
L 344.650087 78.152429 
L 347.912947 77.157682 
L 352.807236 75.953663 
L 357.701526 75.028212 
L 362.595815 74.319315 
L 369.121535 73.62744 
L 377.278684 73.050473 
L 387.067264 72.629893 
L 398.487273 72.358552 
L 398.487273 72.358552 
" clip-path="url(#p78ea51c2fb)" style="fill: none; stroke: #d62728; stroke-width: 1.5; stroke-linecap: square"/>
   </g>
   <g id="line2d_82">
    <path d="M 73.832727 295.055954 
L 96.672746 294.662085 
L 112.987044 294.175994 
L 126.038483 293.588096 
L 137.458492 292.861238 
L 147.247072 292.020619 
L 155.404221 291.118082 
L 163.56137 289.98085 
L 170.08709 288.86172 
L 176.61281 287.515652 
L 183.138529 285.896988 
L 188.032819 284.471645 
L 192.927108 282.835669 
L 197.821398 280.958545 
L 202.715688 278.805653 
L 207.609977 276.337877 
L 212.504267 273.511267 
L 215.767127 271.403515 
L 219.029986 269.098821 
L 222.292846 266.580417 
L 225.555706 263.830626 
L 228.818566 260.830979 
L 232.081425 257.562404 
L 235.344285 254.005506 
L 238.607145 250.140946 
L 241.870005 245.949968 
L 245.132864 241.415073 
L 248.395724 236.520882 
L 251.658584 231.255198 
L 254.921444 225.610275 
L 258.184303 219.584276 
L 261.447163 213.182879 
L 264.710023 206.42094 
L 269.604312 195.661323 
L 274.498602 184.289173 
L 282.655751 164.553177 
L 290.812901 144.970174 
L 295.70719 133.888402 
L 298.97005 126.95299 
L 302.23291 120.456126 
L 305.49577 114.445013 
L 308.75863 108.949037 
L 312.021489 103.980126 
L 315.284349 99.534389 
L 318.547209 95.59466 
L 321.810069 92.133509 
L 325.072928 89.116335 
L 328.335788 86.504235 
L 331.598648 84.256458 
L 334.861508 82.33235 
L 338.124367 80.69279 
L 341.387227 79.301157 
L 344.650087 78.123907 
L 347.912947 77.130851 
L 352.807236 75.928912 
L 357.701526 75.005084 
L 362.595815 74.297446 
L 369.121535 73.606811 
L 377.278684 73.030887 
L 387.067264 72.611074 
L 398.487273 72.34023 
L 398.487273 72.34023 
" clip-path="url(#p78ea51c2fb)" style="fill: none; stroke: #9467bd; stroke-width: 1.5; stroke-linecap: square"/>
   </g>
   <g id="line2d_83">
    <path d="M 73.832727 295.055538 
L 96.672746 294.661291 
L 112.987044 294.174733 
L 126.038483 293.58627 
L 137.458492 292.858713 
L 147.247072 292.017287 
L 155.404221 291.113883 
L 163.56137 289.975559 
L 170.08709 288.855355 
L 176.61281 287.507997 
L 183.138529 285.887784 
L 188.032819 284.461079 
L 192.927108 282.823543 
L 197.821398 280.944634 
L 202.715688 278.789701 
L 207.609977 276.319595 
L 212.504267 273.490331 
L 215.767127 271.380614 
L 219.029986 269.073782 
L 222.292846 266.55306 
L 225.555706 263.800761 
L 228.818566 260.798407 
L 232.081425 257.526921 
L 235.344285 253.966903 
L 238.607145 250.099018 
L 241.870005 245.904515 
L 245.132864 241.365912 
L 248.395724 236.467852 
L 251.658584 231.198175 
L 254.921444 225.549182 
L 258.184303 219.519101 
L 261.447163 213.113692 
L 264.710023 206.347906 
L 269.604312 195.583078 
L 274.498602 184.206763 
L 282.655751 164.467274 
L 290.812901 144.88618 
L 295.70719 133.808163 
L 298.97005 126.876169 
L 302.23291 120.38329 
L 305.49577 114.376564 
L 308.75863 108.885209 
L 312.021489 103.920991 
L 315.284349 99.47988 
L 318.547209 95.544595 
L 321.810069 92.087619 
L 325.072928 89.074297 
L 328.335788 86.465693 
L 331.598648 84.221046 
L 334.861508 82.299708 
L 338.124367 80.662574 
L 341.387227 79.273048 
L 344.650087 78.097616 
L 347.912947 77.106118 
L 352.807236 75.906096 
L 357.701526 74.983763 
L 362.595815 74.277284 
L 369.121535 73.587793 
L 377.278684 73.012831 
L 387.067264 72.593724 
L 398.487273 72.323337 
L 398.487273 72.323337 
" clip-path="url(#p78ea51c2fb)" style="fill: none; stroke: #8c564b; stroke-width: 1.5; stroke-linecap: square"/>
   </g>
   <g id="line2d_84">
    <path d="M 73.832727 295.055154 
L 96.672746 294.660556 
L 112.987044 294.173565 
L 126.038483 293.584578 
L 137.458492 292.856374 
L 147.247072 292.0142 
L 155.404221 291.109993 
L 163.56137 289.970657 
L 170.08709 288.849459 
L 176.61281 287.500906 
L 183.138529 285.879257 
L 188.032819 284.45129 
L 192.927108 282.812309 
L 197.821398 280.931745 
L 202.715688 278.77492 
L 207.609977 276.302656 
L 212.504267 273.470934 
L 215.767127 271.359395 
L 219.029986 269.050584 
L 222.292846 266.527715 
L 225.555706 263.773092 
L 228.818566 260.76823 
L 232.081425 257.494047 
L 235.344285 253.931139 
L 238.607145 250.060174 
L 241.870005 245.862408 
L 245.132864 241.320369 
L 248.395724 236.418727 
L 251.658584 231.145352 
L 254.921444 225.492592 
L 258.184303 219.458733 
L 261.447163 213.04961 
L 264.710023 206.280265 
L 269.604312 195.510617 
L 274.498602 184.130454 
L 282.655751 164.387749 
L 289.181471 148.6421 
L 294.075761 137.343911 
L 297.33862 130.218154 
L 300.60148 123.5022 
L 303.86434 117.251522 
L 307.1272 111.504137 
L 310.390059 106.280248 
L 313.652919 101.583312 
L 316.915779 97.402195 
L 320.178639 93.714018 
L 323.441498 90.48725 
L 326.704358 87.68472 
L 329.967218 85.266287 
L 333.230078 83.191033 
L 336.492937 81.418946 
L 339.755797 79.9121 
L 343.018657 78.635415 
L 346.281517 77.557063 
L 351.175806 76.250142 
L 356.070096 75.244314 
L 360.964386 74.473089 
L 367.490105 73.719746 
L 374.015825 73.195004 
L 382.172974 72.758327 
L 393.592983 72.402611 
L 398.487273 72.307712 
L 398.487273 72.307712 
" clip-path="url(#p78ea51c2fb)" style="fill: none; stroke: #e377c2; stroke-width: 1.5; stroke-linecap: square"/>
   </g>
   <g id="line2d_85">
    <path d="M 73.832727 295.054796 
L 96.672746 294.659872 
L 112.987044 294.172479 
L 126.038483 293.583006 
L 137.458492 292.854201 
L 147.247072 292.011331 
L 155.404221 291.106378 
L 163.56137 289.966103 
L 170.08709 288.84398 
L 176.61281 287.494317 
L 183.138529 285.871335 
L 188.032819 284.442195 
L 192.927108 282.80187 
L 197.821398 280.919769 
L 202.715688 278.761187 
L 207.609977 276.286918 
L 212.504267 273.452913 
L 215.767127 271.339681 
L 219.029986 269.029031 
L 222.292846 266.504167 
L 225.555706 263.747385 
L 228.818566 260.740194 
L 232.081425 257.463505 
L 235.344285 253.897913 
L 238.607145 250.024087 
L 241.870005 245.823289 
L 245.132864 241.278061 
L 248.395724 236.373091 
L 251.658584 231.096282 
L 254.921444 225.440024 
L 258.184303 219.402658 
L 261.447163 212.990088 
L 264.710023 206.217441 
L 269.604312 195.443323 
L 274.498602 184.059595 
L 282.655751 164.313919 
L 289.181471 148.569224 
L 294.075761 137.273754 
L 297.33862 130.150655 
L 300.60148 123.437908 
L 303.86434 117.190854 
L 307.1272 111.447362 
L 310.390059 106.227494 
L 313.652919 101.534576 
L 316.915779 97.357366 
L 320.178639 93.672897 
L 323.441498 90.44958 
L 326.704358 87.650205 
L 329.967218 85.234614 
L 333.230078 83.161889 
L 336.492937 81.392027 
L 339.755797 79.887122 
L 343.018657 78.612116 
L 346.281517 77.535209 
L 351.175806 76.230068 
L 356.070096 75.225633 
L 360.964386 74.455492 
L 367.490105 73.703217 
L 374.015825 73.179227 
L 382.172974 72.743179 
L 393.592983 72.387979 
L 398.487273 72.293218 
L 398.487273 72.293218 
" clip-path="url(#p78ea51c2fb)" style="fill: none; stroke: #7f7f7f; stroke-width: 1.5; stroke-linecap: square"/>
   </g>
   <g id="line2d_86">
    <path d="M 73.832727 295.054463 
L 96.672746 294.659236 
L 112.987044 294.171468 
L 126.038483 293.581542 
L 137.458492 292.852176 
L 147.247072 292.008659 
L 155.404221 291.103011 
L 163.56137 289.96186 
L 170.08709 288.838877 
L 176.61281 287.488178 
L 183.138529 285.863954 
L 188.032819 284.433723 
L 192.927108 282.792146 
L 197.821398 280.908613 
L 202.715688 278.748395 
L 207.609977 276.272257 
L 212.504267 273.436125 
L 215.767127 271.321317 
L 219.029986 269.008953 
L 222.292846 266.482231 
L 225.555706 263.723439 
L 228.818566 260.714077 
L 232.081425 257.435055 
L 235.344285 253.866964 
L 238.607145 249.990473 
L 241.870005 245.786851 
L 245.132864 241.238653 
L 248.395724 236.330585 
L 251.658584 231.050579 
L 254.921444 225.391064 
L 258.184303 219.350434 
L 261.447163 212.934657 
L 264.710023 206.158936 
L 269.604312 195.380661 
L 274.498602 183.99362 
L 282.655751 164.245192 
L 289.181471 148.501397 
L 294.075761 137.208468 
L 297.33862 130.087848 
L 300.60148 123.378091 
L 303.86434 117.134412 
L 307.1272 111.394547 
L 310.390059 106.178423 
L 313.652919 101.489245 
L 316.915779 97.315671 
L 320.178639 93.634653 
L 323.441498 90.414545 
L 326.704358 87.618106 
L 329.967218 85.205159 
L 333.230078 83.134786 
L 336.492937 81.366994 
L 339.755797 79.863893 
L 343.018657 78.590449 
L 346.281517 77.514884 
L 351.175806 76.211399 
L 356.070096 75.20826 
L 360.964386 74.439125 
L 367.490105 73.687844 
L 374.015825 73.164552 
L 382.172974 72.729089 
L 393.592983 72.374369 
L 398.487273 72.279736 
L 398.487273 72.279736 
" clip-path="url(#p78ea51c2fb)" style="fill: none; stroke: #bcbd22; stroke-width: 1.5; stroke-linecap: square"/>
   </g>
   <g id="line2d_87">
    <path d="M 73.832727 295.054152 
L 96.672746 294.658641 
L 112.987044 294.170523 
L 126.038483 293.580174 
L 137.458492 292.850285 
L 147.247072 292.006164 
L 155.404221 291.099866 
L 163.56137 289.957898 
L 170.08709 288.834111 
L 176.61281 287.482447 
L 183.138529 285.857062 
L 188.032819 284.425811 
L 192.927108 282.783066 
L 197.821398 280.898196 
L 202.715688 278.736449 
L 207.609977 276.258567 
L 210.872837 274.409444 
L 214.135697 272.386006 
L 217.398556 270.172925 
L 220.661416 267.753875 
L 223.924276 265.11158 
L 227.187136 262.227906 
L 230.449995 259.084026 
L 233.712855 255.660645 
L 236.975715 251.938336 
L 240.238575 247.897996 
L 243.501434 243.521449 
L 246.764294 238.792218 
L 250.027154 233.6965 
L 253.290014 228.224332 
L 256.552873 222.370977 
L 259.815733 216.138461 
L 263.078593 209.537231 
L 267.972883 198.99202 
L 272.867172 187.784976 
L 279.392892 172.138836 
L 289.181471 148.438114 
L 294.075761 137.147562 
L 297.33862 130.02926 
L 300.60148 123.322297 
L 303.86434 117.081771 
L 307.1272 111.345291 
L 310.390059 106.132662 
L 313.652919 101.446975 
L 316.915779 97.276792 
L 320.178639 93.598993 
L 323.441498 90.38188 
L 326.704358 87.588177 
L 329.967218 85.177696 
L 333.230078 83.109516 
L 336.492937 81.343654 
L 339.755797 79.842236 
L 343.018657 78.570247 
L 346.281517 77.495933 
L 351.175806 76.193992 
L 356.070096 75.19206 
L 360.964386 74.423863 
L 367.490105 73.673509 
L 374.015825 73.150868 
L 382.172974 72.715951 
L 393.592983 72.361677 
L 398.487273 72.267164 
L 398.487273 72.267164 
" clip-path="url(#p78ea51c2fb)" style="fill: none; stroke: #17becf; stroke-width: 1.5; stroke-linecap: square"/>
   </g>
   <g id="patch_3">
    <path d="M 57.6 307.584 
L 57.6 41.472 
" style="fill: none; stroke: #000000; stroke-width: 0.8; stroke-linejoin: miter; stroke-linecap: square"/>
   </g>
   <g id="patch_4">
    <path d="M 414.72 307.584 
L 414.72 41.472 
" style="fill: none; stroke: #000000; stroke-width: 0.8; stroke-linejoin: miter; stroke-linecap: square"/>
   </g>
   <g id="patch_5">
    <path d="M 57.6 307.584 
L 414.72 307.584 
" style="fill: none; stroke: #000000; stroke-width: 0.8; stroke-linejoin: miter; stroke-linecap: square"/>
   </g>
   <g id="patch_6">
    <path d="M 57.6 41.472 
L 414.72 41.472 
" style="fill: none; stroke: #000000; stroke-width: 0.8; stroke-linejoin: miter; stroke-linecap: square"/>
   </g>
   <g id="text_14">
    <!-- Gain vs Frequency -->
    <g transform="translate(180.8775 35.472) scale(0.12 -0.12)">
     <defs>
      <path id="DejaVuSans-59" d="M 191 3500 
L 800 3500 
L 1894 563 
L 2988 3500 
L 3597 3500 
L 2284 0 
L 1503 0 
L 191 3500 
z
" transform="scale(0.015625)"/>
      <path id="DejaVuSans-56" d="M 2834 3397 
L 2834 2853 
Q 2591 2978 2328 3040 
Q 2066 3103 1784 3103 
Q 1356 3103 1142 2972 
Q 928 2841 928 2578 
Q 928 2378 1081 2264 
Q 1234 2150 1697 2047 
L 1894 2003 
Q 2506 1872 2764 1633 
Q 3022 1394 3022 966 
Q 3022 478 2636 193 
Q 2250 -91 1575 -91 
Q 1294 -91 989 -36 
Q 684 19 347 128 
L 347 722 
Q 666 556 975 473 
Q 1284 391 1588 391 
Q 1994 391 2212 530 
Q 2431 669 2431 922 
Q 2431 1156 2273 1281 
Q 2116 1406 1581 1522 
L 1381 1569 
Q 847 1681 609 1914 
Q 372 2147 372 2553 
Q 372 3047 722 3315 
Q 1072 3584 1716 3584 
Q 2034 3584 2315 3537 
Q 2597 3491 2834 3397 
z
" transform="scale(0.015625)"/>
     </defs>
     <use xlink:href="#DejaVuSans-2a"/>
     <use xlink:href="#DejaVuSans-44" transform="translate(77.484375 0)"/>
     <use xlink:href="#DejaVuSans-4c" transform="translate(138.765625 0)"/>
     <use xlink:href="#DejaVuSans-51" transform="translate(166.546875 0)"/>
     <use xlink:href="#DejaVuSans-3" transform="translate(229.921875 0)"/>
     <use xlink:href="#DejaVuSans-59" transform="translate(261.703125 0)"/>
     <use xlink:href="#DejaVuSans-56" transform="translate(320.890625 0)"/>
     <use xlink:href="#DejaVuSans-3" transform="translate(372.984375 0)"/>
     <use xlink:href="#DejaVuSans-29" transform="translate(404.765625 0)"/>
     <use xlink:href="#DejaVuSans-55" transform="translate(455 0)"/>
     <use xlink:href="#DejaVuSans-48" transform="translate(493.90625 0)"/>
     <use xlink:href="#DejaVuSans-54" transform="translate(555.4375 0)"/>
     <use xlink:href="#DejaVuSans-58" transform="translate(618.921875 0)"/>
     <use xlink:href="#DejaVuSans-48" transform="translate(682.296875 0)"/>
     <use xlink:href="#DejaVuSans-51" transform="translate(743.828125 0)"/>
     <use xlink:href="#DejaVuSans-46" transform="translate(807.203125 0)"/>
     <use xlink:href="#DejaVuSans-5c" transform="translate(862.1875 0)"/>
    </g>
   </g>
  </g>
 </g>
 <defs>
  <clipPath id="p78ea51c2fb">
   <rect x="57.6" y="41.472" width="357.12" height="266.112"/>
  </clipPath>
 </defs>
</svg>
