<?xml version='1.0' encoding='UTF-8' standalone='no'?>
<svg width="418pt" viewBox="0 0 418 314" height="314pt" xmlns="http://www.w3.org/2000/svg" xmlns:xlink="http://www.w3.org/1999/xlink">
 <title>Figure 1</title>
 <desc>
Creator: GL2PS 1.4.2, (C) 1999-2020 C. Geuzaine
For: Octave
CreationDate: Tue Jun 23 06:02:43 2026
</desc>
 <defs/>
 <polygon fill="#ffffff" points="0,0 418,0 418,314 0,314"/>
 <g>
  <polygon fill="#ffffff" points="0,314 418,314 418,0 0,0" shape-rendering="crispEdges"/>
  <clipPath id="cp00418314">
   <polygon points="0,314 418,314 418,0 0,0"/>
  </clipPath>
  <g clip-path="url(#cp00418314)">
   <polygon fill="#ffffff" shape-rendering="crispEdges" points="54.4343,279.499 378.946,279.499 378.946,23.5533 54.4343,23.5533"/>
   <polyline stroke-width="0.5" stroke-linecap="butt" stroke="#262626" stroke-linejoin="miter" fill="none" points="54.4343,279.499 54.4343,276.255"/>
   <polyline stroke-width="0.5" stroke-linecap="butt" stroke="#262626" stroke-linejoin="miter" fill="none" points="54.4343,23.5533 54.4343,26.7977"/>
   <polyline stroke-width="0.5" stroke-linecap="butt" stroke="#262626" stroke-linejoin="miter" fill="none" points="100.793,279.499 100.793,276.255"/>
   <polyline stroke-width="0.5" stroke-linecap="butt" stroke="#262626" stroke-linejoin="miter" fill="none" points="100.793,23.5533 100.793,26.7977"/>
   <polyline stroke-width="0.5" stroke-linecap="butt" stroke="#262626" stroke-linejoin="miter" fill="none" points="147.152,279.499 147.152,276.255"/>
   <polyline stroke-width="0.5" stroke-linecap="butt" stroke="#262626" stroke-linejoin="miter" fill="none" points="147.152,23.5533 147.152,26.7977"/>
   <polyline stroke-width="0.5" stroke-linecap="butt" stroke="#262626" stroke-linejoin="miter" fill="none" points="193.511,279.499 193.511,276.255"/>
   <polyline stroke-width="0.5" stroke-linecap="butt" stroke="#262626" stroke-linejoin="miter" fill="none" points="193.511,23.5533 193.511,26.7977"/>
   <polyline stroke-width="0.5" stroke-linecap="butt" stroke="#262626" stroke-linejoin="miter" fill="none" points="239.87,279.499 239.87,276.255"/>
   <polyline stroke-width="0.5" stroke-linecap="butt" stroke="#262626" stroke-linejoin="miter" fill="none" points="239.87,23.5533 239.87,26.7977"/>
   <polyline stroke-width="0.5" stroke-linecap="butt" stroke="#262626" stroke-linejoin="miter" fill="none" points="286.229,279.499 286.229,276.255"/>
   <polyline stroke-width="0.5" stroke-linecap="butt" stroke="#262626" stroke-linejoin="miter" fill="none" points="286.229,23.5533 286.229,26.7977"/>
   <polyline stroke-width="0.5" stroke-linecap="butt" stroke="#262626" stroke-linejoin="miter" fill="none" points="332.587,279.499 332.587,276.255"/>
   <polyline stroke-width="0.5" stroke-linecap="butt" stroke="#262626" stroke-linejoin="miter" fill="none" points="332.587,23.5533 332.587,26.7977"/>
   <polyline stroke-width="0.5" stroke-linecap="butt" stroke="#262626" stroke-linejoin="miter" fill="none" points="378.946,279.499 378.946,276.255"/>
   <polyline stroke-width="0.5" stroke-linecap="butt" stroke="#262626" stroke-linejoin="miter" fill="none" points="378.946,23.5533 378.946,26.7977"/>
   <g font-size="10" font-family="FreeSans" xml:space="preserve" transform="translate(51.4343,294.998) rotate(-0,3,-8)" font-style="normal" font-weight="normal">
    <text x="0 " y="-0" fill="rgb(38,38,38)">0</text>
   </g>
   <g font-size="10" font-family="FreeSans" xml:space="preserve" transform="translate(91.7932,294.998) rotate(-0,9,-8)" font-style="normal" font-weight="normal">
    <text x="0 6 12 " y="-0" fill="rgb(38,38,38)">100</text>
   </g>
   <g font-size="10" font-family="FreeSans" xml:space="preserve" transform="translate(138.152,294.998) rotate(-0,9,-8)" font-style="normal" font-weight="normal">
    <text x="0 6 12 " y="-0" fill="rgb(38,38,38)">200</text>
   </g>
   <g font-size="10" font-family="FreeSans" xml:space="preserve" transform="translate(184.511,294.998) rotate(-0,9,-8)" font-style="normal" font-weight="normal">
    <text x="0 6 12 " y="-0" fill="rgb(38,38,38)">300</text>
   </g>
   <g font-size="10" font-family="FreeSans" xml:space="preserve" transform="translate(230.87,294.998) rotate(-0,9,-8)" font-style="normal" font-weight="normal">
    <text x="0 6 12 " y="-0" fill="rgb(38,38,38)">400</text>
   </g>
   <g font-size="10" font-family="FreeSans" xml:space="preserve" transform="translate(277.229,294.998) rotate(-0,9,-8)" font-style="normal" font-weight="normal">
    <text x="0 6 12 " y="-0" fill="rgb(38,38,38)">500</text>
   </g>
   <g font-size="10" font-family="FreeSans" xml:space="preserve" transform="translate(323.588,294.998) rotate(-0,9,-8)" font-style="normal" font-weight="normal">
    <text x="0 6 12 " y="-0" fill="rgb(38,38,38)">600</text>
   </g>
   <g font-size="10" font-family="FreeSans" xml:space="preserve" transform="translate(369.946,294.998) rotate(-0,9,-8)" font-style="normal" font-weight="normal">
    <text x="0 6 12 " y="-0" fill="rgb(38,38,38)">700</text>
   </g>
   <polyline stroke-width="0.5" stroke-linecap="butt" stroke="#262626" stroke-linejoin="miter" fill="none" points="54.4343,279.499 57.6745,279.499"/>
   <polyline stroke-width="0.5" stroke-linecap="butt" stroke="#262626" stroke-linejoin="miter" fill="none" points="378.946,279.499 375.706,279.499"/>
   <polyline stroke-width="0.5" stroke-linecap="butt" stroke="#262626" stroke-linejoin="miter" fill="none" points="54.4343,236.842 57.6745,236.842"/>
   <polyline stroke-width="0.5" stroke-linecap="butt" stroke="#262626" stroke-linejoin="miter" fill="none" points="378.946,236.842 375.706,236.842"/>
   <polyline stroke-width="0.5" stroke-linecap="butt" stroke="#262626" stroke-linejoin="miter" fill="none" points="54.4343,194.184 57.6745,194.184"/>
   <polyline stroke-width="0.5" stroke-linecap="butt" stroke="#262626" stroke-linejoin="miter" fill="none" points="378.946,194.184 375.706,194.184"/>
   <polyline stroke-width="0.5" stroke-linecap="butt" stroke="#262626" stroke-linejoin="miter" fill="none" points="54.4343,151.526 57.6745,151.526"/>
   <polyline stroke-width="0.5" stroke-linecap="butt" stroke="#262626" stroke-linejoin="miter" fill="none" points="378.946,151.526 375.706,151.526"/>
   <polyline stroke-width="0.5" stroke-linecap="butt" stroke="#262626" stroke-linejoin="miter" fill="none" points="54.4343,108.869 57.6745,108.869"/>
   <polyline stroke-width="0.5" stroke-linecap="butt" stroke="#262626" stroke-linejoin="miter" fill="none" points="378.946,108.869 375.706,108.869"/>
   <polyline stroke-width="0.5" stroke-linecap="butt" stroke="#262626" stroke-linejoin="miter" fill="none" points="54.4343,66.2109 57.6745,66.2109"/>
   <polyline stroke-width="0.5" stroke-linecap="butt" stroke="#262626" stroke-linejoin="miter" fill="none" points="378.946,66.2109 375.706,66.2109"/>
   <polyline stroke-width="0.5" stroke-linecap="butt" stroke="#262626" stroke-linejoin="miter" fill="none" points="54.4343,23.5533 57.6745,23.5533"/>
   <polyline stroke-width="0.5" stroke-linecap="butt" stroke="#262626" stroke-linejoin="miter" fill="none" points="378.946,23.5533 375.706,23.5533"/>
   <g font-size="10" font-family="FreeSans" xml:space="preserve" transform="translate(43.4418,283.499) rotate(-0,6,-4)" font-style="normal" font-weight="normal">
    <text x="0 " y="-0" fill="rgb(38,38,38)">0</text>
   </g>
   <g font-size="10" font-family="FreeSans" xml:space="preserve" transform="translate(43.4418,240.842) rotate(-0,6,-4)" font-style="normal" font-weight="normal">
    <text x="0 " y="-0" fill="rgb(38,38,38)">5</text>
   </g>
   <g font-size="10" font-family="FreeSans" xml:space="preserve" transform="translate(37.4418,198.184) rotate(-0,12,-4)" font-style="normal" font-weight="normal">
    <text x="0 6 " y="-0" fill="rgb(38,38,38)">10</text>
   </g>
   <g font-size="10" font-family="FreeSans" xml:space="preserve" transform="translate(37.4418,155.526) rotate(-0,12,-4)" font-style="normal" font-weight="normal">
    <text x="0 6 " y="-0" fill="rgb(38,38,38)">15</text>
   </g>
   <g font-size="10" font-family="FreeSans" xml:space="preserve" transform="translate(37.4418,112.869) rotate(-0,12,-4)" font-style="normal" font-weight="normal">
    <text x="0 6 " y="-0" fill="rgb(38,38,38)">20</text>
   </g>
   <g font-size="10" font-family="FreeSans" xml:space="preserve" transform="translate(37.4418,70.2109) rotate(-0,12,-4)" font-style="normal" font-weight="normal">
    <text x="0 6 " y="-0" fill="rgb(38,38,38)">25</text>
   </g>
   <g font-size="10" font-family="FreeSans" xml:space="preserve" transform="translate(37.4418,27.5533) rotate(-0,12,-4)" font-style="normal" font-weight="normal">
    <text x="0 6 " y="-0" fill="rgb(38,38,38)">30</text>
   </g>
   <polyline stroke-width="0.5" stroke-linecap="square" stroke="#262626" stroke-linejoin="miter" fill="none" points="54.4343,279.499 378.946,279.499" stroke-dasharray="16,0"/>
   <polyline stroke-width="0.5" stroke-linecap="square" stroke="#262626" stroke-linejoin="miter" fill="none" points="54.4343,23.5533 378.946,23.5533" stroke-dasharray="16,0"/>
   <polyline stroke-width="0.5" stroke-linecap="square" stroke="#262626" stroke-linejoin="miter" fill="none" points="54.4343,279.499 54.4343,23.5533" stroke-dasharray="16,0"/>
   <polyline stroke-width="0.5" stroke-linecap="square" stroke="#262626" stroke-linejoin="miter" fill="none" points="378.946,279.499 378.946,23.5533" stroke-dasharray="16,0"/>
   <polyline stroke-width="0.5" stroke-linecap="butt" stroke="#0071bc" stroke-linejoin="round" fill="none" points="54.8979,279.499 55.3615,278.646 55.8251,277.793 56.2886,276.94 56.7522,276.087 57.2158,275.233 57.6794,274.38 58.143,273.527 58.6066,272.674 59.0702,271.821 59.5338,270.968 59.9974,270.114 60.4609,269.261 60.9245,268.408 61.3881,267.555 61.8517,266.702 62.3153,265.849 62.7789,264.996 63.2425,264.142 63.7061,263.289 64.1696,262.436 64.6332,261.583 65.0968,260.73 65.5604,259.877 66.024,259.023 66.4876,258.17 66.9512,257.317 67.4148,256.464 67.8784,255.611 68.3419,254.758 68.8055,253.905 69.2691,253.051 69.7327,252.198 70.1963,251.345 70.6599,250.492 71.1235,249.639 71.5871,248.786 72.0507,247.932 72.5142,247.079 72.9778,246.226 73.4414,245.373 73.905,244.52 74.3686,243.667 74.8322,242.814 75.2958,241.96 75.7594,241.107 76.223,240.254 76.6865,239.401 77.1501,238.548 77.6137,237.695 78.0773,236.842 78.5409,235.988 79.0045,235.135 79.4681,234.282 79.9317,233.429 80.3953,232.576 80.8588,231.723 81.3224,230.869 81.786,230.016 82.2496,229.163 82.7132,228.31 83.1768,227.457 83.6404,226.604 84.104,225.751 84.5676,224.897 85.0312,224.044 85.4947,223.191 85.9583,222.338 86.4219,221.485 86.8855,220.632 87.3491,219.778 87.8127,218.925 88.2763,218.072 88.7399,217.219 89.2034,216.366 89.667,215.513 90.1306,214.66 90.5942,213.806 91.0578,212.953 91.5214,212.1 91.985,211.247 92.4486,210.394 92.9122,209.541 93.3757,208.687 93.8393,207.834 94.3029,206.981 94.7665,206.128 95.2301,205.275 95.6937,204.422 96.1573,203.569 96.6209,202.715 97.0844,201.862 97.548,201.009 98.0116,200.156 98.4752,199.303 98.9388,198.45 99.4024,197.596 99.866,196.743 100.33,195.89 100.793,195.037 101.257,194.184 101.72,193.331 102.184,192.478 102.648,191.624 103.111,190.771 103.575,189.918 104.038,189.065 104.502,188.212 104.965,187.359 105.429,186.505 105.893,185.652 106.356,184.799 106.82,183.946 107.283,183.093 107.747,182.24 108.211,181.387 108.674,180.533 109.138,179.68 109.601,178.827 110.065,177.974 110.529,177.121 110.992,176.268 111.456,175.415 111.919,174.561 112.383,173.708 112.846,172.855 113.31,172.002 113.774,171.149 114.237,170.296 114.701,169.442 115.164,168.589 115.628,167.736 116.092,166.883 116.555,166.03 117.019,165.177 117.482,164.324 117.946,163.47 118.41,162.617 118.873,161.764 119.337,160.911 119.8,160.058 120.264,159.205 120.727,158.351 121.191,157.498 121.655,156.645 122.118,155.792 122.582,154.939 123.045,154.086 123.509,153.233 123.973,152.379 124.436,151.526 124.9,150.673 125.363,149.82 125.827,148.967 126.291,148.114 126.754,147.26 127.218,146.407 127.681,145.554 128.145,144.701 128.608,143.848 129.072,142.995 129.536,142.142 129.999,141.288 130.463,140.435 130.926,139.582 131.39,138.729 131.854,137.876 132.317,137.023 132.781,136.169 133.244,135.316 133.708,134.463 134.172,133.61 134.635,132.757 135.099,131.904 135.562,131.051 136.026,130.197 136.489,129.344 136.953,128.491 137.417,127.638 137.88,126.785 138.344,125.932 138.807,125.078 139.271,124.225 139.735,123.372 140.198,122.519 140.662,121.666 141.125,120.813 141.589,119.96 142.053,119.106 142.516,118.253 142.98,117.4 143.443,116.547 143.907,115.694 144.37,114.841 144.834,113.987 145.298,113.134 145.761,112.281 146.225,111.428 146.688,110.575 147.152,109.722 147.616,108.869 148.079,108.015 148.543,107.162 149.006,106.309 149.47,105.456 149.934,104.603 150.397,103.75 150.861,102.896 151.324,102.043 151.788,101.19 152.251,100.337 152.715,99.4839 153.179,98.6307 153.642,97.7776 154.106,96.9244 154.569,96.0713 155.033,95.2181 155.497,94.365 155.96,93.5118 156.424,92.6587 156.887,91.8055 157.351,90.9524 157.815,90.0992 158.278,89.2461 158.742,88.3929 159.205,87.5397 159.669,86.6866 160.133,85.8335 160.596,84.9803 161.06,84.1271 161.523,83.274 161.987,82.4208 162.45,81.5677 162.914,80.7145 163.378,79.8614 163.841,79.0082 164.305,78.1551 164.768,77.3019 165.232,76.4488 165.696,75.5956 166.159,74.7425 166.623,73.8893 167.086,73.0361 167.55,72.183 168.014,71.3298 168.477,70.4767 168.941,69.6235 169.404,68.7704 169.868,67.9172 170.331,67.0641 170.795,66.2109 171.259,65.3578 171.722,64.5046 172.186,63.6515 172.649,62.7983 173.113,61.9452 173.577,61.092 174.04,60.2388 174.504,59.3857 174.967,58.5325 175.431,57.6794 175.895,56.8262 176.358,55.9731 176.822,55.1199 177.285,54.2668 177.749,53.4136 178.212,52.5605 178.676,51.7073 179.14,50.8542 179.603,50.001 180.067,49.1479 180.53,48.2947 180.994,47.4416 181.458,46.5884 181.921,45.7353 182.385,44.8821 182.848,44.029 183.312,43.1758 183.776,42.3227 184.239,41.4695 184.703,40.6163 185.166,39.7632 185.63,38.91 186.093,38.0569 186.557,37.2037 187.021,36.3506 187.484,35.4974 187.948,34.6443 188.411,33.7911 188.875,32.938 189.339,32.0848 189.802,31.2317 190.266,30.3785 190.729,29.5254 191.193,28.6722 191.657,27.819 192.12,26.9659 192.584,26.1127 193.047,25.2596 193.511,24.4064 193.974,23.5533 194.438,279.499 194.902,279.491 195.365,279.482 195.829,279.474 196.292,279.465 196.756,279.457 197.22,279.448 197.683,279.44 198.147,279.431 198.61,279.423 199.074,279.414 199.538,279.406 200.001,279.397 200.465,279.389 200.928,279.381 201.392,279.372 201.855,279.364 202.319,279.355 202.783,279.347 203.246,279.339 203.71,279.33 204.173,279.322 204.637,279.314 205.101,279.305 205.564,279.297 206.028,279.289 206.491,279.28 206.955,279.272 207.419,279.264 207.882,279.255 208.346,279.247 208.809,279.239 209.273,279.23 209.737,279.222 210.2,279.214 210.664,279.206 211.127,279.197 211.591,279.189 212.054,279.181 212.518,279.173 212.982,279.165 213.445,279.156 213.909,279.148 214.372,279.14 214.836,279.132 215.3,279.124 215.763,279.116 216.227,279.107 216.69,279.099 217.154,279.091 217.618,279.083 218.081,279.075 218.545,279.067 219.008,279.059 219.472,279.051 219.935,279.043 220.399,279.035 220.863,279.026 221.326,279.018 221.79,279.01 222.253,279.002 222.717,278.994 223.181,278.986 223.644,278.978 224.108,278.97 224.571,278.962 225.035,278.954 225.499,278.946 225.962,278.938 226.426,278.93 226.889,278.922 227.353,278.914 227.816,278.906 228.28,278.899 228.744,278.891 229.207,278.883 229.671,278.875 230.134,278.867 230.598,278.859 231.062,278.851 231.525,278.843 231.989,278.835 232.452,278.827 232.916,278.82 233.38,278.812 233.843,278.804 234.307,278.796 234.77,278.788 235.234,278.78 235.697,278.773 236.161,278.765 236.625,278.757 237.088,278.749 237.552,278.742 238.015,278.734 238.479,278.726 238.943,278.718 239.406,278.71 239.87,278.703 240.333,278.695 240.797,278.687 241.261,278.68 241.724,278.672 242.188,278.664 242.651,278.656 243.115,278.649 243.578,278.641 244.042,278.633 244.506,278.626 244.969,278.618 245.433,278.61 245.896,278.603 246.36,278.595 246.824,278.588 247.287,278.58 247.751,278.572 248.214,278.565 248.678,278.557 249.142,278.55 249.605,278.542 250.069,278.534 250.532,278.527 250.996,278.519 251.459,278.512 251.923,278.504 252.387,278.497 252.85,278.489 253.314,278.482 253.777,278.474 254.241,278.467 254.705,278.459 255.168,278.452 255.632,278.444 256.095,278.437 256.559,278.429 257.023,278.422 257.486,278.414 257.95,278.407 258.413,278.399 258.877,278.392 259.34,278.385 259.804,278.377 260.268,278.37 260.731,278.362 261.195,278.355 261.658,278.348 262.122,278.34 262.586,278.333 263.049,278.326 263.513,278.318 263.976,278.311 264.44,278.303 264.904,278.296 265.367,278.289 265.831,278.281 266.294,278.274 266.758,278.267 267.221,278.26 267.685,278.252 268.149,278.245 268.612,278.238 269.076,278.23 269.539,278.223 270.003,278.216 270.467,278.209 270.93,278.201 271.394,278.194 271.857,278.187 272.321,278.18 272.785,278.173 273.248,278.165 273.712,278.158 274.175,278.151 274.639,278.144 275.103,278.137 275.566,278.129 276.03,278.122 276.493,278.115 276.957,278.108 277.42,278.101 277.884,278.094 278.348,278.087 278.811,278.08 279.275,278.072 279.738,278.065 280.202,278.058 280.666,278.051 281.129,278.044 281.593,278.037 282.056,278.03 282.52,278.023 282.984,278.016 283.447,278.009 283.911,278.002 284.374,277.995 284.838,277.988 285.301,277.981 285.765,277.974 286.229,277.967 286.692,277.96 287.156,277.953 287.619,277.946 288.083,277.939 288.547,277.932 289.01,277.925 289.474,277.918 289.937,277.911 290.401,277.904 290.865,277.897 291.328,277.89 291.792,277.883 292.255,277.876 292.719,277.869 293.182,277.862 293.646,277.856 294.11,277.849 294.573,277.842 295.037,277.835 295.5,277.828 295.964,277.821 296.428,277.814 296.891,277.807 297.355,277.801 297.818,277.794 298.282,277.787 298.746,277.78 299.209,277.773 299.673,277.767 300.136,277.76 300.6,277.753 301.063,277.746 301.527,277.739 301.991,277.733 302.454,277.726 302.918,277.719 303.381,277.712 303.845,277.706 304.309,277.699 304.772,277.692 305.236,277.685 305.699,277.679 306.163,277.672 306.627,277.665 307.09,277.659 307.554,277.652 308.017,277.645 308.481,277.639 308.944,277.632 309.408,277.625 309.872,277.619 310.335,277.612 310.799,277.605 311.262,277.599 311.726,277.592 312.19,277.585 312.653,277.579 313.117,277.572 313.58,277.566 314.044,277.559 314.508,277.552 314.971,277.546 315.435,277.539 315.898,277.533 316.362,277.526 316.825,277.52 317.289,277.513 317.753,277.507 318.216,277.5 318.68,277.493 319.143,277.487 319.607,277.48 320.071,277.474 320.534,277.467 320.998,277.461 321.461,277.454 321.925,277.448 322.389,277.441 322.852,277.435 323.316,277.429 323.779,277.422 324.243,277.416 324.706,277.409 325.17,277.403 325.634,277.396 326.097,277.39 326.561,277.383 327.024,277.377 327.488,277.371 327.952,277.364 328.415,277.358 328.879,277.351 329.342,277.345 329.806,277.339 330.27,277.332 330.733,277.326 331.197,277.32 331.66,277.313 332.124,277.307 332.587,277.301 333.051,277.294 333.515,277.288"/>
  </g>
 </g>
</svg>
