<?xml version='1.0' encoding='UTF-8' standalone='no'?>
<svg xmlns:xlink="http://www.w3.org/1999/xlink" width="420pt" height="315pt" viewBox="0 0 420 315" xmlns="http://www.w3.org/2000/svg">
 <title>Figure 1</title>
 <desc>
Creator: GL2PS 1.4.2, (C) 1999-2020 C. Geuzaine
For: Octave
CreationDate: Tue Jun 23 05:15:28 2026
</desc>
 <defs/>
 <polygon points="0,0 420,0 420,315 0,315" fill="#ffffff"/>
 <g>
  <polygon points="0,315 420,315 420,0 0,0" shape-rendering="crispEdges" fill="#ffffff"/>
  <clipPath id="cp00420315">
   <polygon points="0,315 420,315 420,0 0,0"/>
  </clipPath>
  <g clip-path="url(#cp00420315)">
   <polygon points="54.6091,277.562 380.164,277.562 380.164,23.629 54.6091,23.629" shape-rendering="crispEdges" fill="#ffffff"/>
   <polyline stroke="#262626" points="54.6091,277.562 54.6091,23.629" stroke-width="0.5" stroke-linejoin="miter" stroke-dasharray="16,0" fill="none" stroke-linecap="butt" stroke-opacity="0.15"/>
   <polyline stroke="#262626" points="119.72,277.562 119.72,23.629" stroke-width="0.5" stroke-linejoin="miter" stroke-dasharray="16,0" fill="none" stroke-linecap="butt" stroke-opacity="0.15"/>
   <polyline stroke="#262626" points="184.831,277.562 184.831,23.629" stroke-width="0.5" stroke-linejoin="miter" stroke-dasharray="16,0" fill="none" stroke-linecap="butt" stroke-opacity="0.15"/>
   <polyline stroke="#262626" points="249.942,277.562 249.942,23.629" stroke-width="0.5" stroke-linejoin="miter" stroke-dasharray="16,0" fill="none" stroke-linecap="butt" stroke-opacity="0.15"/>
   <polyline stroke="#262626" points="315.053,277.562 315.053,23.629" stroke-width="0.5" stroke-linejoin="miter" stroke-dasharray="16,0" fill="none" stroke-linecap="butt" stroke-opacity="0.15"/>
   <polyline stroke="#262626" points="380.164,277.562 380.164,23.629" stroke-width="0.5" stroke-linejoin="miter" stroke-dasharray="16,0" fill="none" stroke-linecap="butt" stroke-opacity="0.15"/>
   <polyline stroke="#262626" points="54.6091,277.562 54.6091,274.308" stroke-width="0.5" stroke-linejoin="miter" fill="none" stroke-linecap="butt"/>
   <polyline stroke="#262626" points="54.6091,23.629 54.6091,26.8837" stroke-width="0.5" stroke-linejoin="miter" fill="none" stroke-linecap="butt"/>
   <polyline stroke="#262626" points="119.72,277.562 119.72,274.308" stroke-width="0.5" stroke-linejoin="miter" fill="none" stroke-linecap="butt"/>
   <polyline stroke="#262626" points="119.72,23.629 119.72,26.8837" stroke-width="0.5" stroke-linejoin="miter" fill="none" stroke-linecap="butt"/>
   <polyline stroke="#262626" points="184.831,277.562 184.831,274.308" stroke-width="0.5" stroke-linejoin="miter" fill="none" stroke-linecap="butt"/>
   <polyline stroke="#262626" points="184.831,23.629 184.831,26.8837" stroke-width="0.5" stroke-linejoin="miter" fill="none" stroke-linecap="butt"/>
   <polyline stroke="#262626" points="249.942,277.562 249.942,274.308" stroke-width="0.5" stroke-linejoin="miter" fill="none" stroke-linecap="butt"/>
   <polyline stroke="#262626" points="249.942,23.629 249.942,26.8837" stroke-width="0.5" stroke-linejoin="miter" fill="none" stroke-linecap="butt"/>
   <polyline stroke="#262626" points="315.053,277.562 315.053,274.308" stroke-width="0.5" stroke-linejoin="miter" fill="none" stroke-linecap="butt"/>
   <polyline stroke="#262626" points="315.053,23.629 315.053,26.8837" stroke-width="0.5" stroke-linejoin="miter" fill="none" stroke-linecap="butt"/>
   <polyline stroke="#262626" points="380.164,277.562 380.164,274.308" stroke-width="0.5" stroke-linejoin="miter" fill="none" stroke-linecap="butt"/>
   <polyline stroke="#262626" points="380.164,23.629 380.164,26.8837" stroke-width="0.5" stroke-linejoin="miter" fill="none" stroke-linecap="butt"/>
   <g font-size="14" font-weight="normal" xml:space="preserve" transform="translate(50.6091,299.059) rotate(-0,4,-11)" font-family="FreeSans" font-style="normal">
    <text x="0 " y="-0" fill="rgb(38,38,38)">0</text>
   </g>
   <g font-size="14" font-weight="normal" xml:space="preserve" transform="translate(107.72,299.059) rotate(-0,12,-11)" font-family="FreeSans" font-style="normal">
    <text x="0 8 16 " y="-0" fill="rgb(38,38,38)">100</text>
   </g>
   <g font-size="14" font-weight="normal" xml:space="preserve" transform="translate(172.831,299.059) rotate(-0,12,-11)" font-family="FreeSans" font-style="normal">
    <text x="0 8 16 " y="-0" fill="rgb(38,38,38)">200</text>
   </g>
   <g font-size="14" font-weight="normal" xml:space="preserve" transform="translate(237.942,299.059) rotate(-0,12,-11)" font-family="FreeSans" font-style="normal">
    <text x="0 8 16 " y="-0" fill="rgb(38,38,38)">300</text>
   </g>
   <g font-size="14" font-weight="normal" xml:space="preserve" transform="translate(303.053,299.059) rotate(-0,12,-11)" font-family="FreeSans" font-style="normal">
    <text x="0 8 16 " y="-0" fill="rgb(38,38,38)">400</text>
   </g>
   <g font-size="14" font-weight="normal" xml:space="preserve" transform="translate(368.164,299.059) rotate(-0,12,-11)" font-family="FreeSans" font-style="normal">
    <text x="0 8 16 " y="-0" fill="rgb(38,38,38)">500</text>
   </g>
   <polyline stroke="#262626" points="54.6091,277.562 380.164,277.562" stroke-width="0.5" stroke-linejoin="miter" stroke-dasharray="16,0" fill="none" stroke-linecap="butt" stroke-opacity="0.15"/>
   <polyline stroke="#262626" points="54.6091,226.776 380.164,226.776" stroke-width="0.5" stroke-linejoin="miter" stroke-dasharray="16,0" fill="none" stroke-linecap="butt" stroke-opacity="0.15"/>
   <polyline stroke="#262626" points="54.6091,175.989 380.164,175.989" stroke-width="0.5" stroke-linejoin="miter" stroke-dasharray="16,0" fill="none" stroke-linecap="butt" stroke-opacity="0.15"/>
   <polyline stroke="#262626" points="54.6091,125.202 380.164,125.202" stroke-width="0.5" stroke-linejoin="miter" stroke-dasharray="16,0" fill="none" stroke-linecap="butt" stroke-opacity="0.15"/>
   <polyline stroke="#262626" points="54.6091,74.4156 380.164,74.4156" stroke-width="0.5" stroke-linejoin="miter" stroke-dasharray="16,0" fill="none" stroke-linecap="butt" stroke-opacity="0.15"/>
   <polyline stroke="#262626" points="54.6091,23.629 380.164,23.629" stroke-width="0.5" stroke-linejoin="miter" stroke-dasharray="16,0" fill="none" stroke-linecap="butt" stroke-opacity="0.15"/>
   <polyline stroke="#262626" points="54.6091,277.562 57.8602,277.562" stroke-width="0.5" stroke-linejoin="miter" fill="none" stroke-linecap="butt"/>
   <polyline stroke="#262626" points="380.164,277.562 376.913,277.562" stroke-width="0.5" stroke-linejoin="miter" fill="none" stroke-linecap="butt"/>
   <polyline stroke="#262626" points="54.6091,226.776 57.8602,226.776" stroke-width="0.5" stroke-linejoin="miter" fill="none" stroke-linecap="butt"/>
   <polyline stroke="#262626" points="380.164,226.776 376.913,226.776" stroke-width="0.5" stroke-linejoin="miter" fill="none" stroke-linecap="butt"/>
   <polyline stroke="#262626" points="54.6091,175.989 57.8602,175.989" stroke-width="0.5" stroke-linejoin="miter" fill="none" stroke-linecap="butt"/>
   <polyline stroke="#262626" points="380.164,175.989 376.913,175.989" stroke-width="0.5" stroke-linejoin="miter" fill="none" stroke-linecap="butt"/>
   <polyline stroke="#262626" points="54.6091,125.202 57.8602,125.202" stroke-width="0.5" stroke-linejoin="miter" fill="none" stroke-linecap="butt"/>
   <polyline stroke="#262626" points="380.164,125.202 376.913,125.202" stroke-width="0.5" stroke-linejoin="miter" fill="none" stroke-linecap="butt"/>
   <polyline stroke="#262626" points="54.6091,74.4156 57.8602,74.4156" stroke-width="0.5" stroke-linejoin="miter" fill="none" stroke-linecap="butt"/>
   <polyline stroke="#262626" points="380.164,74.4156 376.913,74.4156" stroke-width="0.5" stroke-linejoin="miter" fill="none" stroke-linecap="butt"/>
   <polyline stroke="#262626" points="54.6091,23.629 57.8602,23.629" stroke-width="0.5" stroke-linejoin="miter" fill="none" stroke-linecap="butt"/>
   <polyline stroke="#262626" points="380.164,23.629 376.913,23.629" stroke-width="0.5" stroke-linejoin="miter" fill="none" stroke-linecap="butt"/>
   <g font-size="14" font-weight="normal" xml:space="preserve" transform="translate(39.6187,283.062) rotate(-0,8,-5.5)" font-family="FreeSans" font-style="normal">
    <text x="0 " y="-0" fill="rgb(38,38,38)">0</text>
   </g>
   <g font-size="14" font-weight="normal" xml:space="preserve" transform="translate(27.6187,232.276) rotate(-0,20,-5.5)" font-family="FreeSans" font-style="normal">
    <text x="0 8 12 " y="-0" fill="rgb(38,38,38)">0.2</text>
   </g>
   <g font-size="14" font-weight="normal" xml:space="preserve" transform="translate(27.6187,181.489) rotate(-0,20,-5.5)" font-family="FreeSans" font-style="normal">
    <text x="0 8 12 " y="-0" fill="rgb(38,38,38)">0.4</text>
   </g>
   <g font-size="14" font-weight="normal" xml:space="preserve" transform="translate(27.6187,130.702) rotate(-0,20,-5.5)" font-family="FreeSans" font-style="normal">
    <text x="0 8 12 " y="-0" fill="rgb(38,38,38)">0.6</text>
   </g>
   <g font-size="14" font-weight="normal" xml:space="preserve" transform="translate(27.6187,79.9156) rotate(-0,20,-5.5)" font-family="FreeSans" font-style="normal">
    <text x="0 8 12 " y="-0" fill="rgb(38,38,38)">0.8</text>
   </g>
   <g font-size="14" font-weight="normal" xml:space="preserve" transform="translate(39.6187,29.129) rotate(-0,8,-5.5)" font-family="FreeSans" font-style="normal">
    <text x="0 " y="-0" fill="rgb(38,38,38)">1</text>
   </g>
   <polyline stroke="#262626" points="54.6091,277.562 380.164,277.562" stroke-width="0.5" stroke-linejoin="miter" stroke-dasharray="16,0" fill="none" stroke-linecap="square"/>
   <polyline stroke="#262626" points="54.6091,23.629 380.164,23.629" stroke-width="0.5" stroke-linejoin="miter" stroke-dasharray="16,0" fill="none" stroke-linecap="square"/>
   <polyline stroke="#262626" points="54.6091,277.562 54.6091,23.629" stroke-width="0.5" stroke-linejoin="miter" stroke-dasharray="16,0" fill="none" stroke-linecap="square"/>
   <polyline stroke="#262626" points="380.164,277.562 380.164,23.629" stroke-width="0.5" stroke-linejoin="miter" stroke-dasharray="16,0" fill="none" stroke-linecap="square"/>
   <g font-size="15.4" font-weight="normal" xml:space="preserve" transform="translate(215.386,315.059) rotate(-0,2,-11)" font-family="FreeSans" font-style="normal">
    <text x="0 " y="-0" fill="rgb(38,38,38)">t</text>
   </g>
   <g font-size="15.4" font-weight="normal" xml:space="preserve" transform="translate(17.6187,150.596) rotate(-90,5,0)" font-family="FreeSans" font-style="normal">
    <text x="0 " y="-0" fill="rgb(38,38,38)">E</text>
   </g>
   <polyline stroke="#0071bc" points="54.6091,23.629 60.4226,45.3189 66.2361,65.1561 72.0496,83.299 77.863,99.8921 83.6765,115.068 89.49,128.948 95.3035,141.642 101.117,153.251 106.93,163.869 112.744,173.581 118.557,182.462 124.371,190.585 130.184,198.015 135.998,204.809 141.811,211.023 147.625,216.707 153.438,221.905 159.252,226.659 165.065,231.007 170.879,234.983 176.692,238.62 182.506,241.947 188.319,244.989 194.133,247.771 199.946,250.316 205.759,252.643 211.573,254.771 217.386,256.718 223.2,258.499 229.013,260.127 234.827,261.616 240.64,262.978 246.454,264.224 252.267,265.363 258.081,266.405 263.894,267.358 269.708,268.23 275.521,269.027 281.335,269.756 287.148,270.423 292.962,271.033 298.775,271.59 304.589,272.1 310.402,272.567 316.215,272.994 322.029,273.384 327.842,273.741 333.656,274.067 339.469,274.366 345.283,274.639 351.096,274.888 356.91,275.117 362.723,275.326 368.537,275.517 374.35,275.691 380.164,275.851" stroke-width="0.5" stroke-linejoin="round" fill="none" stroke-linecap="butt"/>
  </g>
  <clipPath id="cp00420315">
   <polygon points="0,315 420,315 420,0 0,0"/>
  </clipPath>
  <g clip-path="url(#cp00420315)">
   <polygon points="238.17,53.6263 372.165,53.6263 372.165,31.6276 238.17,31.6276" shape-rendering="crispEdges" fill="#ffffff"/>
   <polyline stroke="#262626" points="238.17,53.6263 372.165,53.6263" stroke-width="0.5" stroke-linejoin="miter" stroke-dasharray="16,0" fill="none" stroke-linecap="square"/>
   <polyline stroke="#262626" points="238.17,31.6276 372.165,31.6276" stroke-width="0.5" stroke-linejoin="miter" stroke-dasharray="16,0" fill="none" stroke-linecap="square"/>
   <polyline stroke="#262626" points="238.17,53.6263 238.17,31.6276" stroke-width="0.5" stroke-linejoin="miter" stroke-dasharray="16,0" fill="none" stroke-linecap="square"/>
   <polyline stroke="#262626" points="372.165,53.6263 372.165,31.6276" stroke-width="0.5" stroke-linejoin="miter" stroke-dasharray="16,0" fill="none" stroke-linecap="square"/>
   <polyline stroke="#0071bc" points="242.17,42.627 262.166,42.627" stroke-width="0.5" stroke-linejoin="round" fill="none" stroke-linecap="butt"/>
   <g font-size="12.6" font-weight="normal" xml:space="preserve" transform="translate(266.166,49.6269) rotate(-0,-0,-7)" font-family="FreeSans" font-style="normal">
    <text x="0 13 17 23 27 30 37 43 50 53 57 61 67 70 74 77 84 91 98 " y="-3" fill="rgb(0,0,0)">@(x) exp (-x / 100)</text>
   </g>
  </g>
 </g>
</svg>
